<svg enable-background="new 0 0 16 16" viewBox="0 0 16 16" xmlns="http://www.w3.org/2000/svg"><g fill="#fff"><path d="m14.657 2.42h-2.893v-.472c0-1.074-.874-1.948-1.949-1.948h-3.631c-1.074 0-1.948.874-1.949 1.948v.472h-2.892c-.408 0-.738.33-.738.738s.331.738.738.738h.472v10.761c0 .74.603 1.343 1.343 1.343h9.683c.741 0 1.343-.603 1.344-1.343v-10.761h.472c.407 0 .738-.33.738-.738s-.331-.738-.738-.738zm-8.946-.472c0-.261.212-.473.473-.473h3.631c.261 0 .473.212.473.473v.472h-4.577zm6.998 12.577h-9.418v-10.629h1.677c.002 0 .003.001.005.001s.003-.001.005-.001h7.731z"/><path d="m6.184 12.369c.407 0 .738-.331.738-.738v-4.842c0-.408-.331-.738-.738-.738-.408 0-.738.331-.738.738v4.842c0 .408.331.738.738.738z"/><path d="m9.815 12.369c.407 0 .737-.331.738-.738v-4.842c0-.408-.33-.738-.738-.738s-.738.331-.738.738v4.842c0 .408.331.738.738.738z"/></g></svg>