<svg enable-background="new 0 0 16 16" viewBox="0 0 16 16" xmlns="http://www.w3.org/2000/svg"><g fill="#fff"><path d="m6.961 2.077c-.403 0-.73.327-.73.73v.828h-4.981c-.69 0-1.25.56-1.25 1.249v6.232c0 .689.561 1.249 1.25 1.249h4.981v.828c0 .403.327.73.73.73s.73-.327.73-.731v-10.385c0-.403-.327-.73-.73-.73zm-5.501 8.827v-5.809h4.771v5.809z"/><path d="m14.75 3.636h-5.712c-.403 0-.73.327-.73.73s.327.73.73.73h5.501v5.809h-5.501c-.403 0-.73.327-.73.73s.327.73.73.73h5.713c.689 0 1.249-.56 1.249-1.249v-6.232c0-.688-.56-1.249-1.25-1.248z"/><path d="m4.884 6.232h-1.033c-.002 0-.003-.001-.005-.001s-.003.001-.005.001h-1.034c-.403 0-.73.327-.73.73s.327.73.73.73h.309v1.347c0 .403.327.73.73.73s.73-.327.73-.731v-1.346h.308c.403 0 .73-.327.73-.73s-.327-.73-.73-.73z"/></g></svg>