<svg enable-background="new 0 0 16 16" viewBox="0 0 16 16" xmlns="http://www.w3.org/2000/svg"><g fill="#6b7a8a"><path d="m.74 4.502v.01c.41 0 .74-.33.74-.74v-1.079h2.279c.41 0 .74-.33.74-.74s-.33-.74-.74-.74h-2.42c-.739.001-1.339.601-1.339 1.34v1.209c0 .41.33.74.74.74z"/><path d="m.74 9.949c.41 0 .74-.33.74-.74v-2.418c0-.41-.33-.74-.74-.74s-.74.33-.74.74v2.419c0 .409.33.739.74.739z"/><path d="m3.768 13.317h-2.289v-1.079c0-.41-.33-.74-.74-.74s-.74.33-.74.74v1.209c0 .74.6 1.339 1.339 1.339h2.418l.01.01c.41 0 .74-.33.74-.74.001-.41-.329-.739-.738-.739z"/><path d="m9.204 13.307h-2.418c-.41 0-.74.33-.74.74s.33.74.74.74h2.418c.41 0 .74-.33.74-.74s-.33-.74-.74-.74z"/><path d="m15.26 11.488c-.41 0-.74.33-.74.74v1.079h-2.289c-.41 0-.74.33-.74.74s.33.74.74.74h2.418l.01-.01c.74 0 1.339-.6 1.339-1.339v-1.209c.002-.411-.328-.741-.738-.741z"/><path d="m15.25 6.051c-.41 0-.74.33-.74.74v2.419c0 .41.33.74.74.74s.74-.33.74-.74v-2.419c0-.41-.33-.74-.74-.74z"/><path d="m12.222 2.683h2.289v1.079c0 .41.33.74.74.74l-.01-.01c.41 0 .74-.33.74-.74v-1.209c0-.74-.6-1.339-1.339-1.339h-2.419c-.41 0-.74.33-.74.74s.33.739.739.739z"/><path d="m9.204 1.214h-2.418c-.41 0-.74.33-.74.74s.33.74.74.74h2.418c.41 0 .74-.33.74-.74s-.33-.74-.74-.74z"/></g></svg>