<svg enable-background="new 0 0 16 16" viewBox="0 0 16 16" xmlns="http://www.w3.org/2000/svg"><g fill="#fff"><path d="m.738 4.502c.407 0 .737-.33.737-.737v-1.078h2.289c.408 0 .738-.33.738-.738s-.331-.738-.738-.738h-2.421c-.74 0-1.343.602-1.343 1.343v1.211c0 .407.33.737.738.737z"/><path d="m.738 9.947c.407 0 .737-.33.738-.737v-2.42c0-.408-.33-.738-.738-.738s-.738.331-.738.738v2.42c0 .407.33.737.738.737z"/><path d="m3.765 13.315h-2.289v-1.079c0-.408-.33-.738-.738-.738s-.738.331-.738.738v1.21c0 .741.603 1.344 1.343 1.344h2.421c.407 0 .739-.329.739-.737s-.331-.738-.738-.738z"/><path d="m9.209 13.314h-2.42c-.408 0-.738.33-.738.738s.331.738.738.738h2.421c.407 0 .738-.33.738-.738s-.332-.738-.739-.738z"/><path d="m15.262 11.497c-.408 0-.738.331-.738.738v1.079h-2.289c-.408 0-.738.33-.738.738s.331.738.738.738h2.421c.741 0 1.343-.603 1.344-1.345v-1.21c0-.408-.331-.738-.738-.738z"/><path d="m15.261 6.052c-.408 0-.738.331-.738.738v2.42c0 .408.331.738.738.738.408 0 .738-.33.738-.737v-2.421c0-.407-.33-.737-.738-.738z"/><path d="m12.234 2.686h2.289v1.078c0 .408.331.738.738.738.408 0 .738-.33.738-.737v-1.211c0-.741-.602-1.343-1.344-1.344h-2.421c-.408 0-.738.33-.738.738s.331.738.738.738z"/><path d="m9.209 1.211h-2.42c-.407 0-.738.329-.738.737s.331.738.738.738h2.421c.407 0 .738-.329.738-.737s-.332-.738-.739-.738z"/></g></svg>