<svg enable-background="new 0 0 16 16" viewBox="0 0 16 16" xmlns="http://www.w3.org/2000/svg"><g fill="#6b7a8a"><path d="m.75 8.7c-.41 0-.75.34-.75.75s.34.75.75.75c2.78 0 5.05 2.26 5.05 5.05 0 .41.34.75.75.75s.75-.34.75-.75c0-3.61-2.94-6.55-6.55-6.55z"/><path d="m.75 4.35c-.41 0-.75.34-.75.75s.34.75.75.75c5.18 0 9.4 4.22 9.4 9.4 0 .41.34.75.75.75s.75-.34.75-.75c0-6.01-4.89-10.9-10.9-10.9z"/><path d="m.75 0c-.41 0-.75.34-.75.75s.34.75.75.75c7.58 0 13.75 6.17 13.75 13.75 0 .41.34.75.75.75s.75-.34.75-.75c0-8.41-6.84-15.25-15.25-15.25z"/><path d="m1.11 13.8c-.602 0-1.09.488-1.09 1.09s.488 1.09 1.09 1.09 1.09-.488 1.09-1.09-.488-1.09-1.09-1.09z"/></g></svg>