<svg enable-background="new 0 0 16 16" viewBox="0 0 16 16" xmlns="http://www.w3.org/2000/svg"><g fill="#fff"><path d="m5.629 7.471c-.293-.292-.766-.293-1.058 0s-.292.766 0 1.058l2.9 2.901c.005.005.013.007.018.012.066.062.14.114.225.149.092.038.189.058.286.058.098 0 .195-.02.286-.058.084-.035.157-.087.223-.148.006-.006.014-.007.02-.013l2.901-2.901c.292-.293.292-.766 0-1.058-.293-.292-.766-.292-1.058 0l-1.624 1.624v-6.897c0-.413-.335-.748-.748-.748s-.748.335-.748.748v6.897z"/><path d="m13.802 2.9h-2.901c-.413 0-.748.335-.748.748s.335.748.748.748h2.901c.387 0 .702.315.702.703v7.252c0 .387-.314.703-.702.703h-11.604c-.388 0-.703-.315-.703-.703v-7.252c0-.388.315-.703.703-.703h2.901c.413 0 .748-.334.748-.747s-.335-.748-.748-.748h-2.901c-1.212 0-2.198.986-2.198 2.198v7.252c0 1.212.986 2.199 2.198 2.199h11.604c1.213 0 2.198-.987 2.198-2.199v-7.252c0-1.212-.985-2.198-2.198-2.199z"/></g></svg>