<svg enable-background="new 0 0 16 16" viewBox="0 0 16 16" xmlns="http://www.w3.org/2000/svg"><g fill="#fff"><path d="m8 0c-4.411 0-8 3.589-8 8s3.589 8 8 8 8-3.589 8-8-3.589-8-8-8zm0 14.525c-3.598 0-6.525-2.927-6.525-6.525s2.927-6.525 6.525-6.525 6.525 2.927 6.525 6.525-2.927 6.525-6.525 6.525z"/><path d="m11.026 7.262h-2.288v-2.288c0-.408-.33-.738-.738-.738s-.738.331-.738.738v2.288h-2.288c-.408 0-.738.33-.738.738s.331.738.738.738h2.288v2.288c0 .408.331.738.738.738s.738-.331.738-.738v-2.288h2.288c.407 0 .738-.33.738-.738s-.331-.738-.738-.738z"/></g></svg>