<svg enable-background="new 0 0 16 16" viewBox="0 0 16 16" xmlns="http://www.w3.org/2000/svg"><g fill="#fff"><path d="m4.57 5.107c-.218-.176-.537-.138-.713.079-.175.219-.139.538.08.714l2.627 2.101-2.628 2.102c-.218.175-.254.494-.079.713.101.125.248.19.397.19.111 0 .223-.037.317-.111l3.122-2.498c.12-.096.19-.242.19-.396s-.07-.3-.191-.397z"/><path d="m11.746 9.992h-3.122c-.28 0-.507.227-.507.507s.227.507.507.507h3.122c.281 0 .508-.227.507-.507 0-.28-.227-.507-.507-.507z"/><path d="m14.868 1.249h-13.736c-.624 0-1.132.508-1.132 1.132v11.239c0 .624.508 1.132 1.132 1.132h13.736c.625 0 1.132-.508 1.132-1.132v-11.239c0-.623-.507-1.131-1.132-1.132zm.117 12.371c0 .065-.053.118-.117.118h-13.736c-.064 0-.117-.053-.117-.118v-11.239c0-.064.052-.117.117-.117h13.736c.064 0 .117.053.117.117z"/></g></svg>