<svg enable-background="new 0 0 16 16" viewBox="0 0 16 16" xmlns="http://www.w3.org/2000/svg"><g fill="#fff"><path d="m13.445 6.051h-1.815c-.408 0-.738.331-.738.738 0 .408.331.738.738.738h1.684v6.999h-10.629v-6.998h1.685c.408 0 .738-.331.738-.738 0-.408-.331-.738-.738-.738h-1.817c-.741 0-1.343.603-1.343 1.343v7.262c0 .74.603 1.343 1.343 1.343h10.893c.741 0 1.344-.603 1.343-1.344v-7.262c0-.74-.604-1.343-1.344-1.343z"/><path d="m5.495 4.285 1.767-1.766v6.691c0 .408.331.738.738.738s.737-.33.738-.737v-6.692l1.767 1.766c.144.144.332.216.521.216s.377-.072.521-.216c.288-.288.288-.755 0-1.043l-3.024-3.024c-.068-.069-.15-.124-.241-.161-.086-.036-.177-.053-.268-.054-.005 0-.009-.003-.014-.003-.096 0-.192.02-.282.057-.081.034-.151.084-.214.142-.008.007-.018.01-.025.017l-3.026 3.026c-.288.288-.288.755 0 1.043.287.288.754.288 1.042 0z"/></g></svg>