<svg enable-background="new 0 0 16 16" viewBox="0 0 16 16" xmlns="http://www.w3.org/2000/svg"><g fill="#fff"><path d="m15.95 7.111c-.237-2.122-1.287-4.026-2.956-5.36-1.669-1.333-3.755-1.939-5.881-1.699-2.298.256-4.305 1.461-5.603 3.273v-1.761c0-.417-.338-.755-.755-.755s-.755.338-.755.755v4.023c0 .417.338.755.755.755h4.024c.417 0 .755-.337.755-.754s-.338-.755-.755-.755h-2.434c1.011-1.815 2.821-3.045 4.936-3.28 1.723-.191 3.416.297 4.771 1.379 1.354 1.081 2.206 2.625 2.399 4.348.398 3.555-2.171 6.772-5.727 7.17-3.555.382-6.772-2.172-7.17-5.728-.047-.414-.419-.716-.835-.666-.414.046-.713.42-.666.834.457 4.082 3.928 7.11 7.944 7.11.295 0 .594-.016.893-.05 4.384-.49 7.551-4.457 7.06-8.839z"/><path d="m9.558 8.001c0-.86-.699-1.56-1.559-1.56s-1.56.7-1.56 1.56.7 1.56 1.56 1.56 1.559-.7 1.559-1.56z"/></g></svg>