<svg enable-background="new 0 0 16 16" viewBox="0 0 16 16" xmlns="http://www.w3.org/2000/svg"><g fill="#fff"><path d="m15.267 3.354h-11.004v-.944c0-.405-.329-.734-.734-.734h-1.118c-1.33.001-2.411 1.082-2.411 2.411v7.826c0 1.329 1.081 2.41 2.411 2.41h12.855c.405 0 .734-.328.734-.734v-9.502c0-.405-.329-.733-.733-.733zm-13.799.733c0-.52.423-.943.943-.943h.384v6.358h-.384c-.334 0-.653.068-.943.192zm13.064 8.77h-12.122c-.52 0-.943-.423-.943-.943 0-.521.423-.944.944-.943h1.117c.405 0 .734-.329.734-.734v-5.416h10.27z"/><path d="m6.323 8.943c-.405 0-.734.329-.734.734s.329.734.734.734h.943v.383c0 .405.329.734.734.734s.734-.328.734-.734v-.383h1.327v.383c0 .405.329.734.734.734s.734-.328.734-.734v-.383h.942c.405 0 .734-.329.734-.734s-.329-.734-.734-.734h-.942v-.768h.942c.405 0 .734-.329.734-.734s-.329-.734-.734-.734h-.942v-.384c0-.405-.329-.734-.734-.734s-.734.329-.734.734v.384h-1.327v-.384c0-.405-.329-.734-.734-.734s-.734.33-.734.734v.384h-.943c-.405 0-.734.329-.734.734s.329.734.734.734h.943v.768zm2.411-.768h1.327v.768h-1.327z"/></g></svg>