<svg enable-background="new 0 0 16 16" viewBox="0 0 16 16" xmlns="http://www.w3.org/2000/svg"><path d="m15.597 3.443c-.063-.154-.198-.269-.36-.305s-.333.01-.455.122l-3.189 2.942-1.477-.318-.318-1.477 2.941-3.188c.113-.123.159-.293.123-.455-.037-.162-.15-.297-.305-.359-1.544-.626-3.266-.521-4.721.285-1.286.71-2.218 1.879-2.624 3.29-.368 1.278-.266 2.617.284 3.813l-4.798 4.14c-.45.45-.698 1.048-.698 1.685 0 .636.247 1.234.697 1.684.45.449 1.048.698 1.685.698.636 0 1.235-.248 1.711-.725l4.114-4.77c1.373.63 2.936.67 4.35.098 1.362-.551 2.428-1.599 3.002-2.951.575-1.352.588-2.847.038-4.209zm-.97 3.812c-.469 1.103-1.337 1.957-2.449 2.406-1.259.508-2.662.423-3.85-.232-.21-.116-.473-.069-.63.113l-4.348 5.042c-.258.258-.602.401-.967.401s-.708-.142-.967-.401-.401-.602-.401-.967.142-.709.373-.942l5.07-4.374c.181-.156.228-.419.112-.629-.579-1.048-.716-2.259-.384-3.41s1.091-2.104 2.14-2.684c.676-.373 1.42-.562 2.167-.562.32 0 .641.034.958.103l-2.576 2.793c-.112.121-.158.289-.123.45l.44 2.055c.042.195.194.348.389.39l2.055.442c.163.034.33-.011.451-.123l2.794-2.577c.199.901.114 1.839-.254 2.706z" fill="#fff"/></svg>