<svg enable-background="new 0 0 16 16" viewBox="0 0 16 16" xmlns="http://www.w3.org/2000/svg"><path d="m15.852 8.431c.03-.044.067-.083.088-.133.003-.006.004-.012.006-.018.074-.187.072-.395-.006-.58-.014-.033-.041-.058-.059-.089-.032-.055-.059-.112-.106-.16-.001-.001-.002-.001-.003-.002l-6.191-6.191c-.303-.302-.792-.302-1.095 0-.302.303-.302.793 0 1.095l4.873 4.872h-12.585c-.427.001-.774.348-.774.775s.347.774.774.774h12.584l-4.872 4.872c-.302.303-.302.793 0 1.095.151.151.349.227.547.227.199 0 .396-.076.548-.227l6.191-6.192c.001-.001.002-.001.003-.002.034-.034.051-.077.077-.116z" fill="#fff"/></svg>