<svg enable-background="new 0 0 16 16" viewBox="0 0 16 16" xmlns="http://www.w3.org/2000/svg"><path d="m13.64 0h-11.27c-1.31 0-2.37 1.06-2.37 2.37v11.27c0 1.3 1.07 2.36 2.37 2.36h11.27c1.3 0 2.36-1.06 2.36-2.36v-11.27c0-1.31-1.06-2.37-2.36-2.37zm-7.28 9.64v-3.28h3.28v3.28zm3.28 1.52v3.33h-3.28v-3.33zm-8.13-4.8h3.33v3.28h-3.33zm4.85-1.52v-3.33h3.28v3.33zm4.8 1.52h3.34v3.28h-3.34zm3.34-3.99v2.47h-3.34v-3.33h2.48c.48 0 .86.39.86.86zm-12.13-.86h2.47v3.33h-3.33v-2.48c0-.47.39-.85.86-.85zm-.86 12.12v-2.47h3.33v3.33h-2.47c-.48 0-.86-.39-.86-.86zm12.13.86h-2.48v-3.33h3.34v2.47c0 .48-.39.86-.86.86z" fill="#fff"/></svg>