<svg enable-background="new 0 0 16 16" viewBox="0 0 16 16" xmlns="http://www.w3.org/2000/svg"><g fill="#fff"><path d="m7.037 10.871-2.113 2.114v-11.8c0-.419-.34-.759-.759-.759s-.759.34-.759.759v11.798l-2.111-2.112c-.296-.296-.777-.296-1.073 0s-.296.777 0 1.073l3.406 3.407c.07.07.153.125.245.164.092.038.191.059.292.059s.2-.021.292-.059c.07-.029.129-.076.186-.124.018-.015.042-.022.059-.039l3.408-3.408c.296-.296.296-.777 0-1.073s-.777-.296-1.073 0z"/><path d="m13.111.426c-1.593 0-2.889 1.296-2.889 2.889v2.982c0 .419.34.759.759.759s.759-.34.759-.759v-.946h2.742v.945c0 .419.34.759.759.759s.759-.34.759-.758v-2.982c0-1.593-1.296-2.889-2.889-2.889zm-1.371 3.407v-.518c0-.756.615-1.371 1.371-1.371s1.371.615 1.371 1.371v.518z"/><path d="m15.241 14.056h-2.64l3.223-3.867c.189-.226.229-.541.105-.808-.126-.267-.394-.437-.688-.437h-4.26c-.419 0-.759.34-.759.759s.34.759.759.759h2.64l-3.223 3.867c-.189.226-.229.541-.105.808.126.267.394.437.688.437h4.26c.419 0 .759-.34.759-.759s-.34-.759-.759-.759z"/></g></svg>