<svg enable-background="new 0 0 16 16" viewBox="0 0 16 16" xmlns="http://www.w3.org/2000/svg"><g fill="#fff"><path d="m3.887 7.186c1.927 0 3.495-1.568 3.495-3.495s-1.567-3.494-3.495-3.494-3.495 1.568-3.495 3.495 1.568 3.494 3.495 3.494zm0-5.483c1.097 0 1.989.892 1.989 1.989s-.892 1.989-1.989 1.989-1.989-.893-1.989-1.989.892-1.989 1.989-1.989z"/><path d="m4.541 9.193c-.269-.47-1.039-.47-1.308 0l-3.134 5.485c-.133.233-.132.52.003.751.134.232.382.375.651.375h6.268c.268 0 .516-.143.651-.375.135-.231.136-.518.003-.751zm-2.491 5.105 1.836-3.214 1.837 3.214z"/><path d="m13.569 3.691 2.21-2.209c.294-.295.295-.771 0-1.065s-.771-.294-1.065 0l-2.21 2.209-2.21-2.209c-.295-.294-.771-.294-1.065 0-.294.295-.294.771 0 1.065l2.21 2.209-2.21 2.209c-.294.295-.294.771 0 1.065.147.147.339.221.532.221.194 0 .386-.074.533-.221l2.21-2.209 2.21 2.209c.147.147.339.221.532.221s.385-.074.533-.221c.294-.295.294-.771 0-1.065z"/><path d="m15.246 8.813h-5.485c-.416 0-.753.337-.753.753v5.485c0 .416.337.753.753.753h5.485c.416 0 .753-.337.753-.753v-5.485c0-.415-.337-.752-.753-.753zm-.753 5.485h-3.979v-3.979h3.979z"/></g></svg>