<svg enable-background="new 0 0 16 16" viewBox="0 0 16 16" xmlns="http://www.w3.org/2000/svg"><path d="m14.71 5.865h-.95v-.94c0-.71-.58-1.29-1.29-1.29h-4.79l-1.89-1.42c-.23-.17-.5-.26-.78-.26h-3.72c-.71 0-1.29.58-1.29 1.29v10.07c0 .012.006.022.007.034.003.053.016.103.031.155.016.059.036.113.066.165.012.021.012.046.027.067.011.016.031.023.043.038.045.055.099.099.159.139.03.02.055.045.088.06.094.044.197.074.31.074h.01 12.51l-.01-.01c.32 0 .6-.2.7-.5l1.99-5.97c.05-.13.07-.27.07-.41-.001-.712-.581-1.292-1.291-1.292zm-9.74-2.44 2.04 1.53c.13.1.28.15.44.15h4.85v.76h-8.93c-.56 0-1.05.35-1.23.88l-.67 2.01v-5.33zm7.75 9.15h-10.97l1.75-5.24h10.97z" fill="#f13b6e"/></svg>