<svg width="16" height="16" enable-background="new 0 0 16 16" viewBox="0 0 16 16" xmlns="http://www.w3.org/2000/svg"><g fill="#fff"><path d="m8.947 1.263c-.409 0-.74.332-.74.74v3.995h-6.727v-3.995c0-.409-.331-.74-.74-.74s-.74.331-.74.74v9.47c0 .409.332.74.74.74s.74-.332.74-.741v-3.995h6.727v3.995c0 .409.332.74.74.74s.74-.332.74-.741v-9.468c0-.409-.332-.74-.74-.74z"/><path d="m15.609 5.771c-.241-.129-.532-.114-.759.037l-1.894 1.262c-.34.226-.431.686-.205 1.026.226.339.684.432 1.026.205l.743-.496v6.193c0 .409.332.74.74.74.409 0 .74-.331.74-.74v-7.576c0-.273-.15-.523-.391-.651z"/></g></svg>