<svg width="16" height="16" enable-background="new 0 0 16 16" viewBox="0 0 16 16" xmlns="http://www.w3.org/2000/svg"><g fill="#f08500"><path d="m14.83 2.281c-1.56-1.56-4.089-1.56-5.649 0l-.77.77c-.29.29-.29.75 0 1.04s.75.29 1.04 0l.77-.77c.98-.98 2.59-.98 3.569 0 .98.98.98 2.58 0 3.569l-2.43 2.43c-.95.95-2.62.95-3.569 0-.01-.01-.01-.01-.01-.01-.49-.48-.75-1.15-.73-1.84.01-.41-.3-.75-.71-.76-.38-.03-.74.31-.75.71-.04 1.09.39 2.16 1.16 2.93.01.01.02.02.02.02.75.75 1.75 1.16 2.81 1.16s2.07-.42 2.82-1.17l2.43-2.43c1.559-1.56 1.559-4.089-.001-5.649z"/><path d="m6.551 11.909-.77.77c-.95.95-2.62.95-3.569 0-.01-.01-.01-.01-.01-.01-.98-.99-.97-2.58.01-3.559l2.43-2.43c.98-.99 2.58-.99 3.569 0 .49.48.76 1.16.74 1.85-.01.41.31.75.71.76h.02c.39 0 .72-.31.73-.71.03-1.1-.39-2.17-1.17-2.94-1.56-1.56-4.089-1.56-5.649 0l-2.43 2.43c-1.55 1.55-1.55 4.079 0 5.639.01.01.02.02.02.02.75.75 1.75 1.16 2.81 1.16h.01c1.06 0 2.07-.41 2.82-1.17l.77-.77c.29-.29.29-.75 0-1.04-.291-.29-.751-.29-1.041 0z"/></g></svg>