<svg width="16" height="16" enable-background="new 0 0 16 16" viewBox="0 0 16 16" xmlns="http://www.w3.org/2000/svg"><path d="m15.43 4.3-3.13-3.13c-.76-.76-2-.76-2.76 0l-8.97 8.97c-.37.37-.57.86-.57 1.38s.2 1.01.57 1.38l2.27 2.27c.14.14.33.22.52.22h3.42l.01.01h7.87c.41 0 .74-.33.74-.74s-.33-.74-.74-.74h-6.09l6.86-6.86c.76-.76.76-2 0-2.76zm-8.96 9.61h-2.81l-2.06-2.06c-.09-.09-.14-.21-.14-.33s.05-.24.14-.33l3.968-3.972 3.797 3.797zm7.9-7.9-3.965 3.965-3.798-3.798 3.963-3.967c.18-.18.48-.19.67 0l3.13 3.13c.18.18.18.49 0 .67z" fill="#f13b6e"/></svg>