<svg width="16" height="16" enable-background="new 0 0 16 16" viewBox="0 0 16 16" xmlns="http://www.w3.org/2000/svg"><g fill="#fff"><path d="m14.332.905h-3.618c-.921 0-1.669.748-1.669 1.668v3.619c0 .92.749 1.668 1.669 1.668h3.618c.92 0 1.668-.749 1.668-1.669v-3.618c0-.921-.748-1.667-1.668-1.668zm.141 5.286c0 .078-.063.142-.141.142h-3.618c-.078 0-.142-.064-.142-.142v-3.618c0-.078.063-.141.142-.141h3.618c.077 0 .141.063.141.141z"/><path d="m.763 4.241h5.428c.421 0 .763-.342.763-.763s-.342-.763-.763-.763h-5.428c-.421 0-.763.342-.763.763s.342.763.763.763z"/><path d="m.763 7.86h5.428c.421 0 .763-.342.763-.764 0-.421-.342-.763-.763-.763h-5.428c-.421-.001-.763.342-.763.762 0 .423.342.765.763.765z"/><path d="m15.237 9.952h-14.474c-.421 0-.763.341-.763.763s.342.763.763.763h14.474c.421 0 .763-.342.763-.763s-.342-.763-.763-.763z"/><path d="m15.237 13.569h-14.474c-.421 0-.763.343-.763.763 0 .422.342.763.763.763h14.474c.421 0 .763-.341.763-.763 0-.42-.342-.763-.763-.763z"/></g></svg>