<svg width="16" height="16" enable-background="new 0 0 16 16" viewBox="0 0 16 16" xmlns="http://www.w3.org/2000/svg"><path d="m8 0c-4.411 0-8 3.589-8 8s3.589 8 8 8c1.652 0 3.388-.498 4.645-1.333.339-.226.431-.684.206-1.023-.226-.339-.682-.432-1.023-.206-1.009.67-2.476 1.087-3.828 1.087-3.598 0-6.525-2.927-6.525-6.525s2.928-6.525 6.526-6.525 6.525 2.927 6.525 6.525c0 1.044-.239 2.289-1.381 2.289-1.141 0-1.38-1.245-1.38-2.289v-3.026c0-.408-.33-.738-.738-.738s-.738.331-.738.738v.06c-.636-.493-1.424-.798-2.289-.798-2.075 0-3.764 1.688-3.764 3.764s1.689 3.764 3.764 3.764c1.142 0 2.155-.523 2.846-1.329.485.849 1.266 1.329 2.298 1.329 1.788 0 2.856-1.407 2.856-3.764 0-4.411-3.589-8-8-8zm0 10.289c-1.262 0-2.289-1.027-2.289-2.289s1.027-2.289 2.289-2.289 2.289 1.027 2.289 2.289-1.027 2.289-2.289 2.289z" fill="#fff"/></svg>