<svg width="16" height="16" enable-background="new 0 0 16 16" viewBox="0 0 16 16" xmlns="http://www.w3.org/2000/svg"><path d="m14.581 11.191c0-1.728-.916-3.246-2.289-4.094.547-.74.871-1.654.871-2.643.001-2.456-1.998-4.454-4.454-4.454h-.054-5.973-.512c-.415 0-.751.336-.751.751v.512 13.474.512c0 .415.336.751.751.751h.512 7.091.026c.319 0 .63-.034.931-.097 2.194-.445 3.851-2.388 3.851-4.712zm-10.636-8.665h4.764c1.063 0 1.928.865 1.928 1.928s-.865 1.928-1.928 1.928h-4.764zm0 6.383h5.828c1.258 0 2.282 1.024 2.282 2.283s-1.024 2.282-2.282 2.282h-5.828z" fill="#fff"/></svg>