<svg width="16" height="16" enable-background="new 0 0 16 16" viewBox="0 0 16 16" xmlns="http://www.w3.org/2000/svg"><g fill="#fff"><path d="m13.527 14.51h-11.054c-.411 0-.745.334-.745.745s.333.745.745.745h11.056c.411 0 .745-.334.744-.745s-.334-.745-.746-.745z"/><path d="m8.001 13.236c3.078 0 5.581-2.504 5.581-5.581v-6.91c0-.411-.334-.745-.745-.745s-.745.334-.745.745v6.91c0 2.256-1.835 4.091-4.091 4.091s-4.092-1.835-4.092-4.091v-6.91c0-.411-.335-.745-.745-.745-.411 0-.744.334-.744.745v6.91c0 3.078 2.503 5.581 5.581 5.581z"/></g></svg>