<svg width="16" height="16" enable-background="new 0 0 16 16" viewBox="0 0 16 16" xmlns="http://www.w3.org/2000/svg"><g fill="#fff"><path d="m1.668 7.86h3.618c.92 0 1.668-.749 1.668-1.669v-3.618c0-.92-.748-1.668-1.668-1.668h-3.618c-.92 0-1.668.747-1.668 1.668v3.619c0 .919.748 1.668 1.668 1.668zm-.142-5.287c0-.078.064-.141.142-.141h3.618c.078 0 .141.063.141.141v3.618c0 .078-.063.142-.141.142h-3.618c-.078 0-.142-.064-.142-.142z"/><path d="m9.809 4.241h5.428c.421 0 .763-.342.763-.763s-.342-.763-.763-.763h-5.428c-.421 0-.763.342-.763.763s.342.763.763.763z"/><path d="m15.237 6.334h-5.428c-.421 0-.763.342-.763.763s.342.763.763.763h5.428c.421 0 .763-.342.763-.765 0-.42-.342-.763-.763-.761z"/><path d="m15.237 9.952h-14.474c-.421 0-.763.341-.763.763s.342.763.763.763h14.474c.421 0 .763-.342.763-.763s-.342-.763-.763-.763z"/><path d="m15.237 13.569h-14.474c-.421 0-.763.343-.763.763 0 .422.342.763.763.763h14.474c.421 0 .763-.341.763-.763 0-.42-.342-.763-.763-.763z"/></g></svg>