<svg width="16" height="16" enable-background="new 0 0 16 16" viewBox="0 0 16 16" xmlns="http://www.w3.org/2000/svg"><g fill="#fff"><path d="m5.882 2.118h-4.539c-.74 0-1.343.603-1.343 1.343v4.842c0 .74.603 1.342 1.343 1.342h4.406v.473c0 1.261-1.027 2.288-2.288 2.288-.408 0-.738.331-.738.738 0 .408.331.738.738.738 2.075 0 3.763-1.689 3.764-3.764v-6.657c0-.74-.603-1.343-1.343-1.343zm-.133 6.052h-4.274v-4.576h4.274z"/><path d="m14.657 2.118h-4.539c-.741 0-1.344.603-1.344 1.343v4.841c0 .741.604 1.343 1.344 1.343h4.406v.473c0 1.261-1.027 2.288-2.289 2.288-.408 0-.738.331-.738.738 0 .408.331.738.738.738 2.076 0 3.764-1.689 3.765-3.764v-6.657c0-.74-.603-1.343-1.343-1.343zm-.133 6.052h-4.275v-4.576h4.275z"/></g></svg>