<svg width="16" height="16" enable-background="new 0 0 16 16" viewBox="0 0 16 16" xmlns="http://www.w3.org/2000/svg"><g fill="#f08500"><path d="m10.126 6.789c.503 0 .911-.408.911-.91 0-.503-.408-.911-.911-.911s-.91.408-.91.911c-.001.503.407.91.91.91z"/><path d="m15.999 11.757v-9.21c0-.74-.6-1.341-1.341-1.341h-13.317c-.741 0-1.341.601-1.341 1.341v10.906c0 .74.6 1.341 1.341 1.341h13.327l-.01-.01c.74 0 1.341-.6 1.341-1.341v-1.609c.001-.026.001-.05 0-.077zm-1.461-9.08v7.34l-1.751-1.757c-.52-.52-1.381-.52-1.901 0l-1.421 1.421-3.232-3.232c-.52-.52-1.381-.52-1.901 0l-2.851 2.852c0-3.112 0-6.624 0-6.624zm-13.057 8.705 3.802-3.802 3.662 3.662 2.071 2.071h-9.535s0-1.357 0-1.931zm11.616 1.931-2.591-2.591 1.331-1.331 2.702 2.702v1.221h-1.442z"/></g></svg>