<svg width="16" height="16" enable-background="new 0 0 16 16" viewBox="0 0 16 16" xmlns="http://www.w3.org/2000/svg"><g fill="#fff"><path d="m.742 3.794h14.516c.41 0 .741-.333.741-.743s-.332-.742-.742-.742h-14.515c-.41 0-.742.332-.742.742s.332.743.742.743z"/><path d="m15.258 5.609h-10.557c-.41 0-.742.332-.742.742s.332.742.742.742h10.557c.41 0 .742-.333.742-.742 0-.41-.332-.742-.742-.742z"/><path d="m15.257 8.907h-14.515c-.41 0-.742.332-.742.742s.332.743.742.743h14.516c.41 0 .742-.333.742-.743 0-.409-.332-.742-.743-.742z"/><path d="m15.258 12.207h-10.557c-.41 0-.742.332-.742.742s.332.742.742.742h10.557c.41 0 .742-.332.742-.742s-.332-.742-.742-.742z"/></g></svg>