<svg viewBox="0 0 738.69 228.14" xmlns="http://www.w3.org/2000/svg"><path d="m0 0h738.69v228.14h-738.69z"/><g fill="#fff"><path d="m44.13 33.69h43.14v117.85h75.38v37.8h-118.52z"/><path d="m175.8 111.96v-.44c0-44.7 36.02-80.94 84.05-80.94s83.61 35.8 83.61 80.5v.44c0 44.7-36.02 80.94-84.05 80.94s-83.61-35.8-83.61-80.5zm123.64 0v-.44c0-22.46-16.23-42.03-40.03-42.03s-39.36 19.12-39.36 41.58v.44c0 22.46 16.23 42.03 39.8 42.03s39.58-19.12 39.58-41.58z"/><path d="m360.8 111.96v-.44c0-45.36 35.58-80.94 83.83-80.94 27.35 0 46.7 8.45 63.15 22.68l-25.35 30.46c-11.12-9.34-22.24-14.68-37.58-14.68-22.46 0-39.8 18.9-39.8 42.69v.44c0 25.13 17.57 43.14 42.25 43.14 10.45 0 18.46-2.22 24.91-6.45v-18.9h-30.69v-31.58h71.6v70.05c-16.46 13.56-39.36 24.02-67.6 24.02-48.48 0-84.72-33.36-84.72-80.5z"/><path d="m531.8 111.96v-.44c0-44.7 36.02-80.94 84.05-80.94s83.61 35.8 83.61 80.5v.44c0 44.7-36.02 80.94-84.05 80.94s-83.61-35.8-83.61-80.5zm123.64 0v-.44c0-22.46-16.23-42.03-40.03-42.03s-39.36 19.12-39.36 41.58v.44c0 22.46 16.23 42.03 39.8 42.03s39.58-19.12 39.58-41.58z"/></g></svg>