<svg height="288.88" viewBox="0 0 405.26 288.88" width="405.26" xmlns="http://www.w3.org/2000/svg"><g fill="#fff"><path d="m38.3 193.19h-38.3v93.82h18.36v-30.13h19.94c11.76 0 20.59-2.89 26.47-8.68s8.82-13.51 8.82-23.17-2.94-17.38-8.82-23.17-14.7-8.68-26.47-8.68zm.29 46.77h-20.23v-29.7h20.23c10.9 0 16.35 4.93 16.35 14.78s-5.45 14.92-16.35 14.92z"/><path d="m374.78 266.79c-5.12 3.44-11.07 5.17-17.86 5.17-9.28 0-16.81-2.99-22.59-8.97-5.79-5.98-8.68-13.6-8.68-22.88s2.89-16.88 8.68-22.81 13.32-8.89 22.59-8.89c6.89 0 12.86 1.7 17.93 5.09 5.07 3.4 8.75 7.96 11.05 13.7h19.37c-2.68-10.81-8.37-19.49-17.07-26.04s-19.13-9.83-31.27-9.83c-.51 0-1 .02-1.5.03 1.5-2.04 1.09-4.48-.89-7.47-2.19-3.31-4.2-4.12-10.88-4.39 0 0-4.14-.05-5.71-.23s-6.44-3.25-6.44-3.25c-10.62-5.36-22.48-12.77-22.4-14 .01-.17 1.63-1.49 3.61-2.93 4.02-2.94 7.8-4.77 12.13-5.91 5.83-1.53 34.02-1.95 35.43-.53.28.28-2.08 7.1-2.9 8.38-.4.62-1.01 1.63-1.37 2.25-.54.94-.45.9.54-.23 1.67-1.9 3.61-5.44 4.52-8.22.32-.99.52-1.77.86-2.12.08-.08.39-.19.55-.19.22 0 .43 0 .51.18.09.2.1.86-.05 1.97-.38 2.87-1.74 6.78-3.45 9.92-1.3 2.37-1.31 2.44-.21 1.15 1.87-2.17 4.22-7.41 4.83-10.75.24-1.29.52-2.23.83-2.8.16-.29.22-.45.61-.62.32-.14.56-.13.76.33.37.87.47 5.56-.04 8.22-.56 2.92-.2 2.78.69-.26.45-1.55.74-4.03.71-6.08-.04-3.43-.03-3.48 1.47-4.63 2.66-2.03 7.01-8.75 7.01-10.82 0-.58-.63-1.83-1.4-2.8-3.37-4.23-3.73-5.27-4.06-11.79-.28-5.54-.42-6.25-1.75-8.94-.79-1.61-2.64-4.2-4.11-5.78l-2.67-2.85.95-2.4c.52-1.32 1.94-4.3 3.16-6.61s2.21-4.59 2.21-5.06c0-1.22-1.53-1.11-3.9.28-2.09 1.22-2.23 1.13-1.46-1.08.76-2.17.22-3.66-1.32-3.66-2.62 0-11.33 3.44-17.22 6.79-3.74 2.12-4.03 2.21-9 2.65-6.28.55-10.32 1.64-15.84 4.25-6.92 3.28-13.02 4.42-18.57 3.45-1.73-.3-5.13-1.48-7.85-2.72-7.46-3.41-9.99-4.13-15.34-4.4-2.61-.13-6.76 0-9.23.29-6.97.81-8.96 0-16.98-6.98-6.43-5.59-10.44-8.55-16.26-11.99-24.13-14.29-51.85-17.91-76.36-9.99-4.17 1.35-8.36 3.3-18.03 8.39-3.77 1.99-9.45 2.77-17.76 2.47-12.98-.47-25.59-4.43-36.42-11.41-12.92-8.34-23.74-21.92-27.55-34.6-1.67-5.56-1.76-12.96-.26-20.7 1.22-6.25.99-8.13-1.32-10.76-4.29-4.88-11.5-1.98-15.6 6.28-1.77 3.57-2.48 7.39-2.69 14.63-.17 5.92-.05 7.69.77 11.69 2.84 13.82 10.53 27.25 22.49 39.22 6.31 6.32 12.52 10.79 21.04 15.16 10.27 5.27 19.18 8.35 32.17 11.12 1.9.41 3.91 1.14 4.48 1.63q1.03.9.51 6.85c-1.08 12.3.5 17.75 8.41 29.08 1.61 2.3 1.72 3.21.51 4.3-.48.43-5.75 2.53-10.66 4.24-11.05 3.87-11.14 3.95-10.84 9.14.17 2.99.59 4.58 2.37 9.03 2.43 6.05 6.06 13.31 8.62 17.21 3.94 6.03 9.67 10.47 15.56 12.14v59.49c0 6.12-1.46 10.69-4.38 13.7s-6.77 4.52-11.55 4.52-8.63-1.51-11.55-4.52-4.38-7.58-4.38-13.7v-60.4h-18.36v60.4c0 11.57 3.01 20.35 9.04 26.32 6.02 5.98 13.92 8.97 23.67 8.97 12.34 0 21.18-4.73 26.54-14.2h.29c5.45 9.47 14.3 14.2 26.54 14.2 9.75 0 17.65-2.99 23.67-8.97s9.04-14.75 9.04-26.32v-60.4h-.05c.66-.59 1.08-1.52 1.44-3 .42-2.74-1.13-6.76-4.96-8.55-1.91-.89-3.28-1.21-7.17-1.42-5.2 0-6.55-1.52-10.68-4.32-5.82-3.95-5.36-5.98 1.78-7.9 3.51-.95 9.95-3.85 11.98-5.4 1.49-1.14 2.81-1.41 3.57-.74s7.95 3.54 12.36 4.93c6.19 1.95 10.97 2.82 18.89 3.42 5.42.41 7.28.72 8.25 1.36.69.46 1.53 3.29 3.92 6.28 7.4 9.31 8.45 9.24 10.46 10.93.89.75 2.55 1.8 4.01 2.56-.62-.02-1.24-.03-1.87-.03-12.72 0-22.55 3.49-29.48 10.47-6.94 6.98-10.4 16.55-10.4 28.69v56.52h18.36v-56.52c0-7.08 1.82-12.53 5.45-16.35s8.99-5.74 16.07-5.74 12.43 1.92 16.07 5.74c3.63 3.83 5.45 9.28 5.45 16.35v56.52h18.36v-56.52c0-12.14-3.47-21.71-10.4-28.69-2.94-2.95-6.39-5.28-10.37-6.98.49-.17.95-.43 1.46-.82 1.77-1.38 3.02-4.79 1.21-7.12-2.06-2.65-3.93-3.71-7.42-4.58-4.74-1.17-5.02-3-6.53-6.03-.76-1.53-1.39-3.25-1.39-3.84 0-.93 1.83-1.03 2.91-.77 1.28.3 3.03.98 14.18 5.54 9.57 3.91 16.13 5.91 33.64 10.24 8.54 2.11 17.35 4.46 19.58 5.23 2.68.92 3.88 1.18 6.91 1.36-6.84 2.26-12.88 5.96-18.11 11.08-9.37 9.18-14.06 20.85-14.06 35s4.68 25.82 14.06 35c9.37 9.18 21.33 13.77 35.86 13.77 12.14 0 22.57-3.28 31.27-9.83s14.39-15.23 17.07-26.04h-19.37c-2.29 5.74-6 10.33-11.12 13.77zm-11.48-143.11c.9 0 1.21.33 1.63 1.76.29.97.39 2.48.23 3.36-.48 2.57-1.06 2.32-2.04-.88-1.18-3.84-1.17-4.24.18-4.24zm-178.09 69.78v60.14c0 6.12-1.46 10.69-4.38 13.7s-6.77 4.52-11.55 4.52-8.63-1.51-11.55-4.52-4.38-7.58-4.38-13.7v-60.38c.61-.71.99-1.78 1.14-3.59.17-2.06-.73-4.44-2.37-5.61-1.07-.76-3.05-1.42-6.22-1.94-6.4-1.05-6.64-1.64-8.03-2.73-1.56-1.22-3.83-5.7-4.17-8.25-.42-3.03 1.08-3.58 10.99-3.93l8.26-.29-1.17 1.4c-1.39 1.66-1.56 4.19-.38 5.69 1.64 2.09 11.02 8.65 18.11 12.67 6.39 3.62 10.95 5.75 15.68 6.83z"/></g></svg>