<svg enable-background="new 0 0 16 16" viewBox="0 0 16 16" xmlns="http://www.w3.org/2000/svg"><g fill="#fff"><path d="m7.996 11.738c-2.063 0-3.742-1.679-3.742-3.742s1.678-3.742 3.742-3.742c2.063 0 3.742 1.678 3.742 3.742 0 2.063-1.679 3.742-3.742 3.742zm0-6.01c-1.25 0-2.267 1.017-2.267 2.267s1.017 2.267 2.267 2.267 2.267-1.018 2.267-2.267c0-1.25-1.017-2.267-2.267-2.267z"/><path d="m9.941 15.999c-.165 0-.328-.056-.46-.161l-1.364-1.09c-.077.002-.155.002-.231 0l-1.363 1.09c-.182.146-.423.197-.648.137-.703-.186-1.377-.464-2.005-.826-.203-.117-.338-.323-.364-.556l-.195-1.735c-.056-.054-.111-.109-.165-.165l-1.737-.203c-.23-.027-.435-.161-.551-.362-.364-.627-.644-1.302-.831-2.004-.06-.227-.01-.467.136-.65l1.09-1.364c-.001-.077-.001-.155 0-.232l-1.09-1.363c-.146-.183-.196-.423-.137-.649.186-.702.466-1.377.83-2.005.117-.203.324-.337.556-.363l1.734-.195c.054-.055.108-.11.164-.164l.195-1.734c.026-.231.161-.438.364-.555.627-.363 1.301-.64 2.002-.825.224-.06.466-.009.648.137l1.363 1.09c.076-.002.154-.002.232 0l1.364-1.089c.182-.146.423-.198.649-.136.702.186 1.377.465 2.005.829.203.117.337.323.363.555l.195 1.735c.056.053.11.108.164.164l1.734.195c.231.026.438.16.555.362.365.629.645 1.303.831 2.005.06.226.01.467-.136.65l-1.09 1.364c.002.077.002.155 0 .232l1.089 1.363c.146.182.197.422.137.648-.185.701-.463 1.376-.825 2.005-.117.204-.323.339-.558.365l-1.734.194c-.054.056-.108.11-.164.164l-.195 1.734c-.026.232-.16.438-.362.555-.63.366-1.304.645-2.006.831-.062.014-.126.022-.189.022zm-5.014-1.953c.314.158.64.293.975.401l1.278-1.021c.142-.114.315-.176.504-.16.211.013.424.013.635 0 .187-.013.362.046.504.16l1.277 1.02c.335-.108.66-.244.974-.404l.183-1.624c.02-.18.107-.347.243-.468.158-.141.309-.292.45-.45.121-.136.288-.223.469-.243l1.622-.182c.159-.314.293-.64.401-.975l-1.02-1.278c-.114-.142-.171-.322-.16-.504.013-.212.013-.424 0-.635-.011-.182.046-.362.16-.504l1.02-1.278c-.108-.335-.244-.66-.404-.974l-1.624-.182c-.181-.02-.348-.107-.469-.243-.141-.159-.291-.309-.449-.45-.136-.121-.223-.287-.243-.468l-.182-1.625c-.315-.16-.64-.295-.975-.404l-1.278 1.02c-.143.114-.317.173-.504.16-.211-.012-.424-.012-.636 0-.182.014-.362-.046-.504-.16l-1.277-1.022c-.334.108-.658.242-.971.4l-.183 1.622c-.02.181-.107.347-.243.468-.159.141-.309.291-.45.45-.12.137-.287.224-.468.244l-1.624.183c-.16.314-.295.64-.403.975l1.02 1.278c.114.143.171.322.16.504-.012.212-.012.424 0 .635.011.182-.046.362-.16.504l-1.02 1.278c.109.336.244.662.405.975l1.629.191c.18.021.346.108.466.244.14.158.29.308.449.449.136.121.223.288.243.468z"/></g></svg>