<svg enable-background="new 0 0 16 16" viewBox="0 0 16 16" xmlns="http://www.w3.org/2000/svg"><path d="m15.225 14.149-1.245-4.269c.344-.27.57-.685.57-1.156v-.725c0-1.212-.987-2.198-2.199-2.198l-2.153.023v-3.626c0-1.212-.986-2.198-2.198-2.198s-2.198.986-2.198 2.198l.023 3.604h-2.176c-1.212 0-2.198.986-2.198 2.198v.725c0 .47.225.884.568 1.154l-1.254 4.305c-.189.79.299 1.586 1.097 1.778.112.025.224.038.336.038h11.604c.812 0 1.473-.66 1.474-1.472 0-.117-.015-.235-.051-.379zm-11.576-6.852h2.176c.812 0 1.473-.661 1.473-1.473v-3.626c0-.388.315-.703.703-.703.387 0 .702.315.702.703v3.626c0 .812.661 1.473 1.473 1.473h2.175c.387 0 .703.315.703.703v.702h-10.108v-.702c0-.387.315-.702.703-.703zm7.838 7.22-.587-2.348c-.101-.401-.51-.646-.907-.544-.401.101-.644.507-.544.907l.498 1.993-3.901.021.503-2.013c.1-.401-.143-.807-.544-.907-.402-.102-.807.144-.907.544l-.596 2.385-2.292.012 1.274-4.369h9.034l1.283 4.306z" fill="#fff"/></svg>