<svg enable-background="new 0 0 16 16" viewBox="0 0 16 16" xmlns="http://www.w3.org/2000/svg"><path d="m14.657.605h-13.315c-.334 0-.654.124-.901.349-.266.241-.421.572-.439.93s.105.701.346.967c.003.003.006.006.008.008l5.089 5.433v5.766c.001.264.079.519.226.74.259.388.685.597 1.12.597.256 0 .514-.073.743-.225l2.423-1.615c.373-.25.596-.667.596-1.116v-4.146l5.097-5.44c.225-.248.35-.569.35-.905 0-.741-.603-1.343-1.343-1.343zm-5.38 6.891c-.129.136-.2.317-.2.504v4.367l-2.157 1.438v-5.805c0-.187-.071-.367-.2-.503l-5.072-5.416v-.001h12.704z" fill="#fff"/></svg>