<svg enable-background="new 0 0 16 16" viewBox="0 0 16 16" xmlns="http://www.w3.org/2000/svg"><g fill="#fff"><path d="m10.415 4.83h-4.83c-.417 0-.755.338-.755.755v4.83c0 .417.338.755.755.755h4.83c.417 0 .755-.338.755-.755v-4.83c0-.417-.338-.755-.755-.755zm-.754 4.831h-3.321v-3.321h3.321z"/><path d="m15.245 8.854h-.855v-1.709h.855c.417 0 .755-.338.755-.755s-.338-.755-.755-.755h-.855v-2.465c0-.86-.7-1.56-1.56-1.56h-2.465v-.855c0-.417-.338-.755-.755-.755s-.755.338-.755.755v.855h-1.71v-.855c0-.417-.338-.755-.755-.755s-.755.338-.755.755v.855h-2.465c-.86 0-1.56.7-1.56 1.56v2.465h-.855c-.417 0-.755.338-.755.755s.338.755.755.755h.855v1.71h-.855c-.417 0-.755.339-.755.755s.338.754.755.754h.855v2.465c0 .86.7 1.56 1.56 1.56h2.465v.856c0 .417.338.755.755.755s.755-.338.755-.755v-.856h1.71v.856c0 .417.338.755.755.755.416 0 .754-.338.755-.755v-.856h2.465c.86 0 1.559-.699 1.56-1.559v-2.466h.855c.417 0 .755-.337.755-.754s-.338-.755-.755-.756zm-12.125 3.976v-9.66l.05-.05 9.71.05-.05 9.71z"/></g></svg>