<svg enable-background="new 0 0 16 16" viewBox="0 0 16 16" xmlns="http://www.w3.org/2000/svg"><g fill="#fff"><path d="m10.265 10.553c.231-.128.394-.365.394-.648 0-.125-.038-.238-.092-.341.167-1.165.189-2.334.06-3.485h2.91c.157.602.226 1.237.188 1.89-.024.414.292.769.707.793.402.019.769-.293.793-.707.238-4.148-2.908-7.719-7.035-8.029-.034-.01-.068-.008-.103-.012-.01-.001-.02-.003-.03-.003-.031-.002-.06 0-.091-.001-.03.001-.058-.006-.088-.001-.238-.009-.476-.009-.712.004-.038.004-.075.001-.112.01-1.668.118-3.235.776-4.503 1.905-1.519 1.354-2.421 3.218-2.538 5.248-.117 2.032.564 3.987 1.917 5.507 1.354 1.52 3.218 2.421 5.249 2.538h.013c.016.001.03.012.046.012.02 0 .041-.007.061-.008.104.004.209.009.313.009.153 0 .306-.005.459-.013.414-.024.73-.379.706-.794-.025-.414-.376-.742-.794-.706-.105.007-.211 0-.316 0-.559-.97-.974-2.002-1.245-3.067h2.915c.079.051.167.089.265.108.048.009.095.013.141.013.202.001.384-.086.522-.222zm2.655-5.977h-2.553c-.219-.963-.54-1.903-.966-2.805 1.506.459 2.755 1.477 3.519 2.805zm-5.303-2.98c.536.945.941 1.944 1.208 2.979h-2.403c.263-1.032.661-2.034 1.195-2.979zm-4.067 1.454c.673-.6 1.453-1.029 2.289-1.283-.424.904-.746 1.846-.962 2.809h-2.562c.324-.564.735-1.081 1.235-1.526zm-2.037 4.214c.023-.405.086-.802.185-1.186h2.93c-.114 1.022-.114 2.053 0 3.075h-2.928c-.157-.609-.224-1.243-.187-1.889zm4.325 6.198c-1.065-.322-2.027-.926-2.786-1.777-.285-.321-.531-.666-.74-1.03h2.565c.216.962.537 1.903.961 2.807zm.298-7.384h2.974c.128 1.015.129 2.046-.002 3.075h-2.972c-.128-1.021-.127-2.054 0-3.075z"/><path d="m15.249 12.206h-1.538v-1.538c0-.415-.336-.751-.751-.751s-.751.336-.751.751v1.538h-1.538c-.415 0-.751.336-.751.751s.336.751.751.751h1.538v1.538c0 .415.336.751.751.751s.751-.336.751-.751v-1.538h1.538c.415 0 .751-.336.751-.751s-.336-.751-.751-.751z"/></g></svg>