<svg enable-background="new 0 0 16 16" viewBox="0 0 16 16" xmlns="http://www.w3.org/2000/svg"><g fill="#fff"><path d="m2.365 2.718h2.415c.416 0 .755-.338.755-.755s-.338-.755-.755-.755h-2.415c-.417 0-.755.338-.755.755s.338.755.755.755z"/><path d="m8 2.718h7.245c.417 0 .755-.339.755-.755s-.338-.754-.755-.754h-7.245c-.417 0-.755.337-.755.754s.338.755.755.755z"/><path d="m.755 6.743h8.854c.416 0 .754-.338.755-.755 0-.417-.338-.755-.755-.755h-8.854c-.417 0-.755.338-.755.755s.338.755.755.755z"/><path d="m12.829 5.233c-.417 0-.755.338-.755.755s.338.755.755.755h.805c.416 0 .754-.338.755-.755 0-.417-.338-.755-.755-.755z"/><path d="m15.245 9.258h-5.636c-.417 0-.755.337-.755.754s.338.755.755.755h5.635c.417 0 .756-.337.756-.754s-.338-.755-.755-.755z"/><path d="m2.365 9.257c-.417 0-.755.338-.755.755s.338.755.755.755h4.025c.417 0 .755-.338.755-.755s-.338-.755-.755-.755z"/><path d="m8 13.283h-7.245c-.417 0-.755.339-.755.755s.338.754.755.754h7.245c.417 0 .755-.337.755-.754-.001-.417-.339-.755-.755-.755z"/><path d="m13.633 13.282h-2.414c-.417 0-.755.338-.755.755s.338.755.755.755h2.415c.416 0 .754-.338.754-.755s-.338-.755-.755-.755z"/></g></svg>