<svg enable-background="new 0 0 16 16" viewBox="0 0 16 16" xmlns="http://www.w3.org/2000/svg"><path d="m3.761 15.669c-.41 0-.8-.22-1-.6-.12-.23-.16-.48-.11-.73l.64-3.721c.04-.26-.04-.52-.23-.7l-2.721-2.642c-.21-.21-.34-.49-.34-.8 0-.3.11-.59.32-.81.17-.18.41-.3.66-.33l3.741-.55c.26-.04.48-.2.59-.43l1.671-3.391c.14-.27.37-.47.65-.57.29-.1.59-.08.87.06.22.11.4.29.51.51l1.681 3.391c.11.23.34.39.59.43l3.741.55c.3.04.56.2.75.45.18.24.26.54.21.84-.03.24-.15.47-.33.64l-2.711 2.641c-.19.18-.27.44-.23.7l.64 3.731c.05.29-.02.59-.19.84s-.43.41-.73.47c-.25.05-.51 0-.73-.11l-3.351-1.761c-.23-.12-.51-.12-.73 0l-3.351 1.761c-.17.09-.35.13-.53.13zm4.242-3.471c.37 0 .73.09 1.06.26l2.701 1.42-.52-3.001c-.13-.74.12-1.501.66-2.021l2.181-2.121-3.021-.44c-.74-.11-1.39-.58-1.721-1.25l-1.35-2.731-1.35 2.731c-.33.67-.98 1.14-1.721 1.25l-3.021.44 2.181 2.131c.54.53.79 1.28.66 2.021l-.51 3.001 2.701-1.42c.33-.17.7-.26 1.06-.26z" fill="#f08500"/></svg>