<svg enable-background="new 0 0 16 16" viewBox="0 0 16 16" xmlns="http://www.w3.org/2000/svg"><g fill="#f13b6e"><path d="m12.76 6.8c-.29.28-.3.75-.02 1.05.15.15.35.23.54.23v.01c.18 0 .37-.07.51-.21l1.03-.99c.75-.78 1.16-1.8 1.14-2.88s-.45-2.09-1.23-2.84c-1.58-1.52-4.04-1.52-5.64.02l-.97 1.01c-.29.3-.28.77.02 1.05.3.29.77.28 1.05-.02l.95-.99c.99-.96 2.56-.96 3.55 0 .49.47.77 1.11.78 1.79s-.25 1.33-.7 1.8z"/><path d="m6.8 12.76-.95.99c-.99.96-2.55.96-3.55 0-.49-.47-.77-1.11-.78-1.79s.25-1.33.7-1.8l1.01-.97c.29-.28.3-.75.02-1.05-.28-.29-.75-.3-1.05-.02l-1.03.99c-.75.78-1.15 1.8-1.13 2.88s.46 2.09 1.23 2.83c.779.759 1.787 1.138 2.795 1.14 1.018-.001 2.036-.391 2.835-1.16l.97-1.01c.29-.3.28-.77-.02-1.05-.3-.29-.77-.28-1.05.02z"/><path d="m4.07 15.96h-.005-.005z"/><path d="m15.26 9.9h-1.98c-.41 0-.74.33-.74.74s.33.74.74.74h1.98c.41 0 .74-.33.74-.74s-.33-.74-.74-.74z"/><path d="m.74 6.1h1.98c.41 0 .74-.33.74-.74s-.33-.74-.74-.74h-1.98c-.41 0-.74.33-.74.74s.33.74.74.74z"/><path d="m10.64 12.54c-.41 0-.74.33-.74.74v1.98c0 .41.33.74.74.74s.74-.33.74-.74v-1.98c0-.41-.33-.74-.74-.74z"/><path d="m5.36 3.46c.41 0 .74-.33.74-.74v-1.98c0-.41-.33-.74-.74-.74s-.74.33-.74.74v1.98c0 .41.33.74.74.74z"/></g></svg>