<svg enable-background="new 0 0 16 16" viewBox="0 0 16 16" xmlns="http://www.w3.org/2000/svg"><g fill="#fff"><path d="m14.549 5.099c0-.658-.266-1.302-.732-1.766l-2.602-2.601c-.47-.472-1.096-.732-1.762-.732-.001 0-.002 0-.003 0h-5.802c-1.213 0-2.198.986-2.197 2.198v11.604c0 1.213.986 2.198 2.197 2.198h8.702c1.212 0 2.199-.985 2.199-2.199v-8.702c0 .001 0 .001 0 0zm-1.823-.741-2.529.016v-2.544zm-.375 10.147h-8.703c-.388 0-.703-.314-.703-.702v-11.604c0-.388.315-.703.703-.703h5.054v2.878c0 .812.661 1.473 1.473 1.473h2.878v7.956c.001.387-.314.702-.702.702z"/><path d="m5.099 6.573h1.45c.412 0 .747-.335.748-.748 0-.413-.335-.748-.748-.748h-1.45c-.413 0-.748.335-.748.748.001.413.336.748.748.748z"/><path d="m10.901 7.978h-5.802c-.413 0-.748.335-.748.748s.335.747.748.747h5.802c.413 0 .748-.334.748-.747-.001-.413-.335-.748-.748-.748z"/><path d="m10.901 10.879h-5.802c-.413 0-.748.335-.748.748s.335.748.748.748h5.802c.413 0 .748-.335.748-.748-.001-.413-.335-.748-.748-.748z"/></g></svg>