<svg enable-background="new 0 0 16 16" viewBox="0 0 16 16" xmlns="http://www.w3.org/2000/svg"><g fill="#fff"><path d="m14.657 1.21h-13.314c-.74 0-1.343.602-1.343 1.343v10.893c0 .741.603 1.344 1.343 1.344h13.314c.741 0 1.343-.603 1.343-1.344v-10.893c0-.741-.602-1.343-1.343-1.343zm-.132 12.105h-13.05v-10.63h13.05z"/><path d="m3.461 5.579c.501 0 .908-.406.908-.908s-.407-.908-.908-.908-.908.407-.908.908.407.908.908.908z"/><path d="m6.487 5.579c.501 0 .908-.406.908-.908s-.407-.908-.908-.908-.908.407-.908.908.407.908.908.908z"/></g></svg>