<svg enable-background="new 0 0 16 16" viewBox="0 0 16 16" xmlns="http://www.w3.org/2000/svg"><g fill="#fff"><path d="m1.948 4.841c-.408 0-.738.331-.738.738v4.842c0 .408.331.738.738.738s.737-.331.738-.738v-4.842c0-.408-.33-.738-.738-.738z"/><path d="m4.974 0c-.408 0-.738.33-.738.738v14.524c0 .408.331.738.738.738s.737-.33.738-.737v-14.525c0-.408-.33-.738-.738-.738z"/><path d="m8 2.421c-.408 0-.738.331-.738.738v9.682c0 .408.331.738.738.738s.737-.331.738-.737v-9.683c0-.408-.33-.738-.738-.738z"/><path d="m11.026 4.841c-.408 0-.738.331-.738.738v4.842c0 .408.331.738.738.738s.738-.331.738-.738v-4.842c0-.408-.33-.738-.738-.738z"/><path d="m14.052 3.631c-.408 0-.738.331-.738.738v7.262c0 .408.331.738.738.738s.738-.331.738-.738v-7.262c0-.408-.33-.738-.738-.738z"/></g></svg>