<svg enable-background="new 0 0 16 16" viewBox="0 0 16 16" xmlns="http://www.w3.org/2000/svg"><g fill="#fff"><path d="m14.657 1.21h-13.314c-.74 0-1.343.602-1.343 1.343v10.893c0 .741.603 1.344 1.343 1.344h13.314c.741 0 1.343-.603 1.343-1.344v-10.893c0-.741-.602-1.343-1.343-1.343zm-.132 12.105h-13.05v-10.63h13.05z"/><path d="m4.369 6.317h7.262c.407 0 .738-.33.738-.738s-.331-.738-.738-.738h-7.262c-.408 0-.738.33-.738.738s.331.738.738.738z"/><path d="m4.369 8.737h7.262c.407 0 .738-.33.738-.738s-.331-.738-.738-.738h-7.262c-.408 0-.738.33-.738.738s.331.738.738.738z"/><path d="m4.369 11.158h7.262c.407 0 .738-.33.738-.738s-.331-.738-.738-.738h-7.262c-.408 0-.738.331-.738.738 0 .408.331.738.738.738z"/></g></svg>