<svg enable-background="new 0 0 16 16" viewBox="0 0 16 16" xmlns="http://www.w3.org/2000/svg"><g fill="#fff"><path d="m10.943 5.058c-.288-.288-.755-.288-1.043 0l-1.9 1.9-1.899-1.9c-.288-.288-.755-.288-1.043 0s-.288.755 0 1.043l1.9 1.899-1.9 1.9c-.288.288-.288.755 0 1.043.144.144.332.216.521.216s.378-.072.522-.216l1.899-1.899 1.9 1.899c.144.144.332.216.521.216s.378-.072.522-.216c.288-.288.288-.755 0-1.043l-1.899-1.9 1.899-1.899c.288-.288.288-.755 0-1.043z"/><path d="m8 0c-4.411 0-8 3.589-8 8s3.589 8 8 8 8-3.589 8-8-3.589-8-8-8zm0 14.525c-3.598 0-6.525-2.927-6.525-6.525s2.927-6.525 6.525-6.525 6.525 2.927 6.525 6.525-2.927 6.525-6.525 6.525z"/></g></svg>