<svg enable-background="new 0 0 16 16" viewBox="0 0 16 16" xmlns="http://www.w3.org/2000/svg"><g fill="#fff"><path d="m15.188 6.393c1.001-3.646.94-5.729-.181-6.194-1.327-.554-3.977.066-5.655 1.668-.447-.088-.899-.132-1.348-.132-.001 0-.002 0-.003 0-.448.001-.896.041-1.337.117-1.665-1.58-4.398-2.207-5.727-1.653-1.121.468-1.16 2.558-.115 6.212-.38.82-.746 1.763-.746 2.808 0 3.929 3.334 6.781 7.929 6.781 4.521 0 7.929-2.916 7.928-6.783 0-.886-.244-1.812-.745-2.824zm-7.183 8.098c-3.721 0-6.42-2.218-6.42-5.273 0-.841.357-1.654.722-2.415.081-.168.097-.361.044-.54-.592-2.012-.917-4.141-.729-4.706.825-.227 3.009.252 4.225 1.619.184.205.464.293.733.233.467-.107.947-.162 1.428-.165.466 0 .937.062 1.4.183.275.073.566-.016.755-.228 1.215-1.365 3.36-1.86 4.168-1.64.199.557-.101 2.691-.674 4.712-.053.188-.031.389.06.561.477.895.709 1.675.709 2.387-.001 3.005-2.761 5.272-6.421 5.272z"/><path d="m4.816 7.807c-.416 0-.754.338-.754.754v.399c0 .416.338.754.754.754.417 0 .754-.338.754-.754v-.399c0-.416-.338-.754-.754-.754z"/><path d="m11.194 7.807c-.416 0-.754.338-.754.754v.399c0 .416.338.754.754.754.417 0 .755-.338.754-.754v-.399c0-.416-.338-.754-.754-.754z"/><path d="m8.603 10.706h-1.196c-.305 0-.581.184-.697.466-.117.283-.052.607.164.823l.598.597c.148.146.34.22.533.22s.386-.074.534-.221l.597-.597c.216-.215.281-.54.164-.822-.117-.283-.392-.466-.697-.466z"/></g></svg>