<svg enable-background="new 0 0 16 16" viewBox="0 0 16 16" xmlns="http://www.w3.org/2000/svg"><path d="m15.545 10.635c.289-.826.455-1.711.455-2.635s-.166-1.809-.455-2.635c-.012-.039-.023-.076-.041-.112-1.125-3.06-4.059-5.253-7.504-5.253-3.446 0-6.382 2.195-7.505 5.256-.016.033-.026.067-.038.103-.291.828-.457 1.714-.457 2.641s.167 1.813.458 2.642c.011.035.021.069.038.102 1.123 3.062 4.058 5.256 7.504 5.256 3.445 0 6.379-2.193 7.504-5.253.018-.035.029-.073.041-.112zm-9.331.524h3.572c-.509 1.517-1.29 2.543-1.786 3.081-.496-.539-1.277-1.564-1.786-3.081zm-.353-1.476c-.087-.524-.15-1.075-.15-1.683s.063-1.159.15-1.683h4.278c.087.524.15 1.075.15 1.683s-.063 1.159-.15 1.683zm-4.386-1.683c0-.583.084-1.145.228-1.683h2.655c-.076.528-.122 1.087-.122 1.683s.046 1.155.122 1.683h-2.655c-.144-.538-.228-1.1-.228-1.683zm8.311-3.159h-3.572c.509-1.517 1.29-2.542 1.786-3.08.496.539 1.277 1.564 1.786 3.08zm1.856 1.476h2.655c.144.538.228 1.1.228 1.683s-.084 1.145-.228 1.683h-2.655c.076-.528.122-1.087.122-1.683s-.046-1.155-.122-1.683zm2.063-1.476h-2.38c-.373-1.3-.929-2.333-1.455-3.09 1.644.493 3.016 1.617 3.835 3.09zm-7.576-3.089c-.527.756-1.082 1.789-1.455 3.089h-2.379c.819-1.473 2.191-2.596 3.834-3.089zm-3.834 9.407h2.379c.373 1.3.928 2.333 1.455 3.09-1.643-.494-3.015-1.617-3.834-3.09zm7.576 3.089c.526-.757 1.081-1.789 1.455-3.089h2.38c-.82 1.473-2.192 2.596-3.835 3.089z" fill="#fff"/></svg>