<svg enable-background="new 0 0 16 16" viewBox="0 0 16 16" xmlns="http://www.w3.org/2000/svg"><g fill="#fff"><path d="m6.021 14.516h-4.536v-13.031h4.536c.41 0 .742-.333.742-.743s-.332-.742-.742-.742h-5.279c-.41 0-.742.332-.742.742v14.516c0 .41.332.742.742.742h5.279c.41 0 .742-.332.742-.742s-.332-.742-.742-.742z"/><path d="m15.943 8.285c.076-.182.076-.387 0-.569-.031-.074-.079-.136-.13-.196-.012-.014-.016-.031-.03-.045l-3.299-3.299c-.29-.29-.76-.29-1.05 0s-.29.76 0 1.05l2.032 2.032h-7.445c-.41 0-.742.332-.742.742s.332.743.742.743h7.444l-2.031 2.031c-.29.29-.29.76 0 1.05.145.145.335.217.525.217s.38-.072.525-.217l3.299-3.299c.004-.004.005-.009.009-.013.063-.066.116-.142.151-.227z"/></g></svg>