<svg enable-background="new 0 0 16 16" viewBox="0 0 16 16" xmlns="http://www.w3.org/2000/svg"><g fill="#fff"><path d="m5.825 7.298h-4.352c-.812 0-1.473-.661-1.473-1.473v-4.352c0-.812.661-1.473 1.473-1.473h4.351c.812 0 1.473.661 1.473 1.473v4.351c.001.813-.66 1.474-1.472 1.474zm-4.329-5.802v4.329l4.329-.023-.023-4.329z"/><path d="m14.528 7.298h-4.352c-.812 0-1.473-.661-1.473-1.473v-4.352c-.001-.812.661-1.473 1.473-1.473h4.352c.812 0 1.472.661 1.472 1.473v4.351c0 .813-.66 1.474-1.472 1.474zm-4.33-5.802v4.329l4.33-.023-.023-4.329z"/><path d="m5.825 16h-4.352c-.812 0-1.473-.66-1.473-1.472v-4.352c0-.812.661-1.473 1.473-1.473h4.351c.812 0 1.473.661 1.473 1.473v4.352c.001.812-.66 1.472-1.472 1.472zm-4.329-5.802v4.33l4.329-.023-.023-4.329z"/><path d="m14.528 16h-4.352c-.812 0-1.473-.66-1.473-1.472v-4.352c0-.812.661-1.473 1.473-1.473h4.352c.812-.001 1.472.661 1.472 1.473v4.352c0 .812-.66 1.472-1.472 1.472zm-4.33-5.802v4.33l4.33-.023-.023-4.329z"/></g></svg>