<svg height="484.84" viewBox="0 0 484.84 484.84" width="484.84" xmlns="http://www.w3.org/2000/svg"><g fill="#fff"><path d="m413.04 206.19c.16-.88.06-2.39-.23-3.36-.42-1.43-.73-1.76-1.63-1.76-1.35 0-1.36.4-.18 4.24.98 3.2 1.56 3.45 2.04.88z"/><path d="m86.58 287.5h-20.27v29.76h20.27c10.93 0 16.39-5.08 16.39-14.95s-5.46-14.81-16.39-14.81z"/><path d="m199.31 251.35c-1.18-1.5-1.01-4.03.38-5.69l1.17-1.4-8.26.29c-9.91.35-11.41.9-10.99 3.93.34 2.55 2.61 7.03 4.17 8.25 1.39 1.09 1.63 1.68 8.03 2.73 3.17.52 5.15 1.18 6.22 1.94 1.64 1.17 2.54 3.55 2.37 5.61-.14 1.64-.46 2.67-.98 3.38h.17v60.52c0 6.14 1.46 10.71 4.38 13.73s6.78 4.53 11.57 4.53 8.65-1.51 11.57-4.53 4.38-7.6 4.38-13.73v-59.97c-4.88-1.05-9.51-3.2-16.08-6.92-7.09-4.02-16.47-10.58-18.11-12.67z"/><path d="m242.42 0c-133.88 0-242.42 108.54-242.42 242.42s108.54 242.42 242.42 242.42 242.42-108.54 242.42-242.42-108.54-242.42-242.42-242.42zm-129.61 325.52c-5.89 5.8-14.73 8.7-26.52 8.7h-19.98v30.19h-18.4v-94.01h38.38c11.79-.01 20.63 2.89 26.52 8.69s8.84 13.54 8.84 23.22-2.95 17.41-8.84 23.21zm324.02 30.89c-8.72 6.57-19.17 9.85-31.34 9.85-14.57 0-26.55-4.6-35.94-13.8-9.4-9.19-14.09-20.88-14.09-35.07s4.7-25.88 14.09-35.08c5.1-4.99 10.97-8.62 17.59-10.9-3.14-.18-4.34-.44-7.06-1.37-2.23-.77-11.04-3.12-19.58-5.23-17.51-4.33-24.07-6.33-33.64-10.24-11.15-4.56-12.9-5.24-14.18-5.54-1.08-.26-2.91-.16-2.91.77 0 .59.63 2.31 1.39 3.84 1.51 3.03 1.79 4.86 6.53 6.03 3.49.87 5.36 1.93 7.42 4.58 1.81 2.33.56 5.74-1.21 7.12-.32.25-.63.44-.94.6 4 1.71 7.49 4.04 10.45 7.02 6.95 7 10.42 16.58 10.42 28.75v56.64h-18.4v-56.64c0-7.09-1.82-12.56-5.46-16.39s-9.01-5.75-16.1-5.75-12.46 1.92-16.1 5.75c-3.64 3.84-5.46 9.3-5.46 16.39v56.64h-18.4v-56.64c0-12.17 3.47-21.75 10.42-28.75 6.95-6.99 16.79-10.49 29.54-10.49.31 0 .61.02.92.02-1.35-.74-2.79-1.67-3.6-2.35-2.01-1.69-3.06-1.62-10.46-10.93-2.39-2.99-3.23-5.82-3.92-6.28-.97-.64-2.83-.95-8.25-1.36-7.92-.6-12.7-1.47-18.89-3.42-4.41-1.39-11.6-4.26-12.36-4.93s-2.08-.4-3.57.74c-2.03 1.55-8.47 4.45-11.98 5.4-7.14 1.92-7.6 3.95-1.78 7.9 4.13 2.8 5.48 4.32 10.68 4.32 3.89.21 5.26.53 7.17 1.42 3.83 1.79 5.38 5.81 4.96 8.55-.33 1.32-.7 2.2-1.24 2.8h.29v60.52c0 11.6-3.02 20.39-9.06 26.38s-13.95 8.98-23.72 8.98c-12.26 0-21.13-4.74-26.59-14.23h-.29c-5.36 9.49-14.23 14.23-26.59 14.23-9.78 0-17.68-2.99-23.72-8.98s-9.06-14.78-9.06-26.38v-60.52h18.4v60.52c0 6.14 1.46 10.71 4.38 13.73s6.78 4.53 11.57 4.53 8.65-1.51 11.57-4.53 4.38-7.6 4.38-13.73v-59.35c-6-1.61-11.85-6.09-15.86-12.22-2.56-3.9-6.19-11.16-8.62-17.21-1.78-4.45-2.2-6.04-2.37-9.03-.3-5.19-.21-5.27 10.84-9.14 4.91-1.71 10.18-3.81 10.66-4.24 1.21-1.09 1.1-2-.51-4.3-7.91-11.33-9.49-16.78-8.41-29.08.35-3.97.18-6.25-.51-6.85-.57-.49-2.58-1.22-4.48-1.63-12.99-2.77-21.9-5.85-32.17-11.12-8.52-4.37-14.73-8.84-21.04-15.16-11.96-11.97-19.65-25.4-22.49-39.22-.82-4-.94-5.77-.77-11.69.21-7.24.92-11.06 2.69-14.63 4.1-8.26 11.31-11.16 15.6-6.28 2.31 2.63 2.54 4.51 1.32 10.76-1.5 7.74-1.41 15.14.26 20.7 3.81 12.68 14.63 26.26 27.55 34.6 10.83 6.98 23.44 10.94 36.42 11.41 8.31.3 13.99-.48 17.76-2.47 9.67-5.09 13.86-7.04 18.03-8.39 24.51-7.92 52.23-4.3 76.36 9.99 5.82 3.44 9.83 6.4 16.26 11.99 8.02 6.98 10.01 7.79 16.98 6.98 2.47-.29 6.62-.42 9.23-.29 5.35.27 7.88.99 15.34 4.4 2.72 1.24 6.12 2.42 7.85 2.72 5.55.97 11.65-.17 18.57-3.45 5.52-2.61 9.56-3.7 15.84-4.25 4.97-.44 5.26-.53 9-2.65 5.89-3.35 14.6-6.79 17.22-6.79 1.54 0 2.08 1.49 1.32 3.66-.77 2.21-.63 2.3 1.46 1.08 2.37-1.39 3.9-1.5 3.9-.28 0 .47-.99 2.75-2.21 5.06s-2.64 5.29-3.16 6.61l-.95 2.4 2.67 2.85c1.47 1.58 3.32 4.17 4.11 5.78 1.33 2.69 1.47 3.4 1.75 8.94.33 6.52.69 7.56 4.06 11.79.77.97 1.4 2.22 1.4 2.8 0 2.07-4.35 8.79-7.01 10.82-1.5 1.15-1.51 1.2-1.47 4.63.03 2.05-.26 4.53-.71 6.08-.89 3.04-1.25 3.18-.69.26.51-2.65.41-7.34.04-8.21-.2-.46-.44-.47-.76-.33-.39.17-.45.33-.61.62-.31.57-.59 1.51-.83 2.8-.61 3.34-2.96 8.58-4.83 10.75-1.1 1.29-1.09 1.22.21-1.15 1.71-3.14 3.07-7.05 3.45-9.92.15-1.11.14-1.77.05-1.97-.08-.18-.29-.18-.51-.18-.16 0-.47.11-.55.19-.34.35-.54 1.13-.86 2.12-.91 2.78-2.85 6.32-4.52 8.22-.99 1.13-1.08 1.17-.54.23.36-.62.97-1.63 1.37-2.25.82-1.28 3.18-8.1 2.9-8.38-1.41-1.42-29.6-1-35.43.53-4.33 1.14-8.11 2.97-12.13 5.91-1.98 1.44-3.6 2.76-3.61 2.93-.08 1.23 11.78 8.64 22.4 14 0 0 4.87 3.07 6.44 3.25s5.71.23 5.71.23c6.68.27 8.69 1.08 10.88 4.39 1.93 2.91 2.37 5.29 1.03 7.29.7-.02 1.41-.04 2.12-.04 12.17 0 22.62 3.29 31.34 9.85s14.43 15.26 17.11 26.09h-19.41c-2.3-5.75-5.99-10.33-11.07-13.73s-11.07-5.1-17.97-5.1c-9.3 0-16.84 2.97-22.64 8.91-5.8 5.95-8.7 13.56-8.7 22.86s2.9 16.94 8.7 22.93 13.34 8.98 22.64 8.98c6.81 0 12.77-1.72 17.9-5.17l-.06-.02c5.12-3.45 8.84-8.05 11.14-13.8h19.41c-2.69 10.83-8.39 19.53-17.11 26.09z"/></g></svg>