<svg height="97.55" viewBox="0 0 405.26 97.55" width="405.26" xmlns="http://www.w3.org/2000/svg"><g fill="#fff"><path d="m38.3 1.87h-38.3v93.82h18.36v-30.13h19.94c11.76 0 20.59-2.89 26.47-8.68s8.82-13.51 8.82-23.17-2.94-17.38-8.82-23.17-14.7-8.68-26.47-8.68zm.29 46.77h-20.23v-29.7h20.23c10.9 0 16.35 4.93 16.35 14.78s-5.45 14.92-16.35 14.92z"/><path d="m185.2 62.26c0 6.12-1.46 10.69-4.38 13.7s-6.77 4.52-11.55 4.52-8.63-1.51-11.55-4.52-4.38-7.58-4.38-13.7v-60.39h-18.36v60.4c0 6.12-1.46 10.69-4.38 13.7s-6.77 4.52-11.55 4.52-8.63-1.51-11.55-4.52-4.38-7.58-4.38-13.7v-60.4h-18.36v60.4c0 11.57 3.01 20.35 9.04 26.32 6.02 5.98 13.92 8.97 23.67 8.97 12.34 0 21.18-4.73 26.54-14.2h.29c5.45 9.47 14.3 14.2 26.54 14.2 9.75 0 17.65-2.99 23.67-8.97s9.04-14.75 9.04-26.32v-60.4h-18.36v60.4z"/><path d="m255.49 0c-12.72 0-22.55 3.49-29.48 10.47-6.94 6.98-10.4 16.55-10.4 28.69v56.52h18.36v-56.52c0-7.08 1.82-12.53 5.45-16.35s8.99-5.74 16.07-5.74 12.43 1.92 16.07 5.74c3.63 3.83 5.45 9.28 5.45 16.35v56.52h18.36v-56.52c0-12.14-3.47-21.71-10.4-28.69s-16.76-10.47-29.48-10.47z"/><path d="m374.78 75.46c-5.12 3.44-11.07 5.17-17.86 5.17-9.28 0-16.81-2.99-22.59-8.97-5.79-5.98-8.68-13.6-8.68-22.88s2.89-16.88 8.68-22.81 13.32-8.89 22.59-8.89c6.89 0 12.86 1.7 17.93 5.09 5.07 3.4 8.75 7.96 11.05 13.7h19.37c-2.68-10.81-8.37-19.49-17.07-26.04s-19.13-9.83-31.27-9.83c-14.54 0-26.49 4.59-35.86 13.77s-14.06 20.85-14.06 35 4.68 25.82 14.06 35c9.37 9.18 21.33 13.77 35.86 13.77 12.14 0 22.57-3.28 31.27-9.83s14.39-15.23 17.07-26.04h-19.37c-2.29 5.74-6 10.33-11.12 13.77z"/></g></svg>