<svg enable-background="new 0 0 16 16" viewBox="0 0 16 16" xmlns="http://www.w3.org/2000/svg"><g fill="#fff"><path d="m13.635 0h-11.27c-1.304 0-2.365 1.061-2.365 2.365v11.27c0 1.304 1.061 2.365 2.365 2.365h11.27c1.304 0 2.365-1.061 2.365-2.365v-11.27c0-1.304-1.061-2.365-2.365-2.365zm.856 13.634c0 .472-.384.856-.856.856h-11.27c-.471 0-.855-.384-.855-.856v-11.27c0-.471.383-.855.855-.855v.001h11.27c.472 0 .856.383.856.855z"/><path d="m9.882 6.661-1.882 1.881-1.882-1.88c-.295-.295-.772-.295-1.067 0s-.295.772 0 1.067l2.415 2.414c.148.147.341.221.534.221s.386-.073.534-.222l2.415-2.414c.295-.294.295-.772 0-1.067-.294-.294-.771-.296-1.067 0z"/></g></svg>