<svg enable-background="new 0 0 16 16" viewBox="0 0 16 16" xmlns="http://www.w3.org/2000/svg"><path d="m13.23 1.161h-2.58c-.665-.71-1.603-1.161-2.65-1.161-1.048 0-1.987.451-2.652 1.162h-2.579c-.726 0-1.316.591-1.316 1.317v12.204c0 .726.59 1.317 1.316 1.317h10.461c.726 0 1.317-.591 1.317-1.318v-12.204c0-.726-.591-1.317-1.317-1.317zm-5.23.31c1.144 0 2.085.891 2.164 2.016h-4.329c.08-1.125 1.021-2.016 2.165-2.016zm5.076 13.058h-10.152v-11.896h1.594c-.094.322-.16.656-.16 1.008v.581c0 .407.33.736.736.736h5.812c.406 0 .735-.33.735-.736v-.581c0-.352-.066-.686-.16-1.008h1.595z" fill="#fff"/></svg>