<svg enable-background="new 0 0 16 16" viewBox="0 0 16 16" xmlns="http://www.w3.org/2000/svg"><g fill="#fff"><path d="m8 8.742h7.258c.41 0 .742-.332.742-.742s-.332-.743-.743-.743h-7.257c-.41 0-.742.333-.742.743s.332.742.742.742z"/><path d="m8 3.463h7.258c.41 0 .741-.332.741-.742s-.332-.742-.742-.742h-7.257c-.41 0-.742.332-.742.742s.332.742.742.742z"/><path d="m15.257 12.536h-7.257c-.41 0-.742.332-.742.742s.332.742.742.742h7.258c.41 0 .741-.332.741-.742s-.332-.742-.742-.742z"/><path d="m4.176.877-2.114 2.114-.795-.795c-.29-.29-.76-.29-1.05 0s-.29.76 0 1.05l1.32 1.32c.145.145.335.217.525.217s.38-.072.525-.217l2.639-2.639c.29-.29.29-.76 0-1.05s-.76-.29-1.05 0z"/><path d="m4.176 6.155-2.114 2.114-.795-.794c-.29-.29-.76-.29-1.05 0s-.29.761 0 1.05l1.32 1.319c.145.145.335.217.525.217s.38-.072.525-.217l2.639-2.639c.29-.29.29-.76 0-1.05s-.76-.29-1.05 0z"/><path d="m4.176 11.433-2.114 2.115-.795-.795c-.29-.29-.76-.29-1.05 0s-.29.76 0 1.05l1.32 1.32c.139.139.328.217.525.217s.386-.078.525-.217l2.639-2.64c.29-.29.29-.76 0-1.05s-.76-.29-1.05 0z"/></g></svg>