<svg enable-background="new 0 0 16 16" viewBox="0 0 16 16" xmlns="http://www.w3.org/2000/svg"><g fill="#fff"><path d="m7.341 8.742h7.917c.41 0 .742-.332.742-.742s-.332-.743-.743-.743h-7.916c-.41 0-.742.333-.742.743s.332.742.742.742z"/><path d="m7.341 3.463h7.917c.41 0 .741-.332.741-.742s-.332-.742-.742-.742h-7.916c-.41 0-.742.332-.742.742s.332.742.742.742z"/><path d="m15.257 12.536h-7.916c-.41 0-.742.332-.742.742s.332.742.742.742h7.917c.41 0 .741-.332.741-.742s-.332-.742-.742-.742z"/><path d="m2.495.199c-1.376 0-2.495 1.119-2.495 2.495s1.119 2.495 2.495 2.495 2.495-1.119 2.495-2.495-1.119-2.495-2.495-2.495zm0 3.49c-.55 0-.995-.445-.995-.995 0-.549.445-.995.995-.995s.995.445.995.995-.446.995-.995.995z"/><path d="m2.495 5.505c-1.376 0-2.495 1.119-2.495 2.495s1.119 2.495 2.495 2.495 2.495-1.119 2.495-2.495-1.119-2.495-2.495-2.495zm0 3.49c-.55 0-.995-.446-.995-.995s.445-.995.995-.995.995.446.995.995-.446.995-.995.995z"/><path d="m2.495 10.811c-1.376 0-2.495 1.119-2.495 2.495s1.119 2.495 2.495 2.495 2.495-1.119 2.495-2.495-1.119-2.495-2.495-2.495zm0 3.49c-.549 0-.995-.445-.995-.995s.445-.995.995-.995.995.445.995.995-.446.995-.995.995z"/></g></svg>