<svg enable-background="new 0 0 16 16" viewBox="0 0 16 16" xmlns="http://www.w3.org/2000/svg"><path d="m13.427 16c-.421 0-.763-.342-.763-.763s.342-.763.763-.763c.577 0 1.046-.469 1.046-1.046 0-.421.342-.763.763-.763s.763.342.763.763c.001 1.418-1.153 2.572-2.572 2.572zm-2.713 0h-1.357c-.421 0-.763-.342-.763-.763s.342-.763.763-.763h1.358c.421 0 .763.342.763.763-.001.421-.343.763-.764.763zm-4.071 0h-1.357c-.421 0-.763-.342-.763-.763s.342-.763.763-.763h1.357c.421 0 .763.342.763.763s-.342.763-.763.763zm-4.071 0c-1.418 0-2.572-1.154-2.572-2.573 0-.421.342-.763.763-.763s.763.342.763.763c0 .577.469 1.046 1.046 1.046.421 0 .763.342.763.763.001.422-.341.764-.763.764zm12.665-4.523c-.421 0-.763-.342-.763-.763v-1.357c0-.421.342-.763.763-.763.421-.001.763.341.763.763v1.358c0 .42-.342.762-.763.762zm-14.474 0c-.421 0-.763-.342-.763-.763v-1.357c0-.421.342-.763.763-.763s.763.342.763.763v1.358c0 .42-.341.762-.763.762zm14.474-4.071c-.421 0-.763-.342-.763-.763v-1.357c0-.421.342-.763.763-.763s.763.342.763.763v1.357c0 .421-.342.763-.763.763zm-14.474 0c-.421 0-.763-.342-.763-.763v-1.357c0-.421.342-.763.763-.763s.763.342.763.763v1.357c0 .421-.341.763-.763.763zm14.474-4.07c-.421 0-.763-.342-.763-.763 0-.577-.469-1.046-1.046-1.046-.421 0-.763-.342-.763-.763s.341-.764.762-.764c1.419 0 2.573 1.154 2.573 2.572 0 .422-.342.764-.763.764zm-14.474 0c-.421 0-.763-.342-.763-.764 0-1.418 1.154-2.572 2.572-2.572.421 0 .763.342.763.763s-.341.763-.763.763c-.577 0-1.046.469-1.046 1.046 0 .422-.341.764-.763.764zm9.951-1.81h-1.357c-.421 0-.763-.342-.763-.763s.341-.763.763-.763h1.358c.421 0 .763.342.763.763s-.343.763-.764.763zm-4.071 0h-1.357c-.421 0-.763-.342-.763-.763s.342-.763.763-.763h1.357c.421 0 .763.342.763.763s-.342.763-.763.763z" fill="#fff"/></svg>