<svg viewBox="0 0 16 13.58" xmlns="http://www.w3.org/2000/svg"><g fill="#fff"><path d="m14.73 13.58h-13.43c-.71 0-1.29-.58-1.3-1.3v-9.12c0-.41.33-.74.74-.74h13.92c.74 0 1.34.6 1.34 1.34v8.54c0 .7-.57 1.28-1.28 1.28zm-13.25-1.48h13.05v-8.2h-13.05v8.21z"/><path d="m8 3.9c-.19 0-.38-.07-.52-.22l-2.21-2.2h-3.79v1.68c0 .41-.33.74-.74.74s-.74-.33-.74-.74v-1.82c0-.74.6-1.34 1.34-1.34h3.99c.36 0 .7.14.95.39l2.24 2.24c.29.29.29.76 0 1.04-.14.14-.33.22-.52.22z"/><path d="m8.76 9.81-2.57-2.57c-.29-.29-.29-.76 0-1.04s.76-.29 1.04 0l2.57 2.57c.29.29.29.76 0 1.04s-.76.29-1.04 0z"/><path d="m6.19 9.81c-.29-.29-.29-.76 0-1.04l2.57-2.57c.29-.29.76-.29 1.04 0s.29.76 0 1.04l-2.57 2.57c-.29.29-.76.29-1.04 0z"/></g></svg>