<svg enable-background="new 0 0 16 16" viewBox="0 0 16 16" xmlns="http://www.w3.org/2000/svg"><g fill="#fff"><path d="m8 13.403c-5.603 0-7.845-4.899-7.937-5.107-.084-.189-.084-.405 0-.593.092-.208 2.334-5.106 7.937-5.106 5.602 0 7.844 4.898 7.937 5.107.084.189.084.405 0 .593-.093.208-2.335 5.106-7.937 5.106zm-6.45-5.401c.534.974 2.489 3.941 6.45 3.941 3.963 0 5.918-2.971 6.451-3.943-.532-.97-2.487-3.943-6.451-3.943-3.933 0-5.914 2.984-6.45 3.945z"/><path d="m8 11.327c-1.834 0-3.326-1.493-3.326-3.327s1.492-3.326 3.326-3.326 3.327 1.492 3.327 3.326-1.493 3.327-3.327 3.327zm0-5.193c-1.029 0-1.866.837-1.866 1.866s.837 1.866 1.866 1.866 1.866-.837 1.866-1.866-.837-1.866-1.866-1.866z"/></g></svg>