<svg enable-background="new 0 0 16 16" viewBox="0 0 16 16" xmlns="http://www.w3.org/2000/svg"><path d="m9.95 5.286c0 .421.342.763.763.763h3.99.012.521c.421 0 .763-.341.763-.763v-4.523c0-.421-.342-.763-.763-.763-.422 0-.763.342-.764.764v2.517c-1.886-2.582-5.226-3.858-8.464-3.028-3.181.818-5.512 3.451-5.939 6.707-.573 4.373 2.518 8.397 6.891 8.971.352.047.701.069 1.046.069 3.952 0 7.399-2.937 7.927-6.959.056-.418-.24-.801-.657-.856-.424-.057-.801.241-.856.658-.465 3.539-3.72 6.034-7.26 5.577-3.538-.465-6.04-3.722-5.576-7.26.345-2.635 2.232-4.765 4.805-5.427 2.764-.71 5.623.47 7.092 2.79h-2.768c-.421 0-.763.342-.763.763z" fill="#fff"/></svg>