<svg enable-background="new 0 0 16 16" image-rendering="optimizeQuality" shape-rendering="geometricPrecision" text-rendering="geometricPrecision" viewBox="0 0 16 16" xmlns="http://www.w3.org/2000/svg"><path d="m6.703 14.567c.28 0 .561-.105.773-.318.204-.21.313-.476.316-.756v-1.822c1.185-.148 2.215-.087 3.132.191 1.187.36 2.215 1.098 3.143 2.252.181.227.441.368.731.399.288.027.57-.053.796-.233.273-.219.425-.56.405-.911-.171-2.637-1.126-4.884-2.763-6.504-1.411-1.399-3.284-2.277-5.447-2.56v-1.784c0-.6-.488-1.088-1.089-1.088-.316 0-.615.137-.821.376l-5.552 5.415c-.428.418-.437 1.107-.021 1.535l5.636 5.5c.211.205.486.308.761.308zm8.534-1.393s0 .001 0 0zm-6.247-3.084c-.654 0-1.345.066-2.081.199-.357.064-.617.375-.617.738v1.476l-4.615-4.501 4.614-4.502v1.483c0 .394.305.72.697.748 2.095.148 3.892.909 5.195 2.2 1.109 1.099 1.846 2.559 2.165 4.271-.895-.854-1.881-1.439-2.986-1.775-.738-.225-1.523-.337-2.372-.337zm-2.017-7.256c-.005.007-.013.014-.021.021z" fill="#fff"/></svg>