<svg enable-background="new 0 0 16 16" viewBox="0 0 16 16" xmlns="http://www.w3.org/2000/svg"><g fill="#fff"><path d="m14.657 3.631h-6.351l-2.028-2.028c-.254-.253-.591-.393-.949-.393h-3.986c-.74 0-1.343.602-1.343 1.343v1.816 9.125c.002.712.582 1.293 1.296 1.295h13.428c.703 0 1.275-.573 1.276-1.276v-8.539c0-.741-.603-1.343-1.343-1.343zm-9.384-.946.946.946h-4.744v-.946zm9.251 10.63h-13.049v-8.209h13.049z"/><path d="m7.262 7.395v1.076h-1.078c-.408 0-.738.33-.738.738s.331.738.738.738h1.078v1.079c0 .408.331.738.738.738s.738-.331.738-.738v-1.079h1.077c.407 0 .738-.33.738-.738s-.331-.738-.738-.738h-1.078v-1.076c0-.408-.33-.738-.738-.738s-.737.331-.737.738z"/></g></svg>