<svg enable-background="new 0 0 16 16" viewBox="0 0 16 16" xmlns="http://www.w3.org/2000/svg"><path d="m13.536 6.387h-1.797v-3.501c0-1.357-1.105-2.462-2.462-2.462s-2.462 1.104-2.462 2.462v.852c0 1.461-1.188 2.649-2.649 2.649h-2.556c-.888 0-1.61.723-1.61 1.611v5.964c0 .888.722 1.61 1.61 1.61h1.705c.56 0 1.055-.287 1.343-.723.566.452 1.284.723 2.064.723l5.899-.003c.053.005.107.007.16.007 1.074 0 2.026-.92 2.351-2.317l.853-4.26c.01-.049.015-.099.015-.149 0-1.358-1.105-2.463-2.464-2.463zm-10.129 7.575c0 .052-.042.093-.093.093h-1.704c-.052 0-.093-.042-.093-.093v-5.964c0-.051.042-.093.093-.093h1.797zm10.243-1.026c-.178.762-.601 1.143-.964 1.118h-5.964c-.991 0-1.797-.806-1.797-1.797v-4.422c1.936-.358 3.408-2.059 3.408-4.097v-.852c0-.521.424-.945.945-.945s.945.424.945.945v4.259c0 .419.34.759.759.759h2.556c.499 0 .909.39.943.881z" fill="#fff"/></svg>