<svg enable-background="new 0 0 16 16" viewBox="0 0 16 16" xmlns="http://www.w3.org/2000/svg"><path d="m16 2.554c0-.042-.017-.078-.024-.118-.008-.05-.011-.099-.03-.147-.022-.056-.057-.102-.091-.15-.019-.027-.028-.059-.051-.084-.003-.004-.008-.005-.012-.008-.043-.046-.098-.077-.152-.11-.028-.017-.052-.042-.082-.055-.041-.018-.087-.021-.132-.032-.05-.012-.098-.029-.149-.03-.006 0-.011-.003-.017-.003h-14.522c-.005 0-.01.003-.015.003-.059.001-.115.019-.173.034-.036.01-.075.011-.108.026-.036.016-.066.045-.1.068-.047.031-.096.057-.135.098-.004.004-.009.005-.013.009-.027.03-.038.066-.059.098-.029.044-.062.084-.081.134-.021.054-.026.11-.034.167-.005.034-.02.065-.02.1v10.287c0 .345.14.654.356.892.01.013.013.028.024.04.002.002.004.002.006.004.057.058.13.093.197.139.019.01.034.028.054.036.209.133.442.23.707.23h13.313c.265 0 .499-.097.707-.23.017-.007.029-.022.045-.031.07-.049.147-.086.207-.147.001-.001.002-.001.003-.002.005-.006.007-.013.012-.019.225-.24.37-.558.37-.913v-10.286zm-14.525 1.676 4.113 3.77-4.113 3.77zm6.525 3.98-5.367-4.919h10.732zm-1.321.79.823.754c.141.13.319.194.498.194s.357-.064.498-.194l.821-.754 4.046 3.708h-10.732zm3.732-1 4.112-3.769v7.538z" fill="#fff"/></svg>