<svg enable-background="new 0 0 16 16" viewBox="0 0 16 16" xmlns="http://www.w3.org/2000/svg"><path d="m15.996.716c-.003-.073-.017-.144-.042-.213-.007-.021-.014-.04-.023-.06-.037-.082-.083-.16-.149-.226-.065-.065-.142-.111-.223-.147-.024-.011-.047-.018-.071-.027-.063-.021-.128-.034-.194-.038-.021-.001-.042-.006-.064-.005-.08.002-.159.013-.236.041l-14.299 5.166c-.26.118-.468.327-.586.586-.273.596-.01 1.302.562 1.564l5.315 2.656 2.647 5.294c.118.256.325.463.583.583.158.074.326.11.495.11.139 0 .279-.026.414-.075.299-.11.536-.331.691-.677l5.142-14.242c.029-.079.04-.161.042-.243 0-.016-.003-.031-.004-.047zm-3.668 1.89-5.93 5.93-4.4-2.199zm-2.664 11.398-2.2-4.403 5.93-5.931z" fill="#fff"/></svg>