<svg enable-background="new 0 0 16 16" viewBox="0 0 16 16" xmlns="http://www.w3.org/2000/svg"><path d="m13.533 7.492-6.216 6.208c-1.122 1.103-2.947 1.102-4.069.001-1.14-1.122-1.155-2.963-.034-4.102l7.524-7.63c.658-.657 1.729-.658 2.388 0 .657.658.657 1.73-.004 2.391l-7.518 7.621c-.186.181-.476.182-.662-.001-.091-.088-.142-.206-.144-.332s.046-.247.131-.334l6.315-6.421c.286-.291.282-.758-.009-1.044s-.757-.282-1.044.009l-6.319 6.424c-.363.374-.559.867-.551 1.389.009.521.219 1.008.592 1.37.763.739 1.956.741 2.73-.012l7.526-7.629c1.233-1.235 1.233-3.241 0-4.476-1.235-1.233-3.242-1.233-4.479.004l-7.529 7.633c-1.693 1.721-1.67 4.497.05 6.191.846.832 1.956 1.248 3.068 1.248 1.113 0 2.227-.417 3.077-1.252l6.221-6.211c.288-.289.288-.756 0-1.044-.289-.289-.755-.289-1.044-.001z" fill="#fff"/></svg>