<svg enable-background="new 0 0 16 16" viewBox="0 0 16 16" xmlns="http://www.w3.org/2000/svg"><g fill="#fff"><path d="m14.598 0h-13.196c-.773 0-1.402.629-1.402 1.402v13.197c0 .773.629 1.401 1.402 1.401h13.197c.773 0 1.401-.628 1.401-1.402v-13.196c0-.773-.628-1.402-1.402-1.402zm-.082 1.485v8.413h-2.284c-.368 0-.728.149-.991.41l-1.534 1.57-3.354.024-1.595-1.595c-.261-.26-.622-.409-.99-.409h-2.283v-8.413zm-13.031 13.03v-3.14l2.224-.019 1.593 1.593c.261.262.622.412.992.412h3.413c.368 0 .73-.149.991-.41l1.534-1.569h2.284v3.133z"/><path d="m7.475 10.505c.012.012.028.016.041.027.06.053.125.101.2.133.091.037.187.057.284.057s.193-.02.284-.057c.073-.03.135-.078.194-.128.015-.013.033-.017.047-.031l2.64-2.639c.29-.29.29-.76 0-1.05s-.76-.29-1.05 0l-1.373 1.371v-4.806c0-.41-.332-.742-.742-.742s-.742.332-.742.742v4.806l-1.372-1.373c-.29-.29-.76-.29-1.05 0s-.29.76 0 1.05z"/></g></svg>