<svg enable-background="new 0 0 16 16" viewBox="0 0 16 16" xmlns="http://www.w3.org/2000/svg"><g fill="#fff"><path d="m8 7.699c.501 0 .908-.406.908-.908s-.407-.908-.908-.908-.908.407-.908.908.407.908.908.908z"/><path d="m4.671 7.699c.501 0 .908-.406.908-.908s-.407-.908-.908-.908-.908.407-.908.908.407.908.908.908z"/><path d="m11.329 7.699c.502 0 .908-.406.908-.908s-.406-.908-.908-.908c-.501 0-.908.407-.908.908s.407.908.908.908z"/><path d="m14.657.606h-13.314c-.74 0-1.343.603-1.343 1.343v12.107c.001.312.112.617.316.862.265.314.645.476 1.028.476.305 0 .612-.103.862-.314.003-.002.006-.005.008-.007l2.429-2.097h10.014c.741 0 1.343-.604 1.343-1.344v-9.683c0-.741-.603-1.343-1.343-1.343zm-.132 10.894h-10.156c-.177 0-.348.064-.482.18l-2.412 2.083v-11.681h13.05z"/></g></svg>