<svg enable-background="new 0 0 16 16" viewBox="0 0 16 16" xmlns="http://www.w3.org/2000/svg"><g fill="#fff"><path d="m5.361 6.103h5.279c.41 0 .742-.332.742-.742s-.332-.742-.742-.742h-5.279c-.41 0-.742.332-.742.742s.332.742.742.742z"/><path d="m5.361 8.743h5.279c.41 0 .742-.333.742-.743s-.332-.742-.742-.742h-5.279c-.41 0-.742.332-.742.742s.332.743.742.743z"/><path d="m8 9.898h-2.639c-.41 0-.742.332-.742.742s.332.742.742.742h2.639c.41 0 .742-.332.742-.742s-.332-.742-.742-.742z"/><path d="m16 1.402c0-.773-.628-1.402-1.402-1.402h-13.196c-.773 0-1.402.629-1.402 1.402v13.197c0 .773.629 1.401 1.402 1.401h8.964c.192 0 .377-.042.55-.116.097-.039.183-.096.254-.17.061-.044.132-.07.187-.125l4.235-4.235c.054-.054.08-.125.124-.186.073-.072.131-.158.17-.255.073-.17.114-.355.114-.547zm-14.515.082h13.031l.024 8.413h-3.9c-.41 0-.742.332-.742.742v3.876h-8.413zm11.982 9.897-2.085 2.085v-2.085z"/></g></svg>