<svg enable-background="new 0 0 16 16" viewBox="0 0 16 16" xmlns="http://www.w3.org/2000/svg"><g fill="#fff"><path d="m14.598 0h-13.196c-.773 0-1.402.629-1.402 1.402v13.197c0 .773.629 1.401 1.402 1.401h13.197c.773 0 1.401-.628 1.401-1.402v-13.196c0-.773-.628-1.402-1.402-1.402zm-.082 1.485v8.413h-2.284c-.368 0-.728.149-.991.41l-1.534 1.57-3.354.024-1.595-1.595c-.261-.26-.622-.409-.99-.409h-2.283v-8.413zm-13.031 13.03v-3.14l2.224-.019 1.593 1.593c.261.262.622.412.992.412h3.413c.368 0 .73-.149.991-.41l1.534-1.569h2.284v3.133z"/><path d="m5.886 6.546 1.372-1.373v4.807c0 .41.332.742.742.742s.743-.333.742-.742v-4.807l1.373 1.373c.145.145.335.217.525.217s.38-.072.525-.217c.29-.29.29-.76 0-1.05l-2.64-2.639c-.013-.013-.031-.018-.045-.03-.059-.051-.122-.099-.196-.13-.182-.076-.387-.076-.569 0-.073.031-.136.079-.195.13-.014.012-.031.016-.045.03l-2.639 2.639c-.29.29-.29.76 0 1.05s.76.29 1.05 0z"/></g></svg>