<svg enable-background="new 0 0 16 16" viewBox="0 0 16 16" xmlns="http://www.w3.org/2000/svg"><g fill="#fff"><path d="m15.783 2.742-2.526-2.525c-.289-.289-.757-.289-1.046 0l-7.575 7.575c-.139.139-.217.327-.217.523v2.525c0 .409.332.74.74.74h2.525c.196 0 .384-.078.523-.217l5.681-5.681h.001s0 0 0-.001l1.894-1.893c.139-.139.217-.327.217-.523s-.078-.384-.217-.523zm-8.405 7.359h-1.479v-1.479l4.942-4.942 1.48 1.479zm5.988-5.988-1.48-1.479.848-.848 1.48 1.479z"/><path d="m14.629 7.575c-.409 0-.74.332-.74.74v6.206h-12.409v-12.41h6.204c.409 0 .74-.331.74-.74s-.332-.74-.74-.74h-6.313c-.756 0-1.371.615-1.371 1.371v12.626c0 .756.615 1.372 1.371 1.372h12.626c.756 0 1.371-.616 1.372-1.372v-6.313c0-.409-.331-.74-.74-.74z"/></g></svg>