<svg enable-background="new 0 0 16 16" viewBox="0 0 16 16" xmlns="http://www.w3.org/2000/svg"><g fill="#fff"><path d="m9.815 7.527h3.026c.407 0 .738-.331.738-.738 0-.408-.331-.738-.738-.738h-3.026c-.408 0-.738.331-.738.738 0 .408.331.738.738.738z"/><path d="m9.815 9.947h3.026c.407 0 .738-.33.738-.738s-.331-.738-.738-.738h-3.026c-.408 0-.738.33-.738.738s.331.738.738.738z"/><path d="m14.657 1.21h-13.314c-.74 0-1.343.602-1.343 1.343v10.893c0 .741.603 1.344 1.343 1.344h13.314c.741 0 1.343-.603 1.343-1.344v-10.893c0-.741-.602-1.343-1.343-1.343zm-.132 12.105h-13.05v-10.63h13.05z"/><path d="m2.975 11.74c.397.098.796-.136.898-.531.185-.719.918-1.262 1.706-1.262s1.522.543 1.707 1.263c.085.333.385.554.714.554.06 0 .122-.008.183-.024.394-.101.632-.503.531-.898-.185-.72-.639-1.332-1.237-1.756.403-.451.655-1.04.655-1.692 0-1.408-1.145-2.553-2.553-2.553s-2.553 1.145-2.553 2.553c0 .652.253 1.241.656 1.693-.598.424-1.053 1.035-1.238 1.755-.101.395.137.796.531.898zm1.526-4.345c0-.594.484-1.078 1.078-1.078.595 0 1.078.483 1.078 1.078 0 .593-.482 1.075-1.074 1.077-.001 0-.002 0-.004 0s-.002 0-.004 0c-.592-.002-1.074-.484-1.074-1.077z"/></g></svg>