<svg enable-background="new 0 0 16 16" viewBox="0 0 16 16" xmlns="http://www.w3.org/2000/svg"><g fill="#fff"><path d="m11.609 9.31c-.395-.066-.781.202-.848.602-.194 1.142-1.162 2.111-2.303 2.303-.4.067-.671.447-.603.848.061.359.373.613.725.613.041 0 .082-.003.122-.01 1.767-.297 3.209-1.74 3.509-3.508.068-.401-.202-.78-.602-.848z"/><path d="m9.215.17c-.184-.153-.432-.207-.661-.145-.231.062-.417.233-.499.458l-1.519 4.165-1.583-1.535c-.151-.147-.36-.223-.567-.205-.21.015-.403.12-.53.287-1.595 2.09-2.403 4.196-2.403 6.258 0 3.61 2.937 6.547 6.547 6.547s6.547-2.937 6.547-6.547c0-4.386-3.729-7.953-5.332-9.283zm-1.215 14.359c-2.799 0-5.076-2.277-5.076-5.076 0-1.518.544-3.093 1.617-4.69l1.785 1.731c.179.173.435.243.676.189.243-.056.442-.231.527-.465l1.539-4.219c1.614 1.506 4.008 4.276 4.008 7.454 0 2.799-2.278 5.076-5.076 5.076z"/></g></svg>