<svg enable-background="new 0 0 16 16" viewBox="0 0 16 16" xmlns="http://www.w3.org/2000/svg"><path d="m14.052 1.21h-1.683v-.472c0-.408-.331-.738-.738-.738s-.738.33-.738.738v.472h-5.786v-.472c0-.408-.33-.738-.738-.738s-.738.33-.738.738v.472h-1.683c-.741 0-1.343.603-1.343 1.343v12.104c0 .74.603 1.343 1.343 1.343h12.104c.741 0 1.343-.603 1.343-1.343v-12.104c0-.741-.603-1.343-1.343-1.343zm-10.421 1.476v.472c0 .408.331.738.738.738s.737-.33.738-.737v-.473h5.786v.472c0 .408.331.738.738.738s.738-.33.738-.737v-.473h1.551v2.155h-11.84v-2.155zm-1.551 11.839v-8.208h11.84v8.208z" fill="#fff"/></svg>