<svg enable-background="new 0 0 16 16" viewBox="0 0 16 16" xmlns="http://www.w3.org/2000/svg"><g fill="#fff"><path d="m15.3 3.4h-11v-1c0-.4-.3-.7-.7-.7h-1.2c-1.3 0-2.4 1.1-2.4 2.4v7.8c0 1.3 1.1 2.4 2.4 2.4h12.9c.4 0 .7-.3.7-.7v-9.5c0-.4-.3-.7-.7-.7zm-13.8.7c0-.5.4-.9.9-.9h.4v6.4h-.4c-.3 0-.7.1-.9.2zm13 8.8h-12.1c-.5 0-.9-.4-.9-.9s.4-.9.9-.9h1.1c.4 0 .7-.3.7-.7v-5.6h10.3z"/><path d="m6.3 8.9c-.4 0-.7.3-.7.7s.3.7.7.7h.9v.4c0 .4.3.7.7.7s.7-.3.7-.7v-.4h1.3v.4c0 .4.3.7.7.7s.7-.3.7-.7v-.4h.9c.4 0 .7-.3.7-.7s-.3-.7-.7-.7h-.9v-.7h.9c.4 0 .7-.3.7-.7s-.3-.7-.7-.7h-.9v-.5c0-.4-.3-.7-.7-.7s-.7.3-.7.7v.4h-1.2v-.4c0-.4-.3-.7-.7-.7s-.7.3-.7.7v.4h-1c-.4 0-.7.3-.7.7s.3.7.7.7h.9v.8zm2.4-.7h1.3v.8h-1.3z"/></g></svg>