<svg enable-background="new 0 0 16 16" viewBox="0 0 16 16" xmlns="http://www.w3.org/2000/svg"><g fill="#fff"><path d="m10.4 5.5c.4 0 .8-.3.8-.8s-.4-.7-.8-.7-.7.4-.7.8.3.7.7.7z"/><path d="m16 11.2v-8c0-1.8-1.4-3.2-3.2-3.2h-9.6c-1.8 0-3.2 1.4-3.2 3.2v8 1.6c0 1.8 1.4 3.2 3.2 3.2h9.7c1.7 0 3.2-1.4 3.2-3.2v-1.6c-.1 0-.1 0-.1 0zm-12.8-9.7h9.7c.9 0 1.7.7 1.7 1.7v6.2l-1.1-1.1c-1-1-2.4-1-3.5 0l-.4.2-1.9-1.8c-1-1-2.4-1-3.5 0l-2.7 2.7v-6.2c0-.9.8-1.7 1.7-1.7zm9.6 13h-9.6c-.9 0-1.7-.7-1.7-1.7v-1.3l3.8-3.8c.5-.4.9-.4 1.4 0l2.4 2.4s0 0 0 0l1.6 1.6c.1.1.3.2.5.2s.4-.1.5-.2c.3-.3.3-.8 0-1.1l-1.1-1.1.3-.3c.5-.4.9-.4 1.4 0l2.2 2.2v1.3c0 1-.8 1.8-1.7 1.8z"/></g></svg>