<svg enable-background="new 0 0 16 16" viewBox="0 0 16 16" xmlns="http://www.w3.org/2000/svg"><path d="m11.9 2c-.1 0-.1 0-.2 0l-11.2 3.3s-.1 0-.1.1c0 0-.1 0-.1.1 0 0-.1.1-.1.1s-.1.1-.1.1v.1c-.1.1-.1.2-.1.2v1.7c0 .4.3.7.7.7h.6c.5 0 .9.4.9.9 0 .3-.1.6-.2.7-.2.2-.4.3-.7.3h-.6c-.4 0-.7.3-.7.7v2.2c0 .5.3.8.7.8h14c.7 0 1.3-.6 1.3-1.3v-6.7c0-2.2-1.8-4-4.1-4zm.1 1.4c1.1 0 2.1.8 2.4 1.9h-8.7zm-.5 5.1c-.7.4-1.6.2-2.1-.6-.1-.3-.2-.7-.1-1.1h2.9c.2.6-.1 1.3-.7 1.7zm-6.1 4.1c.1-.7.7-1.3 1.5-1.3s1.4.6 1.5 1.3zm9.1 0h-4.7c-.1-1.6-1.4-2.8-3-2.8s-2.9 1.2-3 2.8h-2.3v-.8c.5-.1 1.1-.3 1.5-.7.5-.5.7-1.1.7-1.7 0-1.2-1-2.3-2.2-2.4v-.2h6.4c-.1.6 0 1.3.3 1.9.5 1 1.5 1.5 2.6 1.5.5 0 1-.1 1.5-.4 1.1-.6 1.6-1.8 1.5-3h.8v5.8z" fill="#fff"/></svg>