<svg enable-background="new 0 0 16 16" viewBox="0 0 16 16" xmlns="http://www.w3.org/2000/svg"><g fill="#fff"><path d="m8 0c-4.4 0-8 3.6-8 8s3.6 8 8 8 8-3.6 8-8-3.6-8-8-8zm0 14.5c-3.6 0-6.5-2.9-6.5-6.5s2.9-6.5 6.5-6.5 6.5 2.9 6.5 6.5-2.9 6.5-6.5 6.5z"/><path d="m5.3 7.4c.5 0 .9-.4.9-.9s-.4-.9-.9-.9-.9.4-.9.9.4.9.9.9z"/><path d="m10.7 7.4c.5 0 .9-.4.9-.9s-.4-.9-.9-.9-.9.4-.9.9.4.9.9.9z"/><path d="m8 9.1c-1.5 0-2.9.8-3.7 2.2-.2.4-.1.8.3 1s.8.1 1-.3c.6-.9 1.4-1.4 2.4-1.4s1.8.5 2.4 1.4c.1.2.4.4.6.4.1 0 .3 0 .4-.1.4-.2.5-.7.3-1-.8-1.4-2.2-2.2-3.7-2.2z"/></g></svg>