<svg enable-background="new 0 0 16 16" viewBox="0 0 16 16" xmlns="http://www.w3.org/2000/svg"><g fill="#fff"><path d="m15.9 8.1c-.4-.6-1-1-1.6-1.3.3-.3.5-.7.6-1.2.4-1.5-.5-3-2-3.4s-3 .5-3.4 2c-.2.4.1.8.5.9s.8-.1.9-.5c.1-.3.3-.6.6-.8s.7-.2 1-.1c.7.2 1.2.9 1 1.6-.2.6-.7 1-1.3 1-.3 0-.5.2-.6.4v.1.1.2s0 0 0 0c0 .4.3.7.7.7 1 0 1.9.5 2.5 1.3.1.2.4.3.6.3s.3 0 .4-.1c.2-.4.3-.9.1-1.2z"/><path d="m3.8 7.7c.4 0 .7-.3.7-.7 0-.2-.1-.4-.2-.5-.1-.2-.3-.3-.5-.3-.7 0-1.3-.6-1.3-1.3 0-.4.1-.7.4-1s.6-.4 1-.4c.6 0 1.1.4 1.3 1 .1.4.5.7.8.6.4-.1.7-.5.6-.9-.4-1.3-1.5-2.1-2.8-2.1-.7 0-1.5.3-2 .8s-.8 1.2-.8 2c0 .7.3 1.4.7 1.9-.6.3-1.1.7-1.6 1.3-.2.3-.2.8.1 1 .1.1.3.1.4.1.4 0 .6-.1.7-.2.6-.8 1.6-1.3 2.5-1.3z"/><path d="m10.5 11.1c-.1 0-.2-.1-.3-.1.7-.6 1.1-1.5 1.1-2.4 0-1.8-1.5-3.3-3.3-3.3s-3.3 1.4-3.3 3.2c0 1 .4 1.8 1.1 2.4-.8.4-1.5 1.1-2 1.9-.2.3-.1.8.3 1 .1.1.2.1.4.1.3 0 .5-.1.6-.4.5-.8 1.2-1.4 2.1-1.6.8-.2 1.8 0 2.6.4.5.3.9.7 1.2 1.2.2.3.7.5 1 .3s.5-.7.3-1c-.5-.7-1.1-1.3-1.8-1.7zm-2.5-4.4c1 0 1.9.8 1.9 1.9 0 1-.8 1.9-1.9 1.9s-1.9-1-1.9-2 .9-1.8 1.9-1.8z"/></g></svg>