<svg enable-background="new 0 0 16 16" viewBox="0 0 16 16" xmlns="http://www.w3.org/2000/svg"><path d="m13.5.4c-1.4 0-2.5 1.1-2.5 2.5v1.7s0 0 0 0v8.5c0 .2.1.4.2.5l.4.4h-9.1c-.5 0-.9-.4-.9-.9s.4-.9.9-.9h3.4c1.4 0 2.5-1.1 2.5-2.5s-1.1-2.5-2.5-2.5h-2.6c-.4 0-.7.4-.7.8s.3.8.8.8h2.6c.5 0 .9.4.9.9s-.4.9-.9.9h-3.5c-1.4 0-2.5 1.1-2.5 2.5s1.1 2.5 2.5 2.5h11.1c.1 0 .2 0 .3-.1.1 0 .2-.1.2-.2l1.7-1.7c.1-.1.2-.3.2-.5v-10.2c0-1.4-1.1-2.5-2.5-2.5zm0 1.5c.5 0 .9.4.9.9v.9h-1.9v-.8c.1-.6.5-1 1-1zm0 11.8-.9-.9v-7.4h1.9v7.4z" fill="#fff"/></svg>