<svg enable-background="new 0 0 16 16" viewBox="0 0 16 16" xmlns="http://www.w3.org/2000/svg"><g fill="#fff"><path d="m11.6 3.1c.9 0 1.6-.7 1.6-1.6s-.7-1.6-1.6-1.6-1.6.7-1.6 1.6c.1.9.8 1.6 1.6 1.6z"/><path d="m14.6 7.5c-.2-.2-.4-.2-.7-.2l-4.5.7c-.2-.2-.4-.4-.6-.6l1.5-2.2c.1-.2.2-.4.1-.6s-.2-.4-.4-.5l-4.5-2.4c-.3-.2-.6-.1-.9.1l-2.4 2.5c-.3.2-.3.7 0 1s.8.3 1.1 0l2-2 3.2 1.8-1.1 1.6c-1.2-.4-2.4-.3-3.5.2-.4.2-.5.6-.4 1 .2.4.6.5 1 .4.8-.3 1.6-.4 2.4-.2.9.3 1.5.9 2 1.6.4.8.5 1.7.2 2.5-.1.4.1.8.5.9h.2c.3 0 .6-.2.7-.5.3-1.1.2-2.2-.2-3.3l2.8-.5-.7 4.6c-.1.4.2.8.6.9h.1c.4 0 .7-.3.7-.6l.8-5.6c.2-.2.1-.5 0-.6z"/><path d="m7.4 14.2c-.7.3-1.6.4-2.3.2-.8-.3-1.5-.8-1.9-1.6s-.5-1.7-.2-2.5c0-.4-.2-.9-.6-1s-.9.1-1 .5c-.4 1.2-.2 2.5.4 3.7.6 1.1 1.6 2 2.8 2.3.5.1.9.2 1.4.2.7 0 1.4-.1 2-.4.4-.2.5-.6.4-1-.2-.4-.7-.6-1-.4z"/></g></svg>