<svg enable-background="new 0 0 16 16" viewBox="0 0 16 16" xmlns="http://www.w3.org/2000/svg"><g fill="#fff"><path d="m15.3 14.3h-14.6c-.4 0-.7.3-.7.7s.3.7.7.7h14.5c.4 0 .7-.3.7-.7.1-.3-.2-.7-.6-.7z"/><path d="m1.5 7.5c.2.2.4.3.6.4l9.5 4.7c.3.2.7.3 1.1.3h.3l.8-.1c.6-.1 1.1-.4 1.4-1 .3-.5.3-1.2 0-1.7l-.4-.7c-.2-.4-.6-.8-1-1l-3.2-1.6c-.2-.1-.4-.3-.4-.5l-.6-4c-.1-.7-.6-1.3-1.2-1.7l-.8-.3c-.2-.1-.4-.1-.6-.1-.1.1-.3.2-.4.4l-1.8 3.7-.2-.1c-.1-.1-.2-.2-.2-.4 0-.7-.4-1.4-1.1-1.7l-.8-.4c-.2-.1-.4-.1-.6 0-.1 0-.3.2-.4.4l-1.4 3.2c-.2.3-.1.7.1.9zm1.1-4.1c.2.1.3.3.3.4 0 .7.4 1.4 1.1 1.7l.8.4c.1.1.3.2.5.1s.3-.2.4-.4l1.8-3.7h.1c.2.1.4.3.4.5l.5 3.9c.1.7.5 1.3 1.2 1.7l3.3 1.7c.2.1.3.2.4.4l.4.7c.1.1 0 .2 0 .3 0 0-.1.1-.2.1l-.9.1c-.2 0-.4 0-.6-.1l-9.4-4.7c-.1 0-.1-.1-.2-.1l-.9-.9z"/></g></svg>