<svg enable-background="new 0 0 16 16" viewBox="0 0 16 16" xmlns="http://www.w3.org/2000/svg"><path d="m13.1 1.5h-1.4v-.8c0-.4-.3-.7-.7-.7s-.7.3-.7.7v.7h-4.5v-.7c0-.4-.3-.7-.7-.7s-.7.3-.7.7v.7h-1.5c-1.2 0-2.2 1-2.2 2.2v10.2c0 1.2 1 2.2 2.2 2.2h10.2c1.2 0 2.2-1 2.2-2.2v-10.2c0-1.2-1-2.1-2.2-2.1zm-10.2 1.4h1.4v.7c0 .4.3.7.7.7s.7-.3.7-.7v-.7h4.3v.7c0 .4.3.7.7.7s.7-.3.7-.7v-.7h1.4c.4 0 .7.3.7.7v2.2h-11.3v-2.2c0-.3.3-.7.7-.7zm10.2 11.6h-10.2c-.4 0-.7-.3-.7-.7v-6.5h11.6v6.5c0 .4-.3.7-.7.7z" fill="#fff"/></svg>