<svg enable-background="new 0 0 16 16" viewBox="0 0 16 16" xmlns="http://www.w3.org/2000/svg"><g fill="#fff"><path d="m14.7 8.1h-2.8c-.4 0-.7.3-.7.7s.3.7.7.7h2.6v4.1h-13v-4h2.6c.4 0 .7-.3.7-.7s-.3-.7-.7-.7h-2.8c-.7-.1-1.3.5-1.3 1.2v4.5c0 .7.6 1.3 1.3 1.3h13.4c.7 0 1.3-.6 1.3-1.3v-4.5c0-.7-.6-1.3-1.3-1.3z"/><path d="m7.5 9.4c.1.1.2.1.2.2.1 0 .2.1.3.1s.2 0 .3-.1c.1 0 .2-.1.2-.1l3.4-3.5c.3-.3.3-.8 0-1-.3-.3-.8-.3-1 0l-2.2 2.1v-5.5c0-.4-.3-.7-.7-.7s-.7.3-.7.7v5.5l-2.1-2.1c-.3-.3-.8-.3-1 0s-.3.8 0 1z"/><circle cx="12.2" cy="11.6" r=".8"/></g></svg>