<svg enable-background="new 0 0 16 16" viewBox="0 0 16 16" xmlns="http://www.w3.org/2000/svg"><g fill="#fff"><path d="m4 4c-.4 0-.8.4-.8.8v2.4h-1.7v-2.4c0-.4-.3-.8-.7-.8s-.8.4-.8.8v2.4c0 .9.7 1.6 1.6 1.6h1.7v2.5c-.1.3.3.7.7.7s.8-.3.8-.8v-6.4c-.1-.4-.4-.8-.8-.8z"/><path d="m15.2 4c-.4 0-.8.3-.8.8v2.4h-1.7v-2.4c.1-.4-.3-.8-.7-.8s-.8.3-.8.8v2.4c0 .9.7 1.6 1.6 1.6h1.7v2.5c0 .4.3.8.8.8s.8-.3.8-.8v-6.5c-.1-.4-.4-.8-.9-.8z"/><path d="m8 4c-1.3 0-2.4 1.1-2.4 2.4v3.2c0 1.3 1.1 2.4 2.4 2.4s2.4-1.1 2.4-2.4v-3.2c0-1.3-1.1-2.4-2.4-2.4zm.9 5.6c0 .5-.4.9-.9.9s-.9-.4-.9-.9v-3.2c0-.5.4-.9.9-.9s.9.4.9.9z"/></g></svg>