<svg enable-background="new 0 0 16 16" viewBox="0 0 16 16" xmlns="http://www.w3.org/2000/svg"><g fill="#fff"><path d="m8 14.5c-.9 0-1.7-.7-1.7-1.7v-9.6c0-.9.7-1.7 1.7-1.7.4 0 .8-.3.8-.8s-.4-.7-.8-.7c-1 0-1.8.4-2.4 1.1-.6-.7-1.5-1.1-2.4-1.1-.4 0-.8.3-.8.8 0 .4.3.8.8.8.9 0 1.7.7 1.7 1.7v9.7c0 .9-.7 1.7-1.7 1.7-.4 0-.8.3-.8.8s.4.5.8.5c1 0 1.8-.4 2.4-1.1.6.7 1.4 1.1 2.4 1.1.4 0 .8-.3.8-.8 0-.4-.4-.7-.8-.7z"/><path d="m14.4 3.2h-5.6c-.4 0-.8.4-.8.8s.3.8.8.8h5.7l-.1 6.5h-5.6c-.4 0-.8.3-.8.7s.3.8.8.8h5.6c.9 0 1.6-.7 1.6-1.6v-6.4c0-.9-.7-1.6-1.6-1.6z"/><path d="m3.1 12c0-.4-.3-.8-.8-.8l-.9-.1.1-6.5h.8c.4 0 .8-.3.8-.8 0-.4-.3-.8-.8-.8h-.7c-.9.2-1.6.9-1.6 1.8v6.4c0 .9.7 1.6 1.6 1.6h.8c.4 0 .7-.4.7-.8z"/><path d="m12.8 8c0-.4-.3-.8-.8-.8-.4 0-.8.3-.8.8s.3.8.8.8.8-.4.8-.8z"/><path d="m8.8 8.8c.4 0 .8-.3.8-.8s-.4-.8-.8-.8-.7.4-.7.8.3.8.7.8z"/></g></svg>