<svg enable-background="new 0 0 16 16" viewBox="0 0 16 16" xmlns="http://www.w3.org/2000/svg"><g fill="#fff"><path d="m12.4 5.8h-1.5c-.4 0-.7.3-.7.7s.3.7.7.7h1.5c.4 0 .7-.3.7-.7s-.3-.7-.7-.7z"/><path d="m12.4 8.7h-1.5c-.4 0-.7.3-.7.7s.3.7.7.7h1.5c.4 0 .7-.3.7-.7s-.3-.7-.7-.7z"/><path d="m7.6 8.6c.3-.4.4-.8.4-1.3 0-1.2-1-2.2-2.2-2.2s-2.2 1-2.2 2.2c0 .5.2.9.4 1.3-.5.3-.8.8-1 1.4-.1.4.1.8.5 1h.2c.3 0 .6-.2.7-.5.3-.7 1.1-1.1 1.8-.9.5.1.8.4 1 .8.1.4.6.6 1 .5s.6-.6.5-1c-.3-.5-.7-1-1.1-1.3zm-1.8-2c.4 0 .7.3.7.7s-.3.7-.7.7-.7-.3-.7-.7.3-.7.7-.7z"/><path d="m13.8 2.2h-11.6c-1.2 0-2.2 1-2.2 2.2v7.3c0 1.2 1 2.2 2.2 2.2h11.6c1.2 0 2.2-1 2.2-2.2v-7.3c0-1.2-1-2.2-2.2-2.2zm.7 9.4c0 .4-.3.7-.7.7h-11.6c-.4 0-.7-.3-.7-.7v-7.2c0-.4.3-.7.7-.7h11.6c.4 0 .7.3.7.7z"/></g></svg>