<svg enable-background="new 0 0 16 16" viewBox="0 0 16 16" xmlns="http://www.w3.org/2000/svg"><path d="m14.5 2.9h-2.2v-1.4c0-.4-.3-.7-.7-.7s-.7.3-.7.7v1.4h-5.8v-1.4c0-.4-.3-.7-.7-.7-.4-.1-.8.3-.8.7v1.4h-2.1c-.8 0-1.5.7-1.5 1.5v4.4c0 .8.7 1.5 1.5 1.5h2.2v4.3c0 .4.3.7.7.7s.7-.3.7-.7v-4.3h5.8v4.3c0 .4.3.7.7.7s.7-.3.7-.7v-4.3h2.2c.8 0 1.5-.7 1.5-1.5v-4.4c0-.8-.7-1.5-1.5-1.5zm-2.8 5.8c-.1 0-.1 0 0 0h-.4l-4.4-4.3h2.2l4.3 4.3zm-4.8 0-4.3-4.3h1.8.4l4.3 4.3zm7.6-1-3.3-3.3h.3.1.1 2.8zm-13-2.2 3.3 3.3h-.3-.1-.1-2.8z" fill="#fff"/></svg>