<svg enable-background="new 0 0 16 16" viewBox="0 0 16 16" xmlns="http://www.w3.org/2000/svg"><g fill="#fff"><path d="m4.4 7.5h7.3c.4 0 .7-.3.7-.7v-3.6c0-.4-.3-.7-.7-.7h-7.3c-.4-.1-.8.3-.8.7v3.6c0 .4.4.7.8.7zm.7-3.6h5.8v2.2h-5.8z"/><path d="m13.4 0h-10.8c-.8 0-1.4.6-1.4 1.3v13.3c0 .7.6 1.3 1.3 1.3h10.9c.7 0 1.3-.6 1.3-1.3v-13.3c.1-.7-.5-1.3-1.3-1.3zm-.1 14.5h-10.6v-13h10.6z"/><circle cx="5" cy="9.5" r=".9"/><circle cx="8" cy="9.5" r=".9"/><circle cx="11" cy="9.5" r=".9"/><circle cx="5" cy="12.5" r=".9"/><circle cx="8" cy="12.5" r=".9"/><circle cx="11" cy="12.5" r=".9"/></g></svg>