<svg enable-background="new 0 0 16 16" viewBox="0 0 16 16" xmlns="http://www.w3.org/2000/svg"><g fill="#fff"><path d="m8 10c.4 0 .7-.3.7-.7v-3c0-.4-.3-.7-.7-.7s-.7.3-.7.7v2.9c0 .4.3.8.7.8z"/><path d="m15.7 11.8-5.9-9.8c-.6-1-1.9-1.3-2.9-.7-.3.2-.5.4-.7.7l-5.9 9.8c-.6 1-.2 2.3.8 2.9.3.2.6.3 1 .3h11.8c.6 0 1.1-.2 1.5-.6s.6-.9.6-1.5c0-.4-.1-.8-.3-1.1zm-1.8 1.7h-11.8c-.1 0-.2 0-.3-.1-.3-.2-.4-.6-.2-.9l5.9-9.8c.1-.1.1-.2.2-.2.3-.1.7 0 .8.3l5.9 9.8c.1.1.1.2.1.3 0 .3-.3.6-.6.6z"/><path d="m8 10.6c-.4 0-.8.3-.8.7s.3.7.8.7c.4 0 .7-.3.7-.7.1-.3-.3-.7-.7-.7z"/></g></svg>