<svg enable-background="new 0 0 16 16" viewBox="0 0 16 16" xmlns="http://www.w3.org/2000/svg"><path d="m11.5 5.1c-1.4-1.1-2.3-2.7-2.8-4.5 0-.3-.2-.5-.5-.6-.2 0-.5 0-.7.2-1.4 1.1-2.2 2.4-2.2 3.6 0 .9.4 1.6.7 2.2.3.5.5 1 .5 1.6s-.5 1.2-1.2 1.2c-.6 0-1.2-.5-1.2-1.2.1-.3-.1-.6-.4-.7s-.7 0-.9.3c-.6.8-.9 1.7-.9 2.7 0 3.4 2.7 6.1 6.1 6.1s6.1-2.7 6.1-6.1c0-1.7-.9-3.4-2.6-4.8zm-3.5 9.4c-2.5 0-4.6-2.1-4.6-4.6 0-.1 0-.3 0-.4.5.5 1.2.8 1.9.8 1.5 0 2.7-1.2 2.7-2.7 0-.9-.4-1.6-.7-2.2-.3-.5-.5-1-.5-1.6 0-.5.3-1.1.8-1.7.6 1.7 1.6 3.1 2.9 4.2 1.4 1.1 2 2.3 2 3.6.1 2.5-2 4.6-4.5 4.6z" fill="#fff"/></svg>