<svg enable-background="new 0 0 16 16" viewBox="0 0 16 16" xmlns="http://www.w3.org/2000/svg"><g fill="#fff"><path d="m7 6.3c0 .4.3.7.7.7h7.6c.4 0 .7-.3.7-.7s-.3-.7-.7-.7h-7.6c-.4-.1-.7.2-.7.7z"/><path d="m15.3 7.8h-7.6c-.4 0-.7.4-.7.8s.3.7.7.7h7.6c.4 0 .7-.3.7-.7s-.3-.8-.7-.8z"/><path d="m15.3 10.2h-11c-.4 0-.7.3-.7.7s.3.7.7.7h11c.4 0 .7-.3.7-.7s-.3-.7-.7-.7z"/><path d="m15.3 12.5h-11c-.4 0-.7.3-.7.7s.3.7.7.7h11c.4 0 .7-.3.7-.7s-.3-.7-.7-.7z"/><path d="m5.4 9.3c.4 0 .7-.3.7-.7s-.3-.8-.7-.8h-.4v-4.3h2v.4c0 .4.3.7.7.7s.7-.3.7-.7v-1.1c0-.4-.3-.8-.7-.8h-7c-.4 0-.7.4-.7.8v1.2c0 .4.3.7.7.7s.7-.3.7-.7v-.5h2v4.3h-.3c-.4 0-.7.3-.7.7s.3.7.7.7h2.3z"/></g></svg>