<svg enable-background="new 0 0 16 16" viewBox="0 0 16 16" xmlns="http://www.w3.org/2000/svg"><g fill="#fff"><path d="m5.8 7.3v5.1c0 .4.3.7.7.7s.7-.3.7-.7v-5.1c0-.4-.3-.7-.7-.7-.4-.1-.7.3-.7.7z"/><path d="m1.8 5.1h12.4c.5 0 1-.4 1.1-.9s-.1-1-.6-1.2l-5.7-2.8c-.6-.3-1.4-.3-2 0l-5.7 2.8c-.4.2-.7.8-.6 1.3.2.5.6.8 1.1.8zm5.9-3.5c.2-.1.4-.1.6 0l4.2 2.1h-9z"/><path d="m8.7 7.3v5.1c0 .4.3.7.7.7s.7-.3.7-.7v-5.1c0-.4-.3-.7-.7-.7-.4-.1-.7.3-.7.7z"/><path d="m11.6 7.3v5.1c0 .4.3.7.7.7s.7-.3.7-.7v-5.1c0-.4-.3-.7-.7-.7-.4-.1-.7.3-.7.7z"/><path d="m14.5 14.5h-13c-.4 0-.7.3-.7.7s.3.7.7.7h13.1c.4 0 .7-.3.7-.7s-.4-.7-.8-.7z"/><path d="m2.9 7.3v5.1c0 .4.3.7.7.7s.7-.3.7-.7v-5.1c0-.4-.3-.7-.7-.7-.4-.1-.7.3-.7.7z"/></g></svg>