<svg enable-background="new 0 0 16 16" viewBox="0 0 16 16" xmlns="http://www.w3.org/2000/svg"><g fill="#fff"><path d="m10.1 10.6c-.4 0-.8.3-.8.8v1.7c0 .5-.4.9-.9.9h-6c-.5 0-.9-.4-.9-.9v-10.2c0-.5.4-.9.9-.9h6c.5 0 .9.4.9.9v1.7c0 .4.3.8.8.8.4 0 .8-.3.8-.8v-1.7c0-1.4-1.1-2.5-2.5-2.5h-6c-1.3 0-2.4 1.1-2.4 2.5v10.2c0 1.4 1.1 2.5 2.5 2.5h6c1.4 0 2.5-1.1 2.5-2.5v-1.7c-.1-.4-.5-.8-.9-.8z"/><path d="m15.2 7.2h-9.2l1.3-1.2c.3-.3.3-.8 0-1.1s-.8-.3-1.1 0l-2.6 2.6s-.1.1-.1.2v.1.2.1.3c0 .1.1.2.1.2l2.6 2.6c.1.1.3.2.5.2s.4-.1.5-.2c.3-.3.3-.8 0-1.1l-1.2-1.3h9.2c.5 0 .8-.4.8-.8s-.3-.8-.8-.8z"/></g></svg>