<svg enable-background="new 0 0 16 16" viewBox="0 0 16 16" xmlns="http://www.w3.org/2000/svg"><g fill="#fff"><path d="m5.1 13c-.8 0-1.5.7-1.5 1.5s.7 1.5 1.5 1.5 1.5-.7 1.5-1.5c-.1-.8-.7-1.5-1.5-1.5z"/><path d="m13 13c-.8 0-1.5.7-1.5 1.5s.7 1.5 1.5 1.5 1.5-.7 1.5-1.5-.7-1.5-1.5-1.5z"/><path d="m15.8 3.9c-.1-.2-.4-.3-.6-.3h-11.6l-.6-3c-.1-.4-.5-.6-.8-.6h-1.5c-.4 0-.7.3-.7.8 0 .4.3.8.7.8h.8l.6 3v.1l1.1 5.4c.2 1 1.1 1.7 2.1 1.7h7.1c1 0 1.9-.7 2.1-1.7l1.5-5.6c0-.2 0-.4-.2-.6zm-2.5 5.7c-.1.3-.4.6-.7.6h-7c-.3 0-.6-.2-.7-.6l-1-4.5h10.4z"/></g></svg>