<svg enable-background="new 0 0 16 16" viewBox="0 0 16 16" xmlns="http://www.w3.org/2000/svg"><g fill="#fff"><path d="m8 7.7c.5 0 .9-.4.9-.9s-.4-.9-.9-.9-.9.4-.9.9.4.9.9.9z"/><path d="m4.7 7.7c.5 0 .9-.4.9-.9s-.4-.9-.9-.9-.9.4-.9.9.4.9.9.9z"/><path d="m11.3 7.7c.5 0 .9-.4.9-.9s-.4-.9-.9-.9-.9.4-.9.9.4.9.9.9z"/><path d="m14.7.6h-13.4c-.7 0-1.3.6-1.3 1.3v12.1c0 .3.1.6.3.9.3.3.6.5 1 .5.3 0 .6-.1.9-.3l2.4-2.1h10c.7 0 1.3-.6 1.3-1.3v-9.8c.1-.7-.5-1.3-1.2-1.3zm-.2 10.9h-10.1c-.2 0-.3.1-.5.2l-2.4 2.1v-11.7h13.1v9.4z"/></g></svg>