<svg enable-background="new 0 0 16 16" viewBox="0 0 16 16" xmlns="http://www.w3.org/2000/svg"><g fill="#fff"><path d="m14.7 1.2c-1.7-1.7-4.4-1.7-6.1 0l-1.3 1.3c-.3.3-.3.8 0 1.1s.8.3 1.1 0l1.2-1.2c1.1-1.1 2.9-1.1 4 0s1.2 2.9.1 4.1l-2.2 2.2c-.1.1-.2.2-.3.3-.6.3-1.4.5-2.2.4-.7-.1-1.4-.5-1.9-1.1-.2-.3-.7-.4-1-.2s-.4.7-.2 1c.7.9 1.7 1.6 2.9 1.7h.6c.9 0 1.9-.3 2.6-.9.2-.1.3-.3.5-.4l2.2-2.2c1.8-1.6 1.7-4.4 0-6.1z"/><path d="m7.6 12.4-1.2 1.2c-1.1 1.1-2.9 1.1-4 0s-1.2-2.9-.1-4.1l2.2-2.2c.1-.1.2-.2.3-.3 1.3-1 3.1-.7 4.1.6.2.3.7.4 1 .2s.4-.7.2-1c-1.5-1.9-4.3-2.3-6.2-.9-.2.2-.3.3-.5.4l-2.2 2.2c-1.7 1.7-1.6 4.5.1 6.2.9.8 2 1.2 3.1 1.2s2.2-.4 3.1-1.2l1.2-1.2c.3-.3.3-.8 0-1.1-.3-.2-.8-.2-1.1 0z"/></g></svg>