<svg enable-background="new 0 0 16 16" viewBox="0 0 16 16" xmlns="http://www.w3.org/2000/svg"><g fill="#fff"><path d="m14.4 5.9c-.1 0-.1 0-.2-.1-.3-.1-.4-.5-.2-.8.5-.9.4-1.9-.3-2.6-.8-.8-1.8-.9-2.7-.4-.1 0-.1.1-.2.1-.3.1-.7-.1-.8-.5-.2-.9-1-1.6-2-1.6s-1.8.7-2.1 1.6c0 .2-.2.4-.4.4-.1.2-.3.1-.5 0-.9-.5-1.9-.4-2.7.3-.7.8-.8 1.8-.3 2.7 0 .1.1.1.1.2.1.3-.1.6-.5.7-.9.3-1.6 1.1-1.6 2.1s.7 1.8 1.6 2.1c.1 0 .1 0 .2.1.3.1.4.5.2.8-.5.9-.4 1.9.3 2.6.8.8 1.8.9 2.7.4.1 0 .1-.1.2-.1.3-.1.7.1.8.5.2.9 1 1.6 2 1.6s1.8-.7 2.1-1.6c0-.1 0-.1.1-.2.2-.3.6-.4.9-.2.9.5 1.9.4 2.6-.3s.8-1.8.3-2.6c0-.1-.1-.1-.1-.2-.1-.3.1-.7.5-.8.9-.3 1.6-1.1 1.6-2.1s-.7-1.8-1.6-2.1zm-.4 2.7c-.6.1-1 .5-1.3 1s-.4 1.1-.3 1.6c.1.2.1.4.3.6.2.4 0 .7-.1.8s-.4.3-.8.1c-1-.6-2.3-.3-2.9.7-.1.2-.2.4-.3.6-.1.4-.5.5-.6.5s-.5 0-.6-.5c-.1-.6-.5-1-1-1.3-.3-.2-.7-.3-1.1-.3-.2 0-.3 0-.5.1s-.4.1-.6.3c-.4.2-.7 0-.8-.1s-.3-.4-.1-.8c.6-1 .3-2.3-.7-2.9-.2-.2-.4-.3-.6-.4-.5-.1-.5-.5-.5-.6s0-.5.5-.6c.6-.1 1-.5 1.3-1s.4-1.1.3-1.6c-.1-.2-.2-.4-.3-.6-.2-.4 0-.7.1-.8s.4-.3.8-.1c.6.4 1.3.4 1.9.1.7-.2 1.1-.7 1.3-1.4.1-.5.5-.5.6-.5s.5 0 .6.5c.1.6.5 1 1 1.3s1.1.4 1.6.3c.2-.1.4-.1.6-.3.4-.2.7 0 .8.1s.3.4.1.8c-.6 1-.3 2.3.7 2.9l.6.3c.4.1.5.5.5.6s0 .5-.5.6z"/><path d="m8 4.8c-1.7 0-3.2 1.5-3.2 3.2s1.4 3.2 3.2 3.2 3.2-1.4 3.2-3.2-1.5-3.2-3.2-3.2zm0 4.9c-.9 0-1.7-.8-1.7-1.7s.7-1.7 1.7-1.7c.9 0 1.7.7 1.7 1.7 0 .9-.8 1.7-1.7 1.7z"/></g></svg>