<svg enable-background="new 0 0 16 16" viewBox="0 0 16 16" xmlns="http://www.w3.org/2000/svg"><path d="m16 8c0-4.4-3.6-8-8-8s-8 3.6-8 8c0 2.3 1 4.4 2.6 5.9 0 0 .1.1.1.1 1.4 1.2 3.2 2 5.3 2s3.9-.8 5.3-2.1c0 0 .1 0 .1-.1 1.6-1.4 2.6-3.5 2.6-5.8zm-14.5 0c0-3.6 2.9-6.5 6.5-6.5s6.5 2.9 6.5 6.5c0 1.6-.6 3.1-1.5 4.2-.6-.8-1.3-1.4-2.2-1.9-.1-.1-.2-.1-.3-.1.8-.7 1.3-1.7 1.3-2.8 0-2.1-1.7-3.8-3.8-3.8s-3.8 1.7-3.8 3.8c0 1.1.5 2.1 1.3 2.8-1 .4-1.9 1.1-2.5 2-.9-1.1-1.5-2.6-1.5-4.2zm6.5 1.7c-1.3 0-2.3-1-2.3-2.3s1-2.3 2.3-2.3 2.3 1 2.3 2.3-1 2.3-2.3 2.3zm-3.9 3.5c.6-.9 1.4-1.5 2.4-1.8 1.2-.4 2.5-.3 3.6.3.7.4 1.3.9 1.8 1.6-1.1.7-2.4 1.2-3.9 1.2s-2.8-.5-3.9-1.3z" fill="#fff"/></svg>