<svg enable-background="new 0 0 16 16" viewBox="0 0 16 16" xmlns="http://www.w3.org/2000/svg"><path d="m15.8 9.6-.1-.2v-.1l-3-6.8c0-.1-.1-.2-.2-.2-.9-.9-2.5-.9-3.4 0-.1.2-.2.4-.2.6v1.6h-1.8v-1.6c0-.2-.1-.4-.2-.5-.9-.9-2.5-.9-3.4 0-.1 0-.2.1-.2.2l-3 6.8v.1.1.1c-.2.3-.3.7-.3 1.1 0 1.9 1.6 3.5 3.5 3.5s3.5-1.6 3.5-3.5v-4.9h1.9v4.9c0 1.9 1.6 3.5 3.5 3.5s3.5-1.6 3.5-3.5c.1-.4 0-.8-.1-1.2zm-11.2-6.3c.3-.2.7-.3 1-.1v4.7c-.6-.4-1.3-.6-2.1-.6-.3 0-.5 0-.7.1zm-1.1 9.6c-1.1 0-2.1-.9-2.1-2.1 0-.3.1-.5.1-.8v-.1c.3-.7 1-1.2 1.9-1.2 1.1 0 2.1.9 2.1 2.1.1 1.1-.8 2.1-2 2.1zm6.9-9.6c.3-.2.7-.1 1 .1l1.8 4c-.2 0-.5-.1-.7-.1-.8 0-1.5.3-2.1.7zm2.1 9.6c-1.1 0-2.1-.9-2.1-2.1 0-1.1.9-2.1 2.1-2.1.8 0 1.5.5 1.9 1.2v.1c.1.2.1.5.1.8 0 1.1-.9 2.1-2 2.1z" fill="#fff"/></svg>