<svg enable-background="new 0 0 16 16" viewBox="0 0 16 16" xmlns="http://www.w3.org/2000/svg"><g fill="#fff"><path d="m6.9 7.3h-3.4c-.4 0-.7.3-.7.7s.3.7.7.7h3.4c.4 0 .7-.3.7-.7s-.3-.7-.7-.7z"/><path d="m6.9 5h-3.4c-.4 0-.7.4-.7.8s.3.7.7.7h3.4c.4 0 .7-.3.7-.7s-.3-.8-.7-.8z"/><path d="m16 7.2c0-1-.4-2-1.1-2.7v-2.1c0-.7-.6-1.3-1.3-1.3h-12.3c-.7 0-1.3.6-1.3 1.3v8.9c0 .7.6 1.3 1.3 1.3h8.2v1.5c0 .3.1.5.4.6.2.1.5.1.7 0l1.6-.9 1.6.9c.1.1.2.1.4.1.1 0 .3 0 .4-.1.2-.1.4-.4.4-.6v-4.2c.6-.7 1-1.7 1-2.7zm-6.1 0c0-1.3 1-2.3 2.3-2.3s2.3 1 2.3 2.3-1 2.3-2.3 2.3-2.3-1-2.3-2.3zm-8.4 4v-8.6h11.9v1c-.4-.1-.8-.2-1.2-.2-2.1 0-3.8 1.7-3.8 3.8 0 1.1.4 2 1.1 2.7v1.3zm11.1 1.2c-.2-.1-.5-.1-.7 0l-.9.5v-2.1c.4.1.8.2 1.2.2s.8-.1 1.2-.2v2.1z"/></g></svg>