<svg enable-background="new 0 0 16 16" viewBox="0 0 16 16" xmlns="http://www.w3.org/2000/svg"><path d="m15.7 7.3c.1-.2.3-.4.3-.7s0-.6-.2-.8-.4-.4-.7-.4l-3.7-.5c-.3 0-.5-.2-.6-.4l-1.8-3.5c-.1-.3-.3-.4-.5-.5-.3-.2-.6-.2-.9-.1-.2.1-.5.3-.6.6l-1.7 3.4c-.1.2-.3.4-.6.4l-3.7.5c-.2 0-.5.2-.7.3-.2.3-.3.6-.3.9s.1.6.3.8l2.7 2.6c.2.2.3.4.2.7l-.6 3.7c0 .2 0 .5.1.7.2.4.6.6 1 .6.2 0 .4 0 .5-.1l3.3-1.8c.2-.1.5-.1.7 0l3.3 1.8c.2.1.5.2.7.1.3-.1.6-.2.7-.5.2-.2.2-.5.2-.8l-.6-3.7c0-.3 0-.5.2-.7zm-3.8 1.5c-.5.5-.8 1.3-.7 2l.5 3-2.7-1.4c-.3-.2-.7-.3-1.1-.3s-.7.1-1.1.3l-2.7 1.4.5-3c.1-.7-.1-1.5-.7-2l-2-2.1 3-.4c.8-.1 1.4-.6 1.8-1.3l1.3-2.7 1.3 2.7c.3.7 1 1.1 1.7 1.2l3 .4z" fill="#fff"/></svg>