<svg enable-background="new 0 0 16 16" viewBox="0 0 16 16" xmlns="http://www.w3.org/2000/svg"><g fill="#fff"><path d="m13.1 12.7c-.4 0-.7.3-.7.7v.4c0 .4-.3.7-.7.7h-8.8c-.4 0-.7-.3-.7-.7v-10.2c0-.4.3-.7.7-.7h.7c0 .8.7 1.5 1.5 1.5h4.4c.8 0 1.5-.6 1.5-1.5h.7c.2 0 .5.1.6.4.1.2.4.4.6.4.1 0 .3 0 .4-.1.4-.2.5-.7.3-1-.4-.7-1.1-1.1-1.9-1.1h-.7c0-.8-.7-1.5-1.5-1.5h-4.4c-.8 0-1.5.6-1.5 1.5h-.7c-1.2 0-2.2 1-2.2 2.2v10.2c0 1.2 1 2.2 2.2 2.2h8.7c1.2 0 2.2-1 2.2-2.2v-.4c0-.5-.3-.8-.7-.8zm-8-11.2h4.3v.7.1.1.6h-4.3z"/><path d="m4.4 11.6c-.4 0-.7.3-.7.7s.3.7.7.7h.7c.4 0 .7-.3.7-.7s-.3-.7-.7-.7z"/><path d="m14.6 5.7c-.9-.9-2.4-.9-3.2 0l-2.9 3c-.3.2-.5.5-.6.9l-.6 2.1c-.1.3-.1.6.1.8.1.3.4.5.6.6h.3.3l2.1-.6c.4-.1.7-.3.9-.6l3-2.9c.4-.4.7-1 .7-1.6s-.3-1.2-.7-1.7zm-1.1 2.2-2.9 2.9c-.1.1-.2.1-.3.2l-1.4.4.4-1.4c0-.1.1-.2.2-.3l2.9-2.9c.1-.1.3-.2.6-.2.2 0 .4.1.6.2.2.2.2.3.2.6 0 .2-.1.4-.3.5z"/></g></svg>