<svg enable-background="new 0 0 16 16" viewBox="0 0 16 16" xmlns="http://www.w3.org/2000/svg"><path d="m11.9 10.1c-.8 0-1.5.3-2 .8l-3-1.9c.1-.4.2-.7.2-1s-.1-.6-.2-.9l3-1.9c.5.5 1.2.8 2 .8 1.6 0 3-1.3 3-3 0-1.6-1.3-3-3-3s-3 1.3-3 3c0 .3.1.6.2.9l-3 1.9c-.5-.5-1.2-.8-2-.8-1.6 0-3 1.3-3 3s1.3 3 3 3c.8 0 1.5-.3 2-.8l3 1.9c-.1.3-.2.6-.2.9 0 1.6 1.3 3 3 3 1.6 0 3-1.3 3-3 0-1.6-1.4-2.9-3-2.9zm0-8.6c.8 0 1.5.7 1.5 1.5s-.7 1.5-1.5 1.5-1.5-.7-1.5-1.5c0-.9.7-1.5 1.5-1.5zm-7.8 8c-.8 0-1.5-.7-1.5-1.5s.7-1.5 1.5-1.5 1.5.7 1.5 1.5-.7 1.5-1.5 1.5zm7.8 5c-.8 0-1.5-.7-1.5-1.5s.7-1.5 1.5-1.5 1.5.7 1.5 1.5-.7 1.5-1.5 1.5z" fill="#fff"/></svg>