<svg enable-background="new 0 0 16 16" viewBox="0 0 16 16" xmlns="http://www.w3.org/2000/svg"><path d="m15.79 9.643c-.009-.033-.007-.066-.021-.099l-.031-.071c-.015-.037-.032-.073-.049-.11l-2.97-6.757c-.036-.084-.089-.16-.153-.224-.94-.939-2.469-.938-3.409 0-.138.137-.215.323-.215.518v1.571h-1.885v-1.571c0-.194-.078-.381-.214-.52-.94-.939-2.469-.94-3.409 0-.065.065-.116.14-.153.224l-2.972 6.763c-.016.034-.031.068-.046.103l-.032.073c-.015.034-.013.07-.023.104-.126.362-.208.744-.208 1.148 0 1.946 1.583 3.529 3.529 3.529 1.945 0 3.528-1.583 3.528-3.529v-4.856h1.885v4.856c0 1.946 1.583 3.529 3.529 3.529s3.529-1.583 3.529-3.529c0-.405-.083-.789-.21-1.152zm-11.23-6.303c.298-.231.706-.257 1.029-.082v4.686c-.581-.421-1.289-.677-2.06-.677-.25 0-.494.028-.729.078zm-1.031 9.516c-1.136 0-2.061-.924-2.061-2.061 0-.268.055-.523.149-.758l.043-.098c.326-.709 1.038-1.205 1.869-1.205 1.133 0 2.054.919 2.06 2.051v.01c0 .001.001.002.001.003-.002 1.135-.926 2.058-2.061 2.058zm6.881-9.599c.324-.176.731-.149 1.031.083l1.759 4.005c-.236-.05-.479-.078-.729-.078-.771 0-1.48.256-2.061.677zm2.061 9.599c-1.136 0-2.061-.924-2.061-2.061s.924-2.061 2.061-2.061c.83 0 1.542.495 1.868 1.203l.045.102c.093.235.148.488.148.756 0 1.136-.925 2.061-2.061 2.061z" fill="#fff"/></svg>