<svg enable-background="new 0 0 16 16" viewBox="0 0 16 16" xmlns="http://www.w3.org/2000/svg"><g fill="#fff"><path d="m6.974 6.256c0 .407.33.736.736.736h7.554c.407 0 .736-.329.736-.735s-.329-.736-.735-.736h-7.555c-.406 0-.736.328-.736.735z"/><path d="m15.265 7.845h-7.555c-.407 0-.736.33-.736.736 0 .407.33.736.736.736h7.554c.407 0 .736-.329.736-.735s-.329-.736-.735-.737z"/><path d="m15.264 10.17h-11.042c-.407 0-.736.33-.736.736 0 .407.33.736.736.736h11.042c.407 0 .736-.33.736-.736s-.329-.736-.736-.736z"/><path d="m15.264 12.494h-11.042c-.407 0-.736.33-.736.736 0 .407.33.736.736.736h11.042c.407 0 .736-.329.736-.736s-.33-.736-.736-.736z"/><path d="m5.384 9.317c.406 0 .736-.329.736-.736s-.33-.736-.736-.736h-.426v-4.34h2.016v.427c0 .407.33.736.736.736s.735-.33.736-.735v-1.163c0-.407-.33-.736-.736-.736h-6.974c-.407 0-.736.33-.736.736v1.162c0 .406.328.736.735.736s.736-.33.736-.736v-.427h2.015v4.34h-.426c-.407 0-.736.33-.736.736 0 .407.33.736.736.736z"/></g></svg>