<svg enable-background="new 0 0 16 16" viewBox="0 0 16 16" xmlns="http://www.w3.org/2000/svg"><path d="m7.999 0c-4.146 0-7.394 1.919-7.394 4.369v3.631 3.631c0 2.45 3.248 4.369 7.394 4.369 4.147 0 7.395-1.919 7.395-4.369v-3.631-3.631c.001-2.45-3.248-4.369-7.395-4.369zm-5.92 7.009c1.338 1.055 3.469 1.729 5.92 1.729s4.581-.673 5.919-1.727v.989c0 1.369-2.431 2.894-5.92 2.894-3.488 0-5.919-1.525-5.919-2.894zm5.92-5.534c3.487 0 5.917 1.522 5.92 2.891 0 .001-.001.002-.001.003v.008c-.01 1.367-2.438 2.885-5.919 2.885-3.488 0-5.92-1.524-5.92-2.893s2.433-2.894 5.92-2.894zm0 13.05c-3.488 0-5.92-1.525-5.92-2.894v-.991c1.338 1.055 3.469 1.729 5.92 1.729s4.582-.674 5.92-1.728v.99c0 1.369-2.431 2.894-5.92 2.894z" fill="#fff"/></svg>