<svg enable-background="new 0 0 16 16" viewBox="0 0 16 16" xmlns="http://www.w3.org/2000/svg"><g fill="#fff"><path d="m7.908 9.296c.01-.418-.321-.767-.74-.777-.838-.021-1.582-.159-2.22-.376.656-.883 1.119-2.11 1.228-3.754h.973c.418 0 .758-.34.758-.759s-.34-.759-.759-.759h-5.963c-.419 0-.759.34-.759.759s.34.759.759.759h3.457c-.106 1.278-.478 2.302-1.072 3.011-.49-.424-.773-.944-.773-1.53 0-.419-.34-.759-.759-.759s-.759.34-.759.759c0 .932.384 1.757 1.046 2.426-.351.133-.725.223-1.14.223-.419 0-.759.34-.759.759s.34.758.759.758c.849 0 1.75-.229 2.551-.748.933.447 2.088.716 3.394.748.006 0 .013.001.019.001.41 0 .748-.328.759-.741z"/><path d="m15.509 14.933-3.408-7.667c-.244-.549-1.144-.548-1.387 0l-3.407 7.667c-.17.384.002.832.385 1.002.101.044.205.065.308.065.291 0 .568-.168.693-.45l.557-1.254h4.314l.557 1.254c.17.384.623.554 1.002.385.384-.171.556-.619.386-1.002zm-5.584-2.155 1.482-3.335 1.483 3.335z"/><path d="m3.708 1.866c.135.099.292.147.448.147.233 0 .463-.107.612-.31.248-.338.174-.813-.163-1.061l-.676-.495c-.337-.247-.812-.176-1.061.163-.247.338-.174.813.164 1.061z"/></g></svg>