<svg enable-background="new 0 0 16 16" viewBox="0 0 16 16" xmlns="http://www.w3.org/2000/svg"><g fill="#fff"><path d="m8 14.491c-.915 0-1.66-.745-1.66-1.661v-9.66c0-.916.745-1.661 1.66-1.661.417 0 .755-.337.755-.754s-.339-.755-.755-.755c-.973 0-1.833.45-2.415 1.141-.582-.691-1.443-1.141-2.415-1.141-.417 0-.755.337-.755.754s.338.755.755.755c.915 0 1.66.745 1.66 1.661v9.658c0 .916-.745 1.661-1.66 1.661-.417 0-.755.338-.755.755 0 .418.338.756.755.756.972 0 1.833-.449 2.415-1.141.582.691 1.442 1.141 2.415 1.141.417 0 .755-.337.755-.754-.001-.417-.339-.755-.755-.755z"/><path d="m14.44 3.22h-5.636c-.417 0-.755.338-.755.755s.338.755.755.755l5.686.049-.05 6.491h-5.636c-.417 0-.755.338-.755.755s.338.755.755.755h5.635c.86 0 1.56-.7 1.561-1.56v-6.44c0-.86-.7-1.56-1.56-1.56z"/><path d="m3.119 12.025c0-.417-.338-.755-.755-.755l-.855-.05.051-6.49h.805c.416 0 .755-.338.755-.755s-.338-.755-.755-.755h-.805c-.86 0-1.56.7-1.56 1.56v6.44c0 .86.7 1.56 1.56 1.56h.805c.416 0 .754-.338.754-.755z"/><path d="m12.787 8c0-.417-.338-.755-.755-.755h-.008c-.417 0-.751.338-.751.755s.342.755.759.755.755-.338.755-.755z"/><path d="m8.812 8.755c.417 0 .754-.338.754-.755s-.337-.755-.754-.755h-.008c-.417 0-.75.338-.75.755s.342.755.758.755z"/></g></svg>