<svg enable-background="new 0 0 16 16" viewBox="0 0 16 16" xmlns="http://www.w3.org/2000/svg"><path d="m14.683 15.71h-10.461c-.726 0-1.317-.591-1.317-1.317v-2.172c-.358.022-.719-.035-1.067-.16-.697-.249-1.255-.755-1.571-1.423-.316-.669-.353-1.421-.104-2.118s.755-1.255 1.424-1.571c.418-.197.872-.289 1.318-.263v-2.173c0-.726.591-1.317 1.317-1.317h2.462c-.017-.357.036-.719.16-1.067.249-.697.754-1.255 1.423-1.571.669-.317 1.422-.354 2.117-.105.697.249 1.255.754 1.572 1.423.198.419.286.871.264 1.321h2.464c.725-.001 1.316.59 1.316 1.316v3.101c0 .252-.129.486-.342.622-.214.135-.481.151-.708.043-.314-.148-.667-.166-.993-.049-.327.117-.588.354-.737.667-.306.647-.028 1.423.619 1.73.353.167.758.167 1.111 0 .228-.108.496-.091.708.043.213.135.342.37.342.622v3.101c0 .726-.591 1.317-1.317 1.317zm-10.307-1.471h10.153v-2.019c-.449.025-.901-.066-1.319-.264-1.38-.653-1.972-2.308-1.319-3.688.493-1.041 1.553-1.642 2.638-1.582v-2.02h-3.238c-.252 0-.486-.129-.622-.342-.135-.213-.151-.48-.043-.708.167-.353.167-.759 0-1.112-.148-.313-.41-.55-.737-.667-.326-.116-.679-.097-.993.051s-.551.41-.667.737c-.116.326-.099.679.05.992.108.228.092.495-.043.708s-.37.342-.622.342h-3.238v2.947c0 .252-.129.486-.342.622-.213.135-.48.151-.708.043-.351-.166-.757-.167-1.11 0-.314.148-.551.41-.667.736-.117.327-.1.679.049.993.148.314.41.55.736.667.327.117.679.101.993-.048.227-.109.495-.093.708.043.213.135.342.37.342.622v2.947z" fill="#fff"/></svg>