<svg enable-background="new 0 0 16 16" viewBox="0 0 16 16" xmlns="http://www.w3.org/2000/svg"><path d="m15.327 4.156c-.01-.026-.011-.053-.024-.078-.005-.009-.013-.013-.018-.021-.116-.219-.289-.407-.515-.531l-6.149-3.366c-.39-.214-.855-.213-1.242 0l-6.147 3.366c-.227.124-.4.313-.516.532-.005.008-.013.013-.017.021-.013.024-.013.049-.023.074-.069.158-.116.327-.116.506v6.685c.001.47.258.903.672 1.131l6.148 3.365c.194.107.407.16.62.16.214 0 .427-.053.62-.16l6.15-3.367c.413-.228.67-.662.67-1.132v-6.683c0-.177-.046-.344-.113-.502zm-7.327-2.663 5.248 2.873-5.248 2.873-5.248-2.872zm-5.973 4.148 5.24 2.869v5.595l-5.24-2.868zm6.707 8.464v-5.595l5.24-2.869v5.595z" fill="#fff"/></svg>