<svg enable-background="new 0 0 16 16" viewBox="0 0 16 16" xmlns="http://www.w3.org/2000/svg"><g fill="#fff"><path d="m14.11 1.612c-1.163-1.088-2.694-1.667-4.272-1.606-3.183.101-5.771 2.772-5.771 5.953-.002.602.087 1.194.263 1.765l-3.945 3.945c-.245.244-.385.584-.385.93v2.084c0 .726.59 1.316 1.316 1.316h2.325c.406 0 .735-.33.735-.735v-1.008h1.007c.407 0 .736-.33.736-.736v-1.008h1.008c.195 0 .382-.077.52-.215l.629-.628c.571.177 1.18.289 1.763.263 3.181 0 5.854-2.588 5.958-5.769.004-.131.004-.263 0-.394-.054-1.592-.723-3.069-1.887-4.157zm.417 4.5c-.079 2.397-2.092 4.347-4.489 4.347-.623-.006-1.144-.107-1.679-.322-.273-.11-.587-.048-.795.162l-.741.741h-1.438c-.407 0-.736.33-.736.736v1.008h-1.008c-.407 0-.736.33-.736.736v1.008h-1.434v-1.865l4.228-4.227c.209-.208.272-.522.162-.795-.216-.535-.324-1.1-.322-1.68 0-2.397 1.949-4.409 4.348-4.488 1.188-.033 2.343.39 3.22 1.21.876.82 1.381 1.932 1.42 3.132.004.099.004.198 0 .297z"/><path d="m11.485 3.642c-.482 0-.872.39-.872.872s.39.872.872.872.872-.39.872-.872-.39-.872-.872-.872z"/></g></svg>