<svg enable-background="new 0 0 16 16" viewBox="0 0 16 16" xmlns="http://www.w3.org/2000/svg"><g fill="#fff"><path d="m.742 8.742h14.516c.41 0 .742-.333.742-.742s-.332-.742-.743-.742h-14.515c-.41 0-.742.332-.742.742s.332.742.742.742z"/><path d="m.742 3.464h14.516c.41 0 .741-.332.741-.742s-.332-.742-.742-.742h-14.515c-.41-.001-.742.332-.742.741s.332.743.742.743z"/><path d="m15.257 12.536h-14.515c-.41 0-.742.331-.742.742 0 .41.332.743.742.743h14.516c.41 0 .741-.333.741-.743 0-.411-.332-.742-.742-.742z"/></g></svg>