<svg enable-background="new 0 0 16 16" viewBox="0 0 16 16" xmlns="http://www.w3.org/2000/svg"><g fill="#fff"><path d="m.422 8.23 7.237 3.619c.107.053.224.08.341.08s.234-.027.342-.08l7.236-3.618c.259-.129.422-.393.422-.683s-.163-.554-.423-.683l-2.714-1.357c-.377-.189-.835-.035-1.024.341-.189.377-.036.835.342 1.024l1.349.674-5.53 2.764-5.53-2.763 1.349-.675c.377-.189.529-.647.341-1.024-.189-.377-.646-.528-1.024-.341l-2.714 1.357c-.259.129-.422.394-.422.683s.164.553.422.682z"/><path d="m14.895 10.482-6.895 3.447-6.895-3.447c-.377-.188-.835-.036-1.024.342-.189.377-.036.835.341 1.024l7.237 3.618c.107.053.224.08.341.08s.234-.027.342-.08l7.236-3.618c.378-.189.531-.647.342-1.024-.19-.378-.647-.531-1.025-.342z"/><path d="m5.826 4.469 1.411-1.411v4.49c0 .421.342.763.763.763s.763-.342.763-.763v-4.49l1.411 1.411c.149.149.344.224.54.224s.39-.075.539-.225c.298-.298.298-.781 0-1.079l-2.715-2.713c-.01-.01-.024-.014-.035-.023-.063-.057-.132-.108-.211-.141-.187-.078-.398-.078-.586 0-.055.024-.099.063-.147.098-.033.024-.07.037-.099.066l-2.713 2.714c-.298.298-.298.781 0 1.079s.781.298 1.079 0z"/></g></svg>