<svg enable-background="new 0 0 16 16" viewBox="0 0 16 16" xmlns="http://www.w3.org/2000/svg"><g fill="#fff"><path d="m.738 2.99h13.314c.408 0 .739-.33.739-.738s-.331-.738-.738-.738h-13.315c-.408-.001-.738.33-.738.737 0 .408.33.739.738.739z"/><path d="m.738 7.831h13.314c.408 0 .738-.33.739-.738 0-.408-.331-.738-.738-.738h-13.315c-.408-.001-.738.33-.738.737 0 .408.33.739.738.739z"/><path d="m8.605 11.196h-7.867c-.408 0-.738.331-.738.739 0 .407.33.737.738.737h7.867c.407 0 .738-.33.738-.737 0-.409-.331-.739-.738-.739z"/><path d="m15.262 11.195h-1.078v-1.077c0-.408-.33-.738-.738-.738s-.738.331-.738.738v1.077h-1.077c-.408 0-.738.331-.738.738 0 .408.331.738.738.738h1.077v1.077c0 .408.331.738.738.738.408 0 .738-.33.738-.738v-1.077h1.078c.408 0 .738-.33.738-.738 0-.407-.331-.738-.738-.738z"/></g></svg>