<svg enable-background="new 0 0 16 16" viewBox="0 0 16 16" xmlns="http://www.w3.org/2000/svg"><g fill="#fff"><path d="m.422 8.23 7.237 3.619c.107.053.224.08.341.08s.234-.027.342-.08l7.236-3.618c.259-.129.422-.393.422-.683s-.163-.554-.422-.683l-1.81-.905c-.377-.188-.835-.035-1.024.341-.189.377-.036.835.342 1.024l.444.222-5.53 2.765-5.53-2.764.444-.223c.377-.189.529-.647.341-1.024-.188-.376-.648-.528-1.024-.341l-1.809.905c-.259.129-.422.394-.422.683s.164.553.422.682z"/><path d="m14.895 10.483-6.895 3.447-6.895-3.447c-.377-.188-.835-.036-1.024.342-.189.377-.036.835.341 1.024l7.237 3.618c.107.053.224.08.341.08s.234-.027.342-.08l7.236-3.618c.378-.189.531-.647.342-1.024-.19-.378-.647-.531-1.025-.342z"/><path d="m7.46 8.087c.002.003.006.004.009.006.068.066.147.121.236.158.093.039.193.06.295.06s.201-.021.293-.059c.091-.038.172-.093.241-.161.002-.002.004-.002.006-.004l2.713-2.714c.298-.298.298-.781 0-1.079s-.781-.298-1.079 0l-1.412 1.411v-4.489c0-.421-.342-.763-.763-.763s-.763.342-.763.763v4.489l-1.41-1.411c-.298-.298-.781-.298-1.079 0s-.298.781 0 1.079z"/></g></svg>