<svg enable-background="new 0 0 16 16" viewBox="0 0 16 16" xmlns="http://www.w3.org/2000/svg"><g fill="#fff"><path d="m14.79 4.975c0-.205-.084-.39-.218-.523l-4.235-4.234c-.068-.068-.149-.123-.239-.161-.089-.037-.185-.057-.284-.057h-7.262c-.741 0-1.342.603-1.342 1.343v13.314c0 .741.602 1.343 1.342 1.343h10.893c.741 0 1.344-.602 1.343-1.343v-9.672c.001-.004.002-.007.002-.01zm-4.238-2.456 1.719 1.718h-1.719zm-7.868 12.006v-13.05h6.392v3.498c0 .408.331.738.738.738h3.499v8.814z"/><path d="m9.814 9.077h-1.078v-1.077c0-.407-.329-.738-.737-.738s-.737.331-.737.738v1.077h-1.078c-.408 0-.738.331-.738.738 0 .408.331.738.738.738h1.078v1.078c0 .408.331.738.738.738s.737-.331.737-.738v-1.078h1.078c.407 0 .737-.331.738-.738-.001-.408-.332-.738-.739-.738z"/></g></svg>