<svg enable-background="new 0 0 16 16" viewBox="0 0 16 16" xmlns="http://www.w3.org/2000/svg"><g fill="#fff"><path d="m13.802 3.263h-5.751c-.237 0-.456-.119-.591-.324l-.583-.862c-.412-.627-1.087-.987-1.851-.988h-2.828c-1.212 0-2.198.986-2.198 2.197v2.9c0 .413.334.748.747.748s.748-.335.748-.748v-2.9c0-.388.315-.703.703-.703h2.836c.208-.005.461.115.598.323l.583.864c.408.619 1.094.989 1.836.989h5.752c.387 0 .702.315.702.703v7.252c0 .387-.314.702-.702.702h-11.604c-.388 0-.703-.314-.703-.702v-.725c0-.413-.335-.748-.748-.748s-.748.335-.748.748v.725c0 1.213.986 2.198 2.198 2.198h11.604c1.213 0 2.198-.985 2.198-2.198v-7.253c0-1.212-.985-2.198-2.198-2.198z"/><path d="m0 9.088c0 .412.335.748.748.748h5.446l-.898.898c-.292.293-.292.766 0 1.058.146.146.338.219.529.219s.382-.073.529-.22l2.173-2.173c.07-.07.126-.153.164-.246.033-.079.046-.163.05-.248 0-.013.007-.024.007-.036 0 0 0 0 0-.001 0-.098-.02-.195-.058-.287-.024-.058-.065-.105-.103-.155-.021-.028-.032-.062-.058-.088l-2.175-2.174c-.293-.292-.766-.292-1.058 0-.292.293-.292.766 0 1.058l.9.899h-5.448c-.413 0-.748.334-.748.748z"/></g></svg>