<svg enable-background="new 0 0 16 16" opacity=".25" viewBox="0 0 16 16" xmlns="http://www.w3.org/2000/svg"><g fill="#6b7a8a"><path d="m15.94 7.705c-.1-.21-2.33-5.11-7.94-5.11s-7.85 4.9-7.94 5.11c-.08.18-.08.4 0 .59.1.21 2.34 5.11 7.94 5.11s7.85-4.9 7.94-5.11c.08-.19.08-.4 0-.59zm-7.94 4.23c-3.96 0-5.92-2.97-6.45-3.94.54-.96 2.49-3.94 6.45-3.94s5.92 2.97 6.45 3.94c-.53.97-2.49 3.94-6.45 3.94z"/><path d="m8 4.665c-1.84 0-3.33 1.49-3.33 3.33s1.5 3.33 3.33 3.33c1.84 0 3.33-1.49 3.33-3.33s-1.49-3.33-3.33-3.33zm0 5.21c-1.03 0-1.87-.84-1.87-1.87s.84-1.87 1.87-1.87 1.87.84 1.87 1.87-.84 1.87-1.87 1.87z"/></g></svg>