<svg enable-background="new 0 0 16 16" viewBox="0 0 16 16" xmlns="http://www.w3.org/2000/svg"><g fill="#6b7a8a"><path d="m15.854 8.083c-.429-.572-.983-1.029-1.608-1.346.292-.325.513-.719.628-1.164.38-1.5-.52-3.03-2.02-3.42-1.51-.38-3.03.52-3.42 2.02-.11.39.13.79.52.89.39.09.79-.14.89-.53.09-.34.31-.64.62-.82s.67-.23 1.02-.14c.72.18 1.16.92.97 1.64-.15.6-.69 1.01-1.3 1.01-.4 0-.73.33-.73.73 0 .002.001.003.001.005s-.001.003-.001.005c0 .4.33.73.73.73.99 0 1.94.47 2.53 1.26.15.19.37.29.59.29l-.01.01c.16 0 .31-.05.44-.15.33-.239.39-.699.15-1.02z"/><path d="m3.846 7.682c.002 0 .004.001.007.001.4 0 .73-.33.73-.73s-.33-.73-.73-.73c-.75 0-1.35-.61-1.35-1.35 0-.36.14-.7.39-.95s.59-.39.95-.39c.61 0 1.15.42 1.3 1.01.1.39.5.62.89.53.4-.1.63-.5.53-.89-.32-1.24-1.43-2.11-2.71-2.11-.75 0-1.46.29-1.99.82s-.82 1.23-.82 1.98c0 .712.274 1.356.712 1.851-.626.318-1.182.775-1.612 1.349-.24.32-.17.78.15 1.02.13.1.29.15.44.15l-.01-.01c.23 0 .45-.1.59-.29.6-.79 1.54-1.26 2.53-1.26.001 0 .002-.001.003-.001z"/><path d="m10.514 11.074c-.083-.049-.173-.076-.258-.12.659-.608 1.078-1.472 1.078-2.44 0-1.84-1.49-3.33-3.33-3.33s-3.33 1.49-3.33 3.33c0 .961.415 1.82 1.067 2.428-.827.423-1.526 1.063-2.007 1.882-.2.35-.09.8.26 1 .12.07.24.1.37.1l.01.01c.25 0 .49-.13.63-.36.47-.81 1.23-1.38 2.13-1.61.9-.24 1.84-.1 2.64.37.5.29.93.72 1.23 1.23.2.35.65.46 1 .26s.46-.65.26-1c-.43-.72-1.03-1.33-1.75-1.75zm-2.51-4.421v-.01c1.03 0 1.87.84 1.87 1.87s-.84 1.87-1.87 1.87-1.87-.85-1.87-1.87.839-1.86 1.87-1.86z"/></g></svg>