<svg enable-background="new 0 0 16 16" opacity=".25" viewBox="0 0 16 16" xmlns="http://www.w3.org/2000/svg"><path d="m15.903 14.588c-1.121-1.941-2.826-3.336-4.814-4.057 1.502-1 2.493-2.708 2.493-4.647 0-3.081-2.501-5.582-5.582-5.582s-5.582 2.501-5.582 5.582c0 1.94.992 3.649 2.495 4.649-1.989.721-3.695 2.121-4.816 4.055-.2.35-.08.81.27 1.01.36.2.81.08 1.01-.27 1.386-2.395 3.831-3.836 6.537-3.866.029 0 .057.004.086.004s.057-.004.086-.004c2.706.03 5.151 1.471 6.537 3.866.14.24.39.37.64.37.13 0 .25-.03.37-.1.35-.21.47-.66.27-1.01zm-12.005-8.704c0-2.261 1.841-4.102 4.102-4.102s4.102 1.841 4.102 4.102c0 2.24-1.809 4.063-4.042 4.096-.02 0-.04-.004-.06-.004s-.04.004-.06.004c-2.233-.033-4.042-1.856-4.042-4.096z" fill="#6b7a8a"/></svg>