<svg enable-background="new 0 0 16 16" viewBox="0 0 16 16" xmlns="http://www.w3.org/2000/svg"><path d="m16 8c0-4.411-3.589-8-8-8s-8 3.589-8 8c0 2.313.993 4.394 2.568 5.856.025.032.06.055.091.083 1.418 1.276 3.287 2.061 5.341 2.061 2.055 0 3.926-.786 5.344-2.064.029-.027.062-.048.087-.079 1.576-1.462 2.569-3.543 2.569-5.857zm-14.525 0c0-3.598 2.927-6.525 6.525-6.525s6.525 2.927 6.525 6.525c0 1.601-.582 3.067-1.542 4.204-.569-.777-1.31-1.41-2.183-1.854-.106-.054-.215-.097-.322-.144.782-.69 1.286-1.688 1.286-2.811 0-2.076-1.689-3.764-3.764-3.764s-3.764 1.688-3.764 3.764c0 1.132.513 2.136 1.306 2.827-1.008.438-1.871 1.112-2.515 1.992-.966-1.138-1.552-2.608-1.552-4.214zm6.536 1.683c-.01 0-.021-.001-.031-.001-1.253-.011-2.269-1.032-2.269-2.287 0-1.262 1.027-2.289 2.289-2.289s2.289 1.027 2.289 2.289c0 1.258-1.021 2.282-2.278 2.288zm-3.892 3.55c.582-.862 1.413-1.517 2.419-1.845 1.196-.392 2.471-.292 3.593.278.719.365 1.313.903 1.759 1.561-1.088.812-2.431 1.298-3.89 1.298-1.454 0-2.795-.484-3.881-1.292z" fill="#fff"/></svg>