<svg enable-background="new 0 0 16 16" viewBox="0 0 16 16" xmlns="http://www.w3.org/2000/svg"><g fill="#fff"><path d="m13.802 3.264h-5.737c-.234-.002-.461-.116-.598-.324l-.583-.863c-.408-.619-1.094-.989-1.836-.989h-2.85c-1.212 0-2.198.986-2.198 2.198v9.428c0 1.213.986 2.198 2.198 2.198h11.604c1.213 0 2.198-.985 2.198-2.198v-7.252c0-1.213-.985-2.199-2.198-2.198zm.702 9.451c0 .387-.314.702-.702.702h-11.604c-.388 0-.703-.314-.703-.702v-9.428c0-.388.315-.703.703-.703h2.851c.237 0 .456.118.591.323l.583.863c.412.627 1.089.973 1.85.989h5.729c.387 0 .702.315.702.703z"/><path d="m8.53 6.385c-.07-.07-.154-.126-.247-.164-.045-.018-.094-.019-.141-.028-.048-.01-.092-.029-.142-.029-.044 0-.083.018-.125.025-.053.009-.108.011-.159.032-.093.039-.177.094-.246.164l-2.174 2.174c-.292.293-.292.766 0 1.058.293.292.766.292 1.058 0l.898-.899v2.545c0 .413.335.748.748.748s.748-.335.748-.748v-2.545l.899.899c.146.146.337.219.529.219s.382-.073.528-.219c.292-.293.292-.766 0-1.058z"/></g></svg>