<svg enable-background="new 0 0 16 16" viewBox="0 0 16 16" xmlns="http://www.w3.org/2000/svg"><g fill="#fff"><path d="m15.707 11.98-5.795-10.142c-.597-1.053-1.942-1.425-2.995-.828-.346.196-.632.483-.826.826l-5.797 10.143c-.606 1.049-.245 2.395.804 3.001.335.194.716.295 1.096.295h.016 11.596c.587-.001 1.138-.23 1.552-.646.415-.415.643-.967.642-1.553 0-.384-.101-.762-.293-1.096zm-1.407 1.593c-.133.132-.309.205-.495.205h-11.6c-.123-.022-.249-.032-.358-.094-.335-.194-.45-.623-.255-.961l5.799-10.148c.062-.11.153-.201.264-.264.109-.062.227-.091.344-.091.245 0 .484.129.614.358l5.797 10.143c.001.001.001.001.001.002.062.108.094.228.094.352-.001.188-.073.365-.205.498z"/><path d="m8.008 9.477c.413 0 .748-.335.748-.748v-2.899c0-.413-.335-.748-.748-.748s-.748.335-.748.748v2.899c0 .413.335.748.748.748z"/><path d="m8.014 10.88h-.006c-.413 0-.744.335-.744.748s.338.748.751.748.748-.335.748-.748c-.001-.413-.336-.748-.749-.748z"/></g></svg>