<svg enable-background="new 0 0 16 16" viewBox="0 0 16 16" xmlns="http://www.w3.org/2000/svg"><g fill="#fff"><path d="m8 0c-4.411 0-8 3.588-8 8s3.589 8 8 8c4.412 0 8-3.589 8-8s-3.589-8-8-8zm0 14.504c-3.586 0-6.504-2.918-6.504-6.504s2.918-6.504 6.504-6.504c3.587 0 6.504 2.917 6.504 6.504s-2.918 6.504-6.504 6.504z"/><path d="m8 7.252c-.413 0-.748.335-.748.748v2.901c0 .413.335.748.748.748s.748-.335.748-.748v-2.901c0-.413-.335-.748-.748-.748z"/><path d="m8.007 4.351h-.007c-.413 0-.743.335-.743.748s.338.748.751.748c.412 0 .747-.335.747-.748s-.335-.748-.748-.748z"/></g></svg>