<svg enable-background="new 0 0 16 16" viewBox="0 0 16 16" xmlns="http://www.w3.org/2000/svg"><path d="m15.941 7.839c.031-.076.042-.157.048-.238.002-.019.011-.034.011-.053 0-.029-.013-.054-.017-.082-.008-.07-.015-.141-.042-.207-.039-.095-.096-.181-.169-.252l-4.52-4.52c-.298-.298-.781-.298-1.079 0s-.298.781 0 1.079l3.22 3.22h-9.011c-2.416-.001-4.382 1.964-4.382 4.38v1.809c0 .421.342.763.763.763.422 0 .763-.342.764-.763v-1.809c0-1.574 1.281-2.855 2.855-2.855h9.012l-3.22 3.22c-.298.298-.298.781 0 1.079.149.149.344.224.54.224s.391-.075.539-.223l4.523-4.523c.002-.002.003-.006.005-.008.068-.069.123-.15.16-.241z" fill="#fff"/></svg>