<svg viewBox="0 0 381.8 381.8" xmlns="http://www.w3.org/2000/svg"><path d="m190.9 0c-105.4 0-190.9 85.5-190.9 190.9s85.5 190.9 190.9 190.9 190.9-85.5 190.9-190.9-85.5-190.9-190.9-190.9zm-95.5 213.3c0 11.7-9.5 21.3-21.3 21.3-11.7 0-21.3-9.5-21.3-21.3v-44.7c0-11.7 9.5-21.3 21.3-21.3 11.7 0 21.3 9.5 21.3 21.3zm73.5 48.1c0 11.7-9.5 21.3-21.3 21.3-11.7 0-21.3-9.5-21.3-21.3v-140.9c0-11.7 9.5-21.3 21.3-21.3 11.7 0 21.3 9.5 21.3 21.3v140.8zm73.5 47.3c0 11.7-9.5 21.3-21.3 21.3-11.7 0-21.3-9.5-21.3-21.3v-235.5c0-11.7 9.5-21.3 21.3-21.3 11.7 0 21.3 9.5 21.3 21.3v235.4zm73.5-82.3c0 11.7-9.5 21.3-21.3 21.3-11.7 0-21.3-9.5-21.3-21.3v-70.8c0-11.7 9.5-21.3 21.3-21.3 11.7 0 21.3 9.5 21.3 21.3z" fill="#fff"/></svg>