<svg xmlns="http://www.w3.org/2000/svg" viewBox="0 0 381.8 381.8"><path fill="#fff" d="M190.9 0C85.47 0 0 85.47 0 190.9s85.47 190.9 190.9 190.9 190.9-85.47 190.9-190.9S296.33 0 190.9 0Zm.75 101.79c4.43-4.94 10.58-7.41 18.43-7.41 6.08 0 10.76 1.71 14.06 5.13 3.29 3.42 4.94 7.79 4.94 13.11 0 6.33-2.47 11.91-7.41 16.72-4.94 4.82-10.96 7.22-18.05 7.22-6.08 0-10.77-1.65-14.06-4.94-3.3-3.29-4.88-7.85-4.75-13.68.12-5.82 2.4-11.21 6.84-16.15Zm5.7 173.85c-11.53 5.83-20.33 8.74-26.41 8.74-12.67 0-16.09-11.28-10.26-33.82l11.4-48.26c1.77-7.09 1.83-10.64.19-10.64s-5.13 1.14-10.45 3.42c-5.32 2.28-9.88 4.69-13.68 7.22l-4.94-8.36c11.4-9.88 23.37-17.86 35.91-23.94s22.1-9.12 28.69-9.12c9.88 0 12.16 10.26 6.84 30.78l-13.3 50.54c-2.03 8.11-1.65 12.16 1.14 12.16 5.57 0 13.04-3.8 22.42-11.4l5.7 7.6c-10.64 10.89-21.73 19.25-33.25 25.08Z"/></svg>