<svg enable-background="new 0 0 16 16" opacity=".25" viewBox="0 0 16 16" xmlns="http://www.w3.org/2000/svg"><g fill="#fff"><path d="m14.816 11.074c-.419 0-.759.34-.759.759v1.704c0 .521-.423.945-.945.945h-10.224c-.521 0-.945-.423-.945-.945v-1.704c0-.419-.34-.759-.759-.759s-.759.34-.759.759v1.704c.001 1.358 1.105 2.463 2.463 2.463h10.223c1.359 0 2.463-1.105 2.464-2.463v-1.704c0-.419-.341-.759-.759-.759z"/><path d="m7.463 11.517c.07.07.154.126.247.164.093.039.191.059.29.059s.197-.02.29-.059.177-.094.247-.164l4.26-4.259c.296-.296.296-.777 0-1.073s-.777-.296-1.073 0l-2.965 2.964v-8.39c0-.419-.341-.759-.759-.759s-.759.34-.759.759v8.39l-2.964-2.964c-.296-.296-.777-.296-1.073 0s-.296.777 0 1.073z"/></g></svg>