<svg enable-background="new 0 0 16 16" opacity=".25" viewBox="0 0 16 16" xmlns="http://www.w3.org/2000/svg"><g fill="#fff"><path d="m14.053 2.969c-.286-.338-.602-.655-.941-.942-.321-.272-.804-.233-1.078.09-.273.322-.233.805.09 1.078.274.232.53.488.76.761 1.101 1.304 1.629 2.96 1.486 4.661-.143 1.702-.941 3.245-2.245 4.347-2.693 2.275-6.735 1.933-9.009-.759-2.274-2.693-1.933-6.735.76-9.009.323-.273.363-.755.091-1.078-.271-.322-.755-.362-1.078-.091-3.338 2.819-3.761 7.828-.943 11.166 1.565 1.853 3.806 2.807 6.06 2.807 1.806 0 3.621-.613 5.105-1.866 3.338-2.818 3.76-7.827.942-11.165z"/><path d="m8 8.918c.422 0 .765-.342.765-.765v-7.388c0-.422-.343-.765-.765-.765s-.765.343-.765.765v7.388c0 .422.343.765.765.765z"/></g></svg>