<svg enable-background="new 0 0 16 16" viewBox="0 0 16 16" xmlns="http://www.w3.org/2000/svg"><g fill="#f13b6e"><path d="m14.655 2.42h-2.89v-.47c0-1.08-.88-1.95-1.95-1.95h-3.63c-1.07 0-1.95.88-1.95 1.95v.47h-2.89c-.41 0-.74.33-.74.74s.33.74.74.74h.47v10.76c0 .74.6 1.34 1.34 1.34h9.69.01c.74 0 1.34-.6 1.34-1.34v-10.76h.46c.41 0 .74-.33.74-.74s-.33-.74-.74-.74zm-8.94-.47c0-.26.21-.47.47-.47h3.63c.26 0 .47.21.47.47v.47h-4.57zm7 12.58h-9.42v-10.63h9.42z"/><path d="m6.185 6.05c-.41 0-.74.33-.74.74v4.84c0 .41.33.74.74.74s.74-.33.74-.74v-4.84c0-.41-.33-.74-.74-.74z"/><path d="m9.815 6.05c-.41 0-.74.33-.74.74v4.84c0 .41.33.74.74.74s.74-.33.74-.74v-4.84c0-.41-.33-.74-.74-.74z"/></g></svg>