<svg enable-background="new 0 0 16 16" viewBox="0 0 16 16" xmlns="http://www.w3.org/2000/svg"><path d="m16 11.631c0-.002-.001-.003-.001-.005v-9.073c0-.741-.602-1.343-1.343-1.343h-13.313c-.74 0-1.343.602-1.343 1.343v10.892c0 .741.603 1.344 1.343 1.344h13.313c.741 0 1.343-.603 1.343-1.344v-1.81c0-.001.001-.002.001-.004zm-14.525-6.525h5.787v5.787h-5.787zm7.262-1.475v-.946h2.155v.946zm-1.475 0h-2.155v-.946h2.155zm0 8.738v.946h-2.155v-.946zm1.475 0h2.155v.946h-2.155zm0-1.476v-5.787h5.787v5.787zm5.787-7.262h-2.156v-.946h2.156zm-10.893-.946v.946h-2.156v-.946zm-2.156 9.684h2.156v.946h-2.156zm10.893.946v-.946h2.156v.946z" fill="#fff"/></svg>