<svg enable-background="new 0 0 16 16" opacity=".25" viewBox="0 0 16 16" xmlns="http://www.w3.org/2000/svg"><g fill="#fff"><path d="m14.708 2.236h-13.415c-.713 0-1.293.58-1.293 1.293v1.677c0 .65.492 1.168 1.119 1.257v6.009c0 .712.579 1.292 1.292 1.292h11.178c.714 0 1.293-.58 1.294-1.292v-6.009c.626-.09 1.117-.607 1.117-1.257v-1.677c0-.713-.58-1.293-1.292-1.293zm-13.241 1.467h13.066v1.328h-13.066zm1.118 8.594v-5.799h10.83v5.799z"/><path d="m9.676 7.825h-3.353c-.405 0-.734.329-.734.734s.329.734.734.734h3.353c.405 0 .734-.329.734-.734s-.329-.734-.734-.734z"/></g></svg>