<svg enable-background="new 0 0 16 16" viewBox="0 0 16 16" xmlns="http://www.w3.org/2000/svg"><g fill="#fff"><path d="m.748 8.702c-.413 0-.748.335-.748.748s.335.748.748.748c2.787 0 5.054 2.267 5.054 5.054 0 .413.335.748.748.748.412 0 .747-.335.748-.748 0-3.612-2.939-6.55-6.55-6.55z"/><path d="m.748 4.351c-.413 0-.748.335-.748.748s.335.748.747.748c5.186 0 9.405 4.219 9.405 9.405 0 .413.335.748.748.748s.748-.335.748-.748c0-6.011-4.89-10.901-10.9-10.901z"/><path d="m.748 0c-.413 0-.748.335-.748.748s.335.748.748.748c7.585 0 13.756 6.171 13.756 13.756 0 .413.335.748.748.748s.748-.335.748-.748c0-8.41-6.842-15.252-15.252-15.252z"/><path d="m1.111 13.801c-.601 0-1.088.487-1.088 1.088s.487 1.088 1.088 1.088 1.088-.487 1.088-1.088-.487-1.088-1.088-1.088z"/></g></svg>