<svg enable-background="new 0 0 16 16" opacity=".25" viewBox="0 0 16 16" xmlns="http://www.w3.org/2000/svg"><g fill="#fff"><path d="m14.992 2.653-.001-.001c0-.001-.001-.001-.001-.001-.001-.001-.001-.001-.001-.001h-.001l-.001-.001c-.004-.005-.009-.009-.013-.013l-2.415-2.415c-.295-.295-.772-.295-1.067 0s-.295.772 0 1.067l1.127 1.127h-8.644c-1.748 0-3.17 1.422-3.17 3.17v2.415c0 .417.338.755.755.755.416 0 .754-.338.755-.755v-2.419c0-.915.745-1.66 1.66-1.66h8.643l-1.127 1.127c-.295.295-.295.772 0 1.067s.772.295 1.067 0l2.415-2.415c.009-.008.017-.017.025-.026h.001s0 0 .002-.002c.12-.133.193-.309.194-.502 0-.001 0-.001 0-.002 0-.002 0-.003 0-.004-.001-.198-.077-.377-.203-.511z"/><path d="m14.44 7.245c-.417 0-.755.338-.755.755v2.415c0 .915-.745 1.66-1.661 1.66h-8.643l1.126-1.126c.295-.295.295-.772 0-1.067s-.772-.295-1.067 0l-2.415 2.414c-.007.007-.014.014-.02.021v.001c0 .001-.001-.001-.001.002-.003-.002-.002 0-.002.002-.122.134-.197.311-.197.506v.002.001.001.002.001c.002.207.086.393.222.529l2.414 2.415c.148.147.341.221.534.221s.386-.074.534-.222c.295-.295.295-.772 0-1.067l-1.127-1.127h8.643c1.748 0 3.17-1.422 3.17-3.169v-2.415c0-.417-.338-.755-.755-.755z"/></g></svg>