<svg enable-background="new 0 0 16 16" viewBox="0 0 16 16" xmlns="http://www.w3.org/2000/svg"><g fill="#fff"><path d="m14.393 14.528h-12.786c-.407 0-.736.33-.736.736 0 .407.33.736.736.736h12.786c.406 0 .735-.329.736-.736 0-.407-.33-.736-.736-.736z"/><path d="m2.188 13.676h11.624c.726 0 1.316-.591 1.316-1.317v-2.906c0-.726-.591-1.317-1.317-1.317h-3.907l1.102-5.138c.037-.168.055-.343.055-.519 0-1.367-1.112-2.479-2.479-2.479h-1.163c-.173 0-.346.018-.515.054-.648.138-1.203.519-1.564 1.075s-.483 1.218-.345 1.867l1.101 5.14h-3.908c-.726 0-1.317.591-1.317 1.317v2.906c0 .726.591 1.317 1.317 1.317zm4.246-10.987c-.056-.264-.007-.533.14-.759.146-.226.372-.381.636-.437.069-.014.14-.022.209-.022h1.162c.556 0 1.008.452 1.008 1.008 0 .071-.008.141-.022.209l-1.167 5.448h-.798zm-4.091 6.918h11.315v2.597h-11.315z"/></g></svg>