<svg enable-background="new 0 0 16 16" opacity=".25" viewBox="0 0 16 16" xmlns="http://www.w3.org/2000/svg"><g fill="#fff"><path d="m11.059 8.664c.067-.87.042-1.732-.053-2.583h2.913c.188.724.247 1.483.157 2.248-.048.411.247.785.659.833.408.041.784-.246.833-.659.236-2.021-.328-4.015-1.591-5.611-1.262-1.596-3.07-2.606-5.093-2.842-.104-.012-.208-.013-.312-.021-.091-.024-.186-.03-.28-.019-.185-.007-.367-.005-.549.001-.101-.017-.202-.014-.3.009-1.51.109-2.956.662-4.17 1.621-1.595 1.262-2.606 3.071-2.842 5.093s.329 4.015 1.591 5.611 3.07 2.605 5.093 2.842c.13.015.26.014.391.023.038.006.073.028.111.028.037 0 .074-.01.111-.015.087.003.173.015.26.015.415 0 .751-.336.751-.752 0-.39-.3-.699-.68-.737-.566-.977-.985-2.016-1.258-3.089h1.96c.416 0 .752-.337.753-.751 0-.415-.337-.751-.752-.751h-2.247c-.128-1.021-.128-2.055 0-3.076h2.978c.102.811.131 1.635.067 2.467-.03.413.279.774.692.806.02.001.039.002.059.002.389 0 .718-.299.748-.693zm1.74-4.839c.189.24.352.493.502.753h-2.546c-.219-.966-.547-1.905-.975-2.808 1.186.357 2.235 1.063 3.019 2.055zm-8.593-1.005c.609-.482 1.291-.833 2.013-1.053-.425.905-.747 1.847-.963 2.811h-2.565c.383-.669.892-1.266 1.515-1.758zm2.011 10.647c-1.184-.358-2.232-1.063-3.016-2.054-.189-.24-.352-.493-.502-.753h2.557c.216.961.537 1.903.961 2.807zm-1.211-4.31h-2.925c-.188-.724-.247-1.483-.157-2.249.033-.282.091-.557.161-.827h2.921c-.113 1.022-.113 2.054 0 3.076zm1.795-4.579c.263-1.034.662-2.038 1.197-2.984.539.947.949 1.947 1.215 2.984z"/><path d="m15.56 11.148c-.076-.184-.223-.331-.407-.407-.083-.034-.171-.049-.259-.052-.01 0-.018-.006-.028-.006h-3.434c-.415 0-.751.336-.751.751s.336.751.751.751h1.621l-2.533 2.532c-.293.293-.293.769 0 1.062.147.147.338.22.531.22.191 0 .384-.073.531-.22l2.533-2.532v1.62c0 .415.336.751.751.751s.751-.337.751-.751v-3.433c0-.012-.006-.022-.007-.034-.002-.085-.016-.171-.05-.252z"/></g></svg>