<svg enable-background="new 0 0 16 16" viewBox="0 0 16 16" xmlns="http://www.w3.org/2000/svg"><g fill="#fff"><path d="m13.811 5.23h-7.98v-1.589c0-1.196.973-2.17 2.17-2.17 1.045 0 1.984.746 2.184 1.735.081.399.465.652.868.575.398-.081.655-.469.575-.867-.343-1.689-1.869-2.914-3.627-2.914-2.008 0-3.641 1.633-3.643 3.641v1.589h-2.17c-.726 0-1.317.591-1.317 1.317v8.137c0 .726.591 1.316 1.318 1.316h11.624c.726 0 1.316-.59 1.316-1.317v-8.136c0-.726-.591-1.317-1.318-1.317zm-.152 9.299h-11.315v-7.828h11.315z"/><circle cx="8.001" cy="10.615" r=".872"/></g></svg>