<svg enable-background="new 0 0 16 16" opacity=".25" viewBox="0 0 16 16" xmlns="http://www.w3.org/2000/svg"><g fill="#fff"><path d="m7.996 4.254c-2.064 0-3.742 1.679-3.742 3.742s1.679 3.742 3.742 3.742 3.742-1.679 3.742-3.742c0-2.064-1.679-3.742-3.742-3.742zm0 6.008c-1.25 0-2.267-1.017-2.267-2.267s1.017-2.267 2.267-2.267 2.267 1.017 2.267 2.267c0 1.249-1.017 2.267-2.267 2.267z"/><path d="m14.748 8.117c.002-.077.002-.155 0-.232l1.09-1.364c.146-.183.196-.424.136-.65-.186-.702-.466-1.376-.831-2.005-.117-.202-.324-.336-.555-.362l-1.734-.195c-.054-.056-.108-.111-.164-.164l-.195-1.735c-.026-.232-.16-.438-.363-.555-.628-.364-1.303-.643-2.005-.829-.226-.061-.467-.009-.649.137l-1.364 1.089c-.078-.002-.156-.002-.232 0l-1.363-1.09c-.182-.146-.424-.197-.648-.137-.701.185-1.375.462-2.002.825-.203.117-.338.324-.364.556l-.195 1.733c-.056.054-.11.109-.164.164l-1.734.195c-.232.026-.439.16-.556.363-.364.628-.644 1.303-.83 2.005-.059.226-.009.466.137.649l1.09 1.363c-.001.077-.001.155 0 .232l-1.09 1.364c-.146.183-.196.423-.136.65.187.702.467 1.377.831 2.004.116.201.321.335.551.362l1.738.204c.054.056.109.111.165.165l.195 1.735c.026.233.161.439.364.556.628.362 1.302.64 2.005.826.225.06.466.009.648-.137l1.363-1.09c.076.002.154.002.231 0l1.364 1.09c.132.105.295.161.46.161.063 0 .127-.008.189-.024.702-.186 1.376-.465 2.006-.831.202-.117.336-.323.362-.555l.195-1.734c.056-.054.11-.108.164-.164l1.734-.194c.235-.026.441-.161.558-.365.362-.629.64-1.304.825-2.005.06-.226.009-.466-.137-.648zm-1.326.705 1.02 1.278c-.108.335-.242.661-.401.975l-1.622.182c-.181.02-.348.107-.469.243-.141.158-.292.309-.45.45-.136.121-.223.288-.243.468l-.183 1.624c-.314.16-.639.296-.974.404l-1.277-1.02c-.142-.114-.317-.173-.504-.16-.211.013-.424.013-.635 0-.189-.016-.362.046-.504.16l-1.278 1.021c-.335-.108-.661-.243-.975-.401l-.181-1.625c-.02-.18-.107-.347-.243-.468-.159-.141-.309-.291-.449-.449-.12-.136-.286-.223-.466-.244l-1.628-.191c-.161-.313-.296-.639-.405-.975l1.02-1.278c.114-.142.171-.322.16-.504-.012-.211-.012-.423 0-.635.011-.182-.046-.361-.16-.504l-1.02-1.278c.108-.335.243-.661.403-.975l1.624-.183c.181-.02.348-.107.469-.244.141-.159.291-.309.45-.45.136-.121.223-.287.243-.468l.183-1.623c.313-.158.637-.292.971-.4l1.277 1.023c.142.114.322.174.504.16.212-.012.425-.012.636 0 .187.013.361-.046.504-.16l1.278-1.02c.335.109.66.244.975.404l.182 1.625c.02.181.107.347.243.468.158.141.308.291.449.45.121.136.288.223.469.243l1.624.182c.16.314.296.639.404.974l-1.02 1.278c-.114.142-.171.322-.16.504.013.211.013.423 0 .635-.012.182.045.362.159.504z"/></g></svg>