<svg enable-background="new 0 0 16 16" viewBox="0 0 16 16" xmlns="http://www.w3.org/2000/svg"><g fill="#fff"><path d="m14.053 2.723h-2.026l-.991-1.487c-.137-.205-.367-.328-.614-.328h-4.842c-.247 0-.477.123-.614.328l-.992 1.487h-2.026c-1.074 0-1.948.874-1.948 1.948v8.473c0 1.074.874 1.948 1.948 1.948h12.104c1.074 0 1.948-.874 1.948-1.948v-8.473c0-1.074-.874-1.948-1.947-1.948zm.472 10.422c0 .261-.213.473-.473.473h-12.104c-.261 0-.473-.212-.473-.473v-8.473c0-.261.212-.473.473-.473h2.421c.247 0 .477-.124.613-.329l.992-1.487h4.052l.991 1.487c.137.205.367.328.614.328h2.421c.261 0 .473.212.473.473z" opacity=".25"/><path d="m8 5.144c-1.909 0-3.461 1.553-3.461 3.461 0 1.909 1.553 3.461 3.461 3.461s3.461-1.552 3.461-3.461-1.552-3.461-3.461-3.461zm0 5.447c-1.095 0-1.986-.891-1.986-1.986s.891-1.986 1.986-1.986 1.986.891 1.986 1.986-.891 1.986-1.986 1.986z" opacity=".25"/></g></svg>