<svg enable-background="new 0 0 16 16" viewBox="0 0 16 16" xmlns="http://www.w3.org/2000/svg"><g fill="#fff"><path d="m11.02 16c-.19 0-.38-.07-.52-.22l-2.51-2.5-2.51 2.5c-.29.29-.76.29-1.04 0s-.29-.76 0-1.04l3.03-3.03c.29-.29.76-.29 1.04 0l3.03 3.03c.29.29.29.75 0 1.04-.14.14-.33.22-.52.22z"/><path d="m8 10.69c2.95 0 5.35-2.39 5.35-5.35s-2.4-5.34-5.35-5.34-5.35 2.39-5.35 5.35 2.39 5.35 5.35 5.35zm-3.3-6.09h6.6c.41 0 .74.33.74.74s-.33.74-.74.74h-6.6c-.41 0-.74-.33-.74-.74s.33-.74.74-.74z"/></g></svg>