<svg enable-background="new 0 0 16 16" opacity=".25" viewBox="0 0 16 16" xmlns="http://www.w3.org/2000/svg"><g fill="#fff"><path d="m8.805 5.635h-1.66v-1.66c0-.417-.338-.755-.755-.755s-.755.338-.755.755v1.66h-1.66c-.417 0-.755.338-.755.755s.338.755.755.755h1.66v1.66c0 .417.338.755.755.755s.755-.339.755-.755v-1.66h1.66c.416 0 .755-.338.755-.755s-.338-.755-.755-.755z"/><path d="m15.778 14.712-4.374-4.374c.859-1.088 1.376-2.457 1.376-3.948 0-3.524-2.866-6.39-6.39-6.39s-6.39 2.867-6.39 6.39 2.866 6.39 6.39 6.39c1.49 0 2.859-.517 3.947-1.375l4.374 4.374c.148.147.34.221.534.221s.386-.074.533-.221c.295-.295.295-.772 0-1.067zm-14.268-8.323c0-2.691 2.189-4.88 4.88-4.88s4.88 2.189 4.88 4.88-2.189 4.88-4.88 4.88-4.88-2.189-4.88-4.88z"/></g></svg>