<svg enable-background="new 0 0 16 16" viewBox="0 0 16 16" xmlns="http://www.w3.org/2000/svg"><g fill="#fff"><path d="m4.97 0c.19 0 .38.07.52.22l2.51 2.5 2.51-2.5c.29-.29.76-.29 1.04 0s.29.76 0 1.04l-3.03 3.03c-.29.29-.76.29-1.04 0l-3.03-3.03c-.29-.29-.29-.75 0-1.04.14-.14.33-.22.52-.22z"/><path d="m8 5.31c-2.96 0-5.35 2.39-5.35 5.34s2.39 5.35 5.35 5.35 5.35-2.39 5.35-5.35-2.39-5.35-5.35-5.35zm3.3 6.09h-6.6c-.41 0-.74-.33-.74-.74s.33-.74.74-.74h6.6c.41 0 .74.33.74.74s-.33.74-.74.74z"/></g></svg>