<svg enable-background="new 0 0 16 16" viewBox="0 0 16 16" xmlns="http://www.w3.org/2000/svg"><g fill="#fff"><path d="m13.23 1.15h-2.597c-.664-.704-1.599-1.15-2.643-1.15-1.049 0-1.987.45-2.651 1.16h-2.569c-.73 0-1.32.59-1.32 1.32v12.2c0 .73.59 1.32 1.32 1.32h10.46v-.01c.73 0 1.32-.59 1.32-1.32v-12.2c0-.73-.59-1.32-1.32-1.32zm-5.23.32c1.14 0 2.08.9 2.16 2.02h-4.32c.07-1.13 1.02-2.02 2.16-2.02zm5.07 13.06h-10.15v-11.9h1.59c-.094.323-.16.657-.16 1.01v.58c0 .41.33.74.74.74h5.81c.4 0 .73-.33.73-.74v-.58c0-.353-.066-.687-.16-1.01h1.6z"/><path d="m10.51 9.51-1.77 1.763v-4.873c0-.33-.33-.59-.74-.59s-.74.27-.74.59v4.873l-1.77-1.763c-.14-.15-.33-.22-.52-.22s-.38.08-.52.22c-.29.29-.29.75 0 1.04l3.03 3.03c.28.29.75.29 1.04 0l3.03-3.03c.29-.28.28-.75 0-1.04s-.75-.29-1.04 0z"/></g></svg>