<svg enable-background="new 0 0 16 16" opacity=".25" viewBox="0 0 16 16" xmlns="http://www.w3.org/2000/svg"><path d="m15.785 3.702c-.287-.287-.753-.287-1.04 0l-2.385 2.386-2.448-2.448 2.386-2.385c.287-.287.287-.753 0-1.04s-.753-.287-1.04 0l-2.386 2.386-1.805-1.806c-.287-.287-.753-.287-1.04 0s-.287.753 0 1.04l.352.352-3.74 3.74c-1.192 1.194-1.192 3.135 0 4.328l1.033 1.033-3.457 3.457c-.287.287-.287.753 0 1.04.144.143.332.215.52.215s.376-.072.521-.215l3.456-3.456 1.031 1.031c.597.597 1.381.895 2.164.895s1.567-.298 2.164-.895l3.739-3.739.352.352c.144.143.331.215.52.215s.376-.071.52-.216c.287-.287.287-.753 0-1.04l-1.804-1.804 2.385-2.385c.289-.288.289-.754.002-1.041zm-6.752 8.618c-.619.62-1.628.62-2.247 0l-1.551-1.55s-.001-.001-.001-.002-.001-.001-.002-.001l-1.553-1.552c-.619-.619-.619-1.627 0-2.247l3.739-3.74.932.932c.002 0 .002 0 .002.001s.001.001.002.001l3.484 3.485s0 .001.001.001.001 0 .001.001l.932.932z" fill="#fff"/></svg>