<svg enable-background="new 0 0 16 16" opacity=".25" viewBox="0 0 16 16" xmlns="http://www.w3.org/2000/svg"><g fill="#fff"><path d="m11.625 1.496h2.878v2.878c0 .413.335.748.748.748s.748-.335.748-.748v-3.626c0-.413-.335-.748-.748-.748h-3.625c-.413 0-.749.335-.749.748s.335.748.748.748z"/><path d="m4.375 14.505h-2.879v-2.878c0-.413-.335-.748-.748-.748s-.748.335-.748.748v3.625c0 .413.335.748.748.748h3.626c.413 0 .748-.335.749-.747 0-.413-.335-.748-.748-.748z"/><path d="m15.252 10.878c-.413 0-.748.335-.748.748v2.878h-2.878c-.413 0-.748.335-.748.748s.335.748.748.748h3.625c.413 0 .748-.335.749-.749v-3.625c0-.413-.335-.748-.748-.748z"/><path d="m.748 5.122c.413 0 .748-.335.748-.747v-2.879h2.878c.413 0 .748-.335.748-.748s-.335-.748-.748-.748h-3.626c-.413 0-.748.335-.748.748v3.626c0 .413.335.748.748.748z"/></g></svg>