<svg enable-background="new 0 0 16 16" opacity=".25" viewBox="0 0 16 16" xmlns="http://www.w3.org/2000/svg"><g fill="#fff"><path d="m5.16 6.82-.01-.01-.07.16c-.35.83-.71 1.73-1.07 2.63-.24.59-.47 1.19-.71 1.77-.19-.47-.38-.96-.57-1.44-.4-1.01-.8-2.02-1.19-2.96l-.07-.15h-1.47l2.72 6.67h1.2l2.72-6.67z"/><path d="m12.07 7.38c-.6-.45-1.31-.69-2.06-.69-1.9 0-3.44 1.54-3.44 3.44s1.54 3.42 3.44 3.42c.75 0 1.46-.24 2.06-.69v.62h1.36v-6.65h-1.36zm-2.06 4.8c-1.14 0-2.07-.92-2.07-2.06s.93-2.07 2.07-2.07 2.06.93 2.06 2.07-.92 2.06-2.06 2.06z"/><path d="m14.64 2.45h1.36v11.02h-1.36z"/></g></svg>