<svg enable-background="new 0 0 16 16" viewBox="0 0 16 16" xmlns="http://www.w3.org/2000/svg"><g fill="#fff"><path d="m14.598 0h-9.237c-.773 0-1.402.629-1.402 1.402v.66c0 .41.332.742.742.742s.742-.332.742-.742v-.577h9.072v8.413h-8.682l.714-.714c.29-.289.29-.759 0-1.049s-.76-.29-1.05 0l-1.978 1.979c-.069.069-.124.152-.162.243-.028.068-.036.141-.043.213-.002.024-.014.045-.014.069s.012.045.014.069c.007.073.015.145.043.214.038.092.093.174.162.243l1.978 1.978c.145.145.335.217.525.217s.38-.072.525-.216c.29-.29.29-.76 0-1.05l-.713-.713h8.766c.773 0 1.401-.629 1.401-1.402v-8.577c-.001-.773-.629-1.402-1.403-1.402z"/><path d="m11.299 13.196c-.41 0-.742.332-.742.742v.577h-9.072v-8.412h8.683l-.713.713c-.29.29-.29.76 0 1.05.145.145.335.217.525.217s.379-.073.525-.218l1.979-1.979c.012-.012.016-.029.027-.041.053-.06.101-.124.132-.199.076-.182.076-.387 0-.57-.031-.075-.08-.139-.132-.199-.011-.013-.015-.029-.027-.041l-1.979-1.979c-.29-.29-.76-.29-1.05 0s-.29.76 0 1.05l.712.712h-8.765c-.773 0-1.402.629-1.402 1.402v8.578c0 .773.629 1.401 1.402 1.401h9.238c.773 0 1.401-.628 1.401-1.402v-.66c0-.41-.332-.742-.742-.742z"/></g></svg>