<svg enable-background="new 0 0 16 16" viewBox="0 0 16 16" xmlns="http://www.w3.org/2000/svg"><g fill="#fff"><path d="m8 2.236c-3.795 0-6.882 3.087-6.882 6.882s3.087 6.882 6.882 6.882 6.882-3.087 6.882-6.882-3.087-6.882-6.882-6.882zm0 12.297c-2.986 0-5.415-2.429-5.415-5.415s2.429-5.415 5.415-5.415 5.415 2.429 5.415 5.415-2.429 5.415-5.415 5.415z"/><path d="m10.276 5.805-2.795 2.795c-.287.286-.287.75 0 1.037.144.143.331.215.519.215.187 0 .375-.072.518-.215l2.795-2.795c.287-.286.287-.75 0-1.037-.286-.287-.75-.287-1.037 0z"/><path d="m6.323 1.467h3.353c.405 0 .734-.328.734-.733s-.329-.734-.734-.734h-3.353c-.405 0-.734.328-.734.733s.329.734.734.734z"/></g></svg>