<svg enable-background="new 0 0 16 16" viewBox="0 0 16 16" xmlns="http://www.w3.org/2000/svg"><g fill="#fff"><path d="m4.97 11.492c.19 0 .38.07.52.22l2.51 2.5 2.51-2.5c.29-.29.76-.29 1.04 0s.29.76 0 1.04l-3.03 3.03c-.29.29-.76.29-1.04 0l-3.03-3.03c-.29-.29-.29-.75 0-1.04.139-.14.329-.22.52-.22z"/><path d="m8 10.692c2.95 0 5.351-2.39 5.351-5.351s-2.401-5.341-5.351-5.341-5.351 2.39-5.351 5.351 2.391 5.351 5.351 5.351zm-3.301-6.091h2.56v-2.561c.001-.41.331-.74.741-.74s.74.33.74.74v2.56h2.56c.41 0 .74.33.74.74s-.33.74-.74.74h-2.56v2.56c0 .41-.33.74-.74.74s-.74-.33-.74-.74v-2.56h-2.56c-.41 0-.74-.33-.74-.74-.001-.409.329-.739.739-.739z"/></g></svg>