<svg enable-background="new 0 0 16 16" viewBox="0 0 16 16" xmlns="http://www.w3.org/2000/svg"><g fill="#fff"><path d="m9.583 11.529c-1.061 0-2.058-.411-2.811-1.157-.006-.005-.011-.011-.017-.016-.773-.772-1.197-1.842-1.165-2.934.012-.405.366-.745.755-.712.405.012.724.35.712.755-.02.686.245 1.357.727 1.844.004.004.009.009.013.012.954.954 2.618.955 3.572-.001l2.427-2.427c.984-.985.984-2.588 0-3.572s-2.588-.984-3.572 0l-.769.77c-.287.287-.752.287-1.038 0s-.287-.751 0-1.038l.769-.769c1.558-1.557 4.091-1.557 5.646 0 1.558 1.556 1.558 4.089.002 5.647l-2.428 2.428c-.755.754-1.757 1.17-2.823 1.17z"/><path d="m3.991 14.883c-1.061 0-2.058-.411-2.811-1.157-.006-.006-.012-.011-.018-.017-1.551-1.558-1.549-4.089.005-5.643l2.427-2.427c1.557-1.557 4.091-1.557 5.646 0 .776.772 1.203 1.843 1.171 2.938-.012.398-.338.711-.734.712-.007 0-.014-.001-.022-.001-.404-.012-.723-.351-.71-.756.021-.69-.249-1.366-.739-1.854-.986-.986-2.589-.986-3.573-.002l-2.427 2.428c-.98.979-.985 2.574-.012 3.56.004.004.008.008.012.011.954.954 2.618.955 3.571-.001l.769-.768c.287-.287.751-.287 1.038 0s.287.751 0 1.038l-.769.768c-.754.755-1.756 1.171-2.824 1.171z"/></g></svg>