<svg enable-background="new 0 0 16 16" opacity=".25" viewBox="0 0 16 16" xmlns="http://www.w3.org/2000/svg"><path d="m15.6 3.925-3.527-3.525c-.536-.535-1.403-.533-1.939 0l-9.733 9.733c-.255.255-.401.608-.401.969v3.527c0 .756.615 1.371 1.372 1.371h3.526c.366 0 .71-.143.969-.402l7.387-7.388c.002-.001.004-.002.005-.003s.002-.004.003-.005l2.339-2.339c.532-.534.532-1.403-.001-1.938zm-10.747 10.595h-3.374l-.031-3.341 6.868-6.868 3.373 3.372zm7.882-7.883-3.373-3.372 1.742-1.742 3.373 3.371z" fill="#fff"/></svg>