<svg enable-background="new 0 0 16 16" opacity=".25" viewBox="0 0 16 16" xmlns="http://www.w3.org/2000/svg"><g fill="#fff"><path d="m4.257 5.696 3.743-3.743 3.743 3.743c.158.158.364.237.572.237.207 0 .414-.079.572-.237.316-.316.316-.828 0-1.144l-4.315-4.315c-.316-.316-.828-.316-1.144 0l-4.315 4.315c-.316.316-.316.828 0 1.144s.828.316 1.144 0z"/><path d="m11.743 10.304-3.743 3.743-3.743-3.743c-.316-.316-.828-.316-1.144 0s-.316.828 0 1.144l4.315 4.315c.158.158.365.237.572.237s.414-.079.572-.237l4.315-4.315c.316-.316.316-.828 0-1.144s-.828-.316-1.144 0z"/></g></svg>