<svg enable-background="new 0 0 16 16" opacity=".25" viewBox="0 0 16 16" xmlns="http://www.w3.org/2000/svg"><g fill="#f08500"><path d="m4.887 14.436c-2.808 0-2.808-2.239-2.808-3.588 0-1.699-.13-2.129-1.349-2.129-.4.001-.73-.329-.73-.729s.33-.73.73-.73c1.219 0 1.349-.43 1.349-2.129 0-1.339 0-3.588 2.808-3.588.4 0 .73.33.73.73s-.33.73-.73.73c-1.219 0-1.349.43-1.349 2.129 0 .859 0 2.079-.73 2.858.73.77.73 1.999.73 2.858 0 1.689.13 2.119 1.349 2.119.4 0 .73.33.73.73s-.33.73-.73.73z"/><path d="m11.123 14.436c-.4 0-.73-.33-.73-.73s.33-.73.73-.73c1.209 0 1.349-.43 1.349-2.119 0-.859 0-2.079.73-2.858-.73-.77-.73-1.999-.73-2.858 0-1.699-.13-2.129-1.349-2.129-.4 0-.73-.33-.73-.73s.32-.72.73-.72c2.798 0 2.798 2.249 2.798 3.588 0 1.699.13 2.129 1.349 2.129.4 0 .73.33.73.73s-.33.73-.73.73c-1.209 0-1.349.43-1.349 2.129 0 1.339 0 3.588-2.808 3.588z"/></g></svg>