<svg enable-background="new 0 0 16 16" viewBox="0 0 16 16" xmlns="http://www.w3.org/2000/svg"><g fill="#fff"><path d="m4.884 14.442c-2.807 0-2.807-2.245-2.807-3.585 0-1.696-.132-2.126-1.347-2.126-.403-.001-.73-.328-.73-.731s.327-.73.73-.73c1.215 0 1.347-.43 1.347-2.126 0-1.341 0-3.586 2.807-3.586.403 0 .73.327.73.73s-.327.73-.73.73c-1.215 0-1.347.43-1.347 2.126 0 .857 0 2.083-.732 2.856.732.773.732 1.999.732 2.856 0 1.695.132 2.125 1.347 2.125.403 0 .73.327.73.73 0 .404-.327.731-.73.731z"/><path d="m11.116 14.442c-.403 0-.73-.327-.73-.73s.327-.73.73-.73c1.214 0 1.346-.43 1.346-2.125 0-.858.001-2.083.732-2.856-.731-.773-.732-1.999-.732-2.856 0-1.695-.132-2.126-1.346-2.126-.403 0-.73-.327-.73-.73s.327-.73.73-.73c2.807 0 2.807 2.245 2.807 3.586 0 1.696.133 2.126 1.347 2.126.403-.001.73.326.73.729s-.327.73-.73.73c-1.214 0-1.347.43-1.347 2.126 0 1.341 0 3.586-2.807 3.586z"/></g></svg>