<svg enable-background="new 0 0 16 16" opacity=".25" viewBox="0 0 16 16" xmlns="http://www.w3.org/2000/svg"><path d="m13.923 8.731h1.347c.403 0 .73-.327.73-.73s-.327-.73-.73-.73h-1.347v-.309c0-.471-.061-.927-.165-1.366l1.284-.561c.369-.162.538-.592.377-.962s-.593-.536-.961-.377l-1.211.529c-.99-1.891-2.969-3.186-5.247-3.186-2.279 0-4.257 1.295-5.248 3.186l-1.21-.529c-.37-.162-.8.008-.961.377-.162.37.007.801.377.961l1.284.562c-.104.439-.165.894-.165 1.366v.309h-1.347c-.403 0-.73.327-.73.73s.327.73.73.73h1.347v.308c0 .471.061.927.165 1.366l-1.284.562c-.37.161-.539.592-.377.962.119.273.388.437.669.437.098 0 .197-.02.292-.06l1.211-.53c.99 1.891 2.969 3.186 5.247 3.186 2.279 0 4.257-1.295 5.248-3.186l1.21.529c.096.041.195.061.293.061.281 0 .549-.164.669-.438.161-.37-.008-.8-.377-.962l-1.285-.562c.104-.439.165-.895.165-1.365zm-10.386-1.769c0-2.46 2.002-4.462 4.463-4.462s4.462 2.002 4.462 4.462v.309h-8.925zm0 2.077v-.308h3.733v4.697c-2.113-.351-3.733-2.178-3.733-4.389zm5.193 4.389v-4.697h3.732v.308c0 2.211-1.619 4.038-3.732 4.389z" fill="#fff"/></svg>