<svg enable-background="new 0 0 16 16" viewBox="0 0 16 16" xmlns="http://www.w3.org/2000/svg"><g fill="#fff"><path d="m14.599 16h-13.197c-.773 0-1.402-.628-1.402-1.401v-13.197c0-.773.629-1.402 1.402-1.402h10.284c.37.001.731.151.991.411l2.913 2.913c.261.262.41.622.41.99v10.284c0 .774-.628 1.402-1.401 1.402zm-13.114-1.485h13.031v-10.167l-2.888-2.888-10.143.025z"/><path d="m11.959 16c-.41 0-.742-.332-.742-.742v-5.196h-6.433v5.196c0 .41-.332.742-.742.742s-.742-.332-.742-.742v-5.278c0-.773.629-1.402 1.402-1.402h6.598c.773 0 1.402.629 1.402 1.402v5.278c-.001.41-.333.742-.743.742z"/><path d="m9.98 4.124h-4.619c-.41 0-.742-.332-.742-.742s.332-.742.742-.742h4.619c.41 0 .742.332.742.742s-.333.742-.742.742z"/></g></svg>