<svg enable-background="new 0 0 16 16" viewBox="0 0 16 16" xmlns="http://www.w3.org/2000/svg"><path d="m13.879 11.759c-.679 0-1.277.326-1.665.824l-2.61-.783c.028-.21.064-.417.064-.634 0-1.058-.351-2.029-.929-2.826l4.284-4.285c.263.117.551.184.857.184 1.169.001 2.12-.95 2.12-2.119s-.951-2.12-2.121-2.12c-1.168 0-2.12.951-2.12 2.12 0 .305.068.594.184.857l-4.284 4.284c-.796-.578-1.768-.929-2.825-.929-.217 0-.424.036-.634.064l-.783-2.611c.497-.388.823-.987.823-1.665 0-1.169-.951-2.12-2.12-2.12s-2.12.951-2.12 2.12c0 1.112.864 2.017 1.955 2.103l.782 2.607c-1.613.784-2.737 2.424-2.737 4.336 0 2.666 2.168 4.834 4.834 4.834 1.91 0 3.551-1.123 4.335-2.736l2.607.782c.086 1.091.991 1.954 2.103 1.954 1.17 0 2.121-.951 2.121-2.121 0-1.169-.951-2.12-2.121-2.12zm-12.353-9.639c0-.328.267-.594.594-.594.328 0 .594.266.594.594s-.267.594-.594.594-.594-.266-.594-.594zm12.353-.594c.328 0 .594.266.594.594s-.266.594-.594.594c-.162 0-.308-.066-.415-.171-.001-.001-.002-.003-.003-.005-.001-.001-.003-.002-.004-.003-.105-.107-.171-.253-.171-.415 0-.328.266-.594.593-.594zm-9.045 12.947c-1.823 0-3.307-1.484-3.307-3.307s1.483-3.307 3.307-3.307c1.823 0 3.307 1.484 3.307 3.307s-1.484 3.307-3.307 3.307zm9.045 0c-.327 0-.593-.266-.593-.594 0-.327.266-.593.593-.593.328 0 .595.266.594.593 0 .328-.266.594-.594.594z" fill="#fff"/></svg>