<svg enable-background="new 0 0 16 16" viewBox="0 0 16 16" xmlns="http://www.w3.org/2000/svg"><g fill="#fff"><path d="m3.223 11.586c-.185 0-.369-.07-.512-.209l-2.492-2.448c-.288-.282-.292-.745-.01-1.033.282-.287.744-.293 1.033-.01l1.981 1.945 5.304-5.209c.287-.282.75-.279 1.033.01.282.288.279.75-.01 1.033l-5.816 5.711c-.142.14-.326.21-.511.21z"/><path d="m9.454 11.586c-.184 0-.37-.07-.512-.209l-1.586-1.558c-.288-.282-.292-.745-.01-1.033.282-.286.744-.292 1.033-.009l1.075 1.055 5.305-5.209c.288-.282.751-.277 1.033.01.282.288.279.75-.01 1.033l-5.816 5.711c-.142.139-.328.209-.512.209z"/></g></svg>