<svg enable-background="new 0 0 16 16" viewBox="0 0 16 16" xmlns="http://www.w3.org/2000/svg"><g fill="#fff"><path d="m6.961 13.923c-.403 0-.73-.327-.73-.73v-10.386c0-.403.327-.73.73-.73s.73.327.73.73v10.385c0 .404-.327.731-.73.731z"/><path d="m14.751 12.365h-5.713c-.403 0-.73-.327-.73-.73s.327-.73.73-.73h5.501v-5.809h-5.501c-.403 0-.73-.327-.73-.73s.327-.73.73-.73h5.712c.69-.001 1.25.56 1.25 1.248v6.232c0 .689-.56 1.249-1.249 1.249zm0-7.269h.01z"/><path d="m6.961 12.365h-5.711c-.689 0-1.25-.56-1.25-1.249v-6.232c0-.689.56-1.249 1.25-1.249h5.711c.403 0 .73.327.73.73s-.327.73-.73.73h-5.501v5.809h5.501c.403 0 .73.327.73.73 0 .404-.327.731-.73.731z"/><path d="m4.884 7.692h-2.077c-.403 0-.73-.327-.73-.73s.327-.73.73-.73h2.077c.403 0 .73.327.73.73s-.327.73-.73.73z"/><path d="m3.846 9.769c-.403 0-.73-.327-.73-.73v-2.078c0-.403.327-.73.73-.73s.73.327.73.73v2.077c0 .404-.327.731-.73.731z"/></g></svg>