<svg enable-background="new 0 0 16 16" viewBox="0 0 16 16" xmlns="http://www.w3.org/2000/svg"><path d="m15.927 7.689c-.003-.007-.002-.016-.005-.024l-2.501-4.995c-.375-.752-1.129-1.219-1.968-1.22h-6.905c-.84.001-1.594.468-1.967 1.22l-2.502 4.995c-.003.007-.002.015-.005.021-.045.096-.074.201-.074.314v4.351c0 1.212.986 2.199 2.198 2.199h11.604c1.213 0 2.198-.987 2.198-2.199v-4.351c0-.112-.028-.216-.073-.311zm-12.008-4.35c0-.001.001-.001.001-.002.119-.241.36-.39.628-.39h6.904c.269 0 .509.15.63.392l1.96 3.914h-3.141c-.25 0-.483.125-.622.333l-1.229 1.842h-2.1l-1.229-1.843c-.139-.208-.372-.333-.622-.333h-3.14zm9.884 9.715h-11.604c-.388 0-.703-.315-.703-.703v-3.603h3.203l1.229 1.842c.139.208.372.333.622.333h2.9c.25 0 .483-.124.622-.333l1.229-1.842h3.204v3.603c0 .387-.314.703-.702.703z" fill="#fff"/></svg>