<svg enable-background="new 0 0 16 16" viewBox="0 0 16 16" xmlns="http://www.w3.org/2000/svg"><g fill="#fff"><path d="m5.101 2.194c.349-.174.713-.304 1.082-.411-.179.374-.349.752-.494 1.139-.146.39.051.825.442.972.087.033.177.048.265.048.305 0 .592-.186.706-.489.242-.644.551-1.264.894-1.865.583 1.018 1.018 2.108 1.306 3.242h-.497c-.416 0-.755.338-.755.755s.338.755.755.755h.786c.039.301.092.6.11.903.024.401.357.711.753.711.015 0 .03 0 .044-.001.416-.025.734-.382.71-.798-.016-.273-.042-.544-.074-.815h3.13c.284 1.069.303 2.212.01 3.32h-.639c-.417 0-.755.338-.755.755s.338.755.755.755h.096c-.031.303.121.606.408.751.108.054.224.08.337.08.278 0 .544-.152.677-.417 1.976-3.944.375-8.76-3.569-10.736-.934-.468-1.944-.729-2.966-.808-.117-.035-.239-.045-.362-.02-.17-.005-.34-.005-.511 0-.124-.025-.247-.016-.366.02-1.017.079-2.022.339-2.952.803-.373.187-.525.64-.338 1.013.186.373.64.523 1.012.338zm8.559 2.636h-2.787c-.237-1.051-.589-2.074-1.052-3.047.371.108.737.239 1.087.414 1.205.604 2.14 1.536 2.752 2.633z"/><path d="m15.778 14.711-2.082-2.082c-.013-.015-.017-.033-.031-.047s-.033-.019-.048-.032l-2.664-2.664c-.003-.003-.006-.006-.009-.009l-.037-.037c-.017-.024-.042-.04-.062-.062l-4.725-4.725c-.001-.001-.002-.002-.003-.003l-2.622-2.622c-.024-.033-.037-.071-.067-.101s-.068-.044-.102-.068l-2.038-2.038c-.295-.295-.772-.295-1.067 0s-.295.772 0 1.067l1.615 1.615c-1.179 1.428-1.822 3.203-1.823 5.078-.002 2.137.828 4.147 2.338 5.659 1.411 1.413 3.223 2.181 5.073 2.316.059.014.113.044.174.044.065 0 .129-.01.193-.027.074.002.148.011.222.011.068 0 .135-.008.203-.01.062.016.124.026.186.026.058 0 .111-.029.168-.042 1.617-.112 3.206-.707 4.526-1.794l1.616 1.616c.147.146.339.22.533.22s.386-.074.533-.222c.295-.295.295-.772 0-1.067zm-14.256-6.729c.001-.562.08-1.112.218-1.642h3.139c-.129 1.11-.137 2.223-.01 3.32h-3.123c-.144-.541-.224-1.103-.224-1.678zm4.782-.61 2.288 2.288h-2.198c-.098-.756-.128-1.521-.09-2.288zm3.017 3.798c-.287 1.141-.733 2.228-1.321 3.252-.589-1.027-1.029-2.12-1.315-3.252zm-5.558-6.34h-1.419c.166-.296.356-.58.569-.85zm-1.404 6.34h2.773c.236 1.047.587 2.067 1.052 3.043-1.013-.296-1.968-.842-2.765-1.64-.422-.423-.774-.896-1.06-1.403zm7.459 3.049c.374-.781.682-1.589.909-2.425l1.293 1.293c-.67.527-1.418.906-2.202 1.132z"/></g></svg>