<svg enable-background="new 0 0 16 16" viewBox="0 0 16 16" xmlns="http://www.w3.org/2000/svg"><g fill="#fff"><path d="m7.997 15.999c-4.016 0-7.487-3.027-7.944-7.109-.047-.414.252-.788.666-.834.416-.05.788.252.834.666.398 3.556 3.615 6.11 7.17 5.728 3.556-.398 6.125-3.615 5.727-7.17-.193-1.723-1.045-3.267-2.399-4.348-1.355-1.082-3.048-1.57-4.771-1.379-2.464.274-4.523 1.893-5.374 4.222-.143.391-.576.593-.968.45s-.593-.576-.45-.968c1.049-2.871 3.586-4.866 6.624-5.205 2.126-.24 4.212.366 5.881 1.699 1.669 1.334 2.719 3.238 2.956 5.36.491 4.382-2.676 8.348-7.059 8.838-.299.034-.598.05-.893.05z"/><path d="m4.779 6.342h-4.024c-.417 0-.755-.338-.755-.755v-4.023c0-.417.338-.755.755-.755s.755.338.755.755v3.269h3.269c.417 0 .755.338.755.755s-.338.754-.755.754z"/><path d="m7.998 9.561c-.86 0-1.56-.7-1.56-1.56s.7-1.56 1.56-1.56 1.559.7 1.559 1.56-.699 1.56-1.559 1.56zm-.05-1.56c0 .028.023.05.05.05z"/></g></svg>