<svg enable-background="new 0 0 16 16" viewBox="0 0 16 16" xmlns="http://www.w3.org/2000/svg"><g fill="#fff"><path d="m6.55 16c-.413 0-.748-.335-.748-.748 0-2.787-2.267-5.054-5.054-5.054-.413 0-.748-.335-.748-.748s.335-.748.748-.748c3.611 0 6.55 2.938 6.55 6.55-.001.413-.336.748-.748.748z"/><path d="m10.9 16c-.413 0-.748-.335-.748-.748 0-5.186-4.219-9.405-9.405-9.405-.412 0-.747-.335-.747-.748s.335-.748.748-.748c6.01 0 10.9 4.89 10.9 10.901 0 .413-.335.748-.748.748z"/><path d="m15.252 16c-.413 0-.748-.335-.748-.748 0-7.585-6.171-13.756-13.756-13.756-.413 0-.748-.335-.748-.748s.335-.748.748-.748c8.41 0 15.252 6.842 15.252 15.252 0 .413-.335.748-.748.748z"/><circle cx="1.111" cy="14.889" r="1.088"/></g></svg>