<svg enable-background="new 0 0 16 16" viewBox="0 0 16 16" xmlns="http://www.w3.org/2000/svg"><g fill="#fff"><path d="m8 0c-4.411 0-8 3.589-8 8s3.589 8 8 8 8-3.589 8-8-3.589-8-8-8zm0 14.525c-3.598 0-6.525-2.927-6.525-6.525s2.927-6.525 6.525-6.525 6.525 2.927 6.525 6.525-2.927 6.525-6.525 6.525z"/><path d="m8.738 10.905v-2.905c0-.741-.603-1.343-1.343-1.343-.408 0-.738.331-.738.738 0 .362.261.663.605.726v2.905c0 .741.603 1.343 1.343 1.343.407 0 .738-.331.738-.738 0-.362-.261-.664-.605-.726z"/><path d="m7.697 5.579c.501 0 .908-.406.908-.908s-.407-.908-.908-.908c-.502 0-.908.407-.908.908s.406.908.908.908z"/></g></svg>