<svg enable-background="new 0 0 16 16" viewBox="0 0 16 16" xmlns="http://www.w3.org/2000/svg"><path d="m12.6 8.4-1.3-.7c-.2-.1-.4-.4-.4-.6v-2.7c1.2 0 2.2-1 2.2-2.2s-1-2.2-2.2-2.2h-5.8c-1.2 0-2.2 1-2.2 2.2s1 2.2 2.2 2.2v2.7c0 .3-.2.5-.4.6l-1.3.7c-.8.4-1.2 1.1-1.2 2v.6c0 .8.7 1.5 1.5 1.5h3.6v2.9c0 .3.3.6.7.6s.7-.3.7-.7v-2.9h3.6c.8 0 1.5-.7 1.5-1.5v-.6c0-.8-.4-1.5-1.2-1.9zm-4.5 2.5c-.1 0-.1 0 0 0-.1 0-.1 0-.1 0h-4.3v-.6c0-.3.2-.5.4-.6l1.3-.7c.8-.4 1.2-1.1 1.2-2v-2.6c0-.8-.7-1.5-1.5-1.5-.4 0-.7-.3-.7-.7s.3-.7.7-.7h5.8c.4 0 .7.3.7.7s-.3.7-.7.7c-.8 0-1.5.7-1.5 1.5v2.7c0 .8.5 1.6 1.2 2l1.3.7c.2.1.4.4.4.6v.5z" fill="#fff"/></svg>