<svg enable-background="new 0 0 16 16" viewBox="0 0 16 16" xmlns="http://www.w3.org/2000/svg"><path d="m14.708 5.868h-.944v-.943c0-.712-.579-1.292-1.293-1.292h-4.786l-1.89-1.418c-.223-.167-.498-.259-.777-.259h-3.725c-.713 0-1.293.58-1.293 1.293v10.061c0 .023.011.042.013.064.003.039.013.074.023.111.018.07.043.135.08.195.011.018.011.041.024.058.01.014.026.019.037.032.049.059.106.106.171.147.026.017.047.037.075.051.095.045.199.075.312.075h12.513c.316 0 .596-.203.696-.502l1.989-5.968c.044-.132.067-.271.067-.412 0-.712-.58-1.292-1.292-1.293zm-9.747-2.444 2.04 1.53c.127.095.281.146.44.146h4.855v.768h-8.923c-.557 0-1.049.355-1.227.884l-.678 2.035v-5.363zm7.756 9.153h-10.966l1.748-5.241h10.965z" fill="#fff"/></svg>