<svg enable-background="new 0 0 16 16" viewBox="0 0 16 16" xmlns="http://www.w3.org/2000/svg"><path d="m15.55 10.621c.286-.823.45-1.702.45-2.621s-.164-1.799-.45-2.621c-.013-.047-.027-.092-.049-.134-1.122-3.042-4.036-5.225-7.459-5.242-.029-.003-.055-.003-.083-.001-3.423.017-6.337 2.199-7.459 5.242-.022.042-.036.087-.05.134-.286.823-.45 1.703-.45 2.622s.164 1.799.45 2.621c.013.047.027.092.049.134 1.128 3.055 4.06 5.245 7.501 5.245s6.373-2.189 7.5-5.244c.022-.043.036-.088.05-.135zm-9.338.539h3.573c-.511 1.517-1.292 2.543-1.785 3.08-.499-.537-1.279-1.563-1.788-3.08zm-.353-1.48c-.086-.524-.149-1.074-.149-1.68s.063-1.157.15-1.68h4.28c.087.523.15 1.073.15 1.68s-.063 1.157-.15 1.68zm-4.379-1.68c0-.581.084-1.143.228-1.68h2.654c-.076.527-.122 1.084-.122 1.68s.046 1.153.122 1.68h-2.654c-.144-.538-.228-1.099-.228-1.68zm8.308-3.16h-3.573c.511-1.518 1.292-2.544 1.785-3.08.499.536 1.279 1.562 1.788 3.08zm1.85 1.48h2.654c.144.537.228 1.098.228 1.68s-.084 1.143-.228 1.68h-2.653c.075-.528.121-1.085.121-1.68s-.046-1.153-.122-1.68zm2.06-1.48h-2.377c-.372-1.297-.925-2.327-1.451-3.083 1.642.492 3.01 1.613 3.828 3.083zm-7.574-3.083c-.524.756-1.076 1.786-1.447 3.083h-2.375c.817-1.468 2.183-2.589 3.822-3.083zm-3.82 9.403h2.375c.372 1.297.925 2.326 1.45 3.082-1.638-.493-3.006-1.615-3.825-3.082zm7.568 3.082c.525-.756 1.078-1.786 1.45-3.082h2.375c-.82 1.467-2.188 2.589-3.825 3.082z" fill="#94e7b7"/></svg>