<svg enable-background="new 0 0 16 16" viewBox="0 0 16 16" xmlns="http://www.w3.org/2000/svg"><g fill="#fff"><path d="m5.211 11.062v1.415l.57-.326c.149-.085.333-.085.483 0l.57.326v-1.416c-.256.088-.527.146-.812.146-.286 0-.555-.057-.811-.145z"/><path d="m6.021 7.129c-.856 0-1.553.696-1.553 1.552s.697 1.553 1.553 1.553 1.552-.697 1.552-1.553-.696-1.552-1.552-1.552z"/><path d="m15.258 0h-10.557c-.41 0-.742.332-.742.742v3.217h-3.217c-.41 0-.742.332-.742.742v10.557c0 .41.332.742.742.742h10.557c.41 0 .742-.332.742-.742v-3.217h3.217c.41 0 .742-.332.742-.742v-10.557c0-.41-.332-.742-.742-.742zm-7.451 10.465v2.851c0 .174-.092.334-.243.42-.077.044-.161.066-.245.066s-.167-.021-.241-.064l-1.056-.604-1.056.604c-.15.085-.334.086-.485-.002-.15-.087-.243-.247-.243-.42v-2.848c-.459-.458-.743-1.089-.743-1.786 0-1.392 1.134-2.526 2.526-2.526s2.526 1.133 2.526 2.525c0 .696-.283 1.327-.74 1.784zm6.709.092h-2.475v-5.856c0-.41-.332-.742-.742-.742h-5.856v-2.474h9.073z"/></g></svg>