<svg enable-background="new 0 0 16 16" viewBox="0 0 16 16" xmlns="http://www.w3.org/2000/svg"><g fill="#fff"><path d="m6.883 7.266h-3.354c-.405 0-.734.329-.734.734s.329.734.734.734h3.353c.405 0 .735-.329.735-.734s-.329-.734-.734-.734z"/><path d="m6.883 5.029h-3.354c-.405 0-.734.329-.734.734s.329.734.734.734h3.353c.405 0 .734-.328.735-.734 0-.405-.329-.734-.734-.734z"/><path d="m16 7.161c0-1.05-.428-2.002-1.118-2.692v-2.058c0-.713-.579-1.293-1.293-1.293h-12.297c-.712 0-1.292.579-1.292 1.293v8.943c0 .712.58 1.292 1.292 1.292h8.211v1.503c0 .261.14.503.366.634.228.132.506.131.732.003l1.592-.91 1.592.91c.113.064.238.096.364.096.127 0 .254-.033.37-.099.227-.131.366-.372.366-.634v-4.298c.688-.69 1.115-1.641 1.115-2.69zm-6.149 0c0-1.29 1.05-2.34 2.341-2.34s2.34 1.05 2.34 2.34-1.05 2.341-2.34 2.341-2.341-1.051-2.341-2.341zm-8.384 4.018v-8.594h11.947v.988c-.386-.132-.792-.219-1.222-.219-2.099 0-3.808 1.709-3.808 3.808 0 1.051.428 2.003 1.119 2.693v1.324zm11.091 1.214c-.226-.128-.503-.128-.728 0l-.859.491v-2.133c.385.132.792.219 1.221.219.431 0 .838-.088 1.225-.22v2.134z"/></g></svg>