<svg enable-background="new 0 0 16 16" viewBox="0 0 16 16" xmlns="http://www.w3.org/2000/svg"><g fill="#fff"><path d="m15.258 0h-10.557c-.41 0-.742.332-.742.742v3.217h-3.217c-.41 0-.742.332-.742.742v10.557c0 .41.332.742.742.742h10.557c.41 0 .742-.332.742-.742v-3.217h3.217c.41 0 .742-.332.742-.742v-10.557c0-.41-.332-.742-.742-.742zm-4.701 5.443v9.072h-9.072v-9.072zm3.959 5.114h-2.475v-5.856c0-.41-.332-.742-.742-.742h-5.856v-2.474h9.073z"/><path d="m8.547 8.681c0-1.392-1.134-2.525-2.526-2.525s-2.526 1.133-2.526 2.526c0 .697.284 1.329.742 1.786v2.848c0 .173.093.334.243.42.151.088.336.087.485.002l1.056-.604 1.056.604c.075.042.158.064.241.064.084 0 .168-.022.245-.066.151-.087.243-.247.243-.42v-2.851c.458-.457.741-1.088.741-1.784zm-2.526-1.552c.856 0 1.552.696 1.552 1.552s-.696 1.553-1.552 1.553-1.553-.697-1.553-1.553.697-1.552 1.553-1.552zm.243 5.022c-.15-.085-.334-.085-.483 0l-.57.326v-1.415c.256.087.525.145.81.145.286 0 .556-.058.812-.146v1.416z"/></g></svg>