<svg enable-background="new 0 0 150 150" viewBox="0 0 150 150" xmlns="http://www.w3.org/2000/svg"><path d="m75 0c-41.421 0-75 33.579-75 75s33.579 75 75 75 75-33.579 75-75-33.579-75-75-75zm-36.603 117.394c-3.198 0-5.791-2.593-5.791-5.791s2.593-5.791 5.791-5.791 5.791 2.592 5.791 5.791-2.593 5.791-5.791 5.791zm28.9.106c-2.178 0-3.984-1.806-3.984-3.984 0-14.822-12.059-26.828-26.828-26.828-2.178 0-3.984-1.806-3.984-3.984s1.806-3.984 3.984-3.984c19.178 0 34.797 15.619 34.797 34.797-.001 2.177-1.807 3.983-3.985 3.983zm23.109 0c-2.178 0-3.984-1.806-3.984-3.984 0-27.519-22.419-49.938-49.938-49.938-2.178 0-3.984-1.806-3.984-3.984s1.806-3.984 3.984-3.984c31.928 0 57.906 25.978 57.906 57.906.001 2.178-1.806 3.984-3.984 3.984zm23.11 0c-2.178 0-3.984-1.806-3.984-3.984 0-40.269-32.778-73.047-73.047-73.047-2.178 0-3.984-1.806-3.984-3.984s1.806-3.984 3.984-3.984c44.678 0 81.016 36.338 81.016 81.016-.001 2.177-1.807 3.983-3.985 3.983z" fill="#6b7a8a"/></svg>