<svg enable-background="new 0 0 16 16" viewBox="0 0 16 16" xmlns="http://www.w3.org/2000/svg"><g fill="#fff"><path d="m.058 5.068c.036.088.09.166.155.234.004.003.005.008.008.011s.006.003.009.006c.068.066.147.12.236.157.093.039.191.059.29.058h4.024c.416 0 .754-.338.755-.754 0-.417-.338-.755-.755-.755h-2.203l.522-.522c1.322-1.278 3.064-1.986 4.9-1.994 3.579 0 6.491 2.912 6.491 6.491 0 .417.338.755.755.755s.755-.338.755-.755c0-4.411-3.589-8-8.003-8-2.232.009-4.344.868-5.957 2.427l-.53.53v-2.202c0-.417-.338-.755-.755-.755s-.755.338-.755.755v4.023c0 .099.02.197.058.29z"/><path d="m15.942 10.932c-.077-.185-.225-.333-.41-.409-.047-.019-.098-.02-.147-.03-.047-.009-.09-.028-.139-.028h-4.026c-.417 0-.755.338-.755.755s.338.755.755.755h2.203l-.522.522c-1.322 1.279-3.063 1.987-4.901 1.994-3.579 0-6.491-2.912-6.491-6.491 0-.417-.337-.755-.754-.755s-.755.338-.755.755c0 4.411 3.589 8 8.003 8 2.233-.009 4.344-.868 5.956-2.427l.531-.531v2.203c0 .417.338.755.755.755s.755-.338.755-.755v-4.023c0-.099-.02-.197-.058-.29z"/><circle cx="8" cy="8" r="1.56"/></g></svg>