<svg enable-background="new 0 0 16 16" viewBox="0 0 16 16" xmlns="http://www.w3.org/2000/svg"><g fill="#fff"><path d="m14.831 2.285c-1.555-1.557-4.088-1.557-5.646 0l-.768.769c-.287.287-.286.751 0 1.038s.751.287 1.038 0l.769-.77c.984-.984 2.588-.984 3.572 0s.984 2.587 0 3.572l-2.428 2.426c-.954.956-2.618.955-3.572.001-.003-.003-.008-.008-.012-.012-.482-.487-.747-1.158-.727-1.844.012-.405-.307-.743-.712-.755-.389-.033-.743.307-.755.712-.032 1.092.392 2.162 1.165 2.934.006.005.011.011.017.016.753.746 1.75 1.157 2.811 1.157 1.067 0 2.069-.416 2.823-1.17l2.428-2.428c1.555-1.558 1.555-4.09-.003-5.646z"/><path d="m6.546 11.906-.769.768c-.953.956-2.617.955-3.571.001-.004-.003-.008-.007-.012-.011-.973-.986-.968-2.581.012-3.56l2.427-2.428c.984-.984 2.587-.984 3.573.002.49.488.76 1.164.739 1.854-.013.405.306.744.71.756.008 0 .015.001.022.001.396-.001.722-.314.734-.712.032-1.095-.395-2.166-1.171-2.938-1.555-1.557-4.089-1.557-5.646 0l-2.427 2.427c-1.554 1.554-1.556 4.085-.005 5.643.006.006.012.011.018.017.753.746 1.75 1.157 2.811 1.157 1.068 0 2.07-.416 2.824-1.171l.769-.768c.287-.287.287-.751 0-1.038s-.751-.287-1.038 0z"/></g></svg>