<svg enable-background="new 0 0 16 16" viewBox="0 0 16 16" xmlns="http://www.w3.org/2000/svg"><g fill="#fff"><path d="m1.871 8.001 2.442-2.035c.31-.258.352-.719.094-1.028-.258-.31-.719-.352-1.028-.094l-3.116 2.596c-.166.138-.263.345-.263.561s.096.422.263.561l3.115 2.596c.137.114.302.169.467.169.21 0 .417-.089.563-.261.258-.31.216-.77-.094-1.029z"/><path d="m15.738 7.439-3.116-2.596c-.311-.257-.77-.217-1.029.094-.259.309-.216.77.093 1.028l2.443 2.035-2.443 2.036c-.31.259-.352.719-.093 1.029.145.173.352.262.561.262.165 0 .331-.055.468-.168l3.116-2.597c.166-.139.262-.344.262-.561s-.096-.423-.262-.562z"/><path d="m10.327 1.603c-.378-.14-.798.057-.936.436l-4.154 11.423c-.138.379.057.798.436.936.083.03.167.044.25.044.298 0 .579-.184.686-.481l4.155-11.422c.138-.379-.058-.799-.437-.936z"/></g></svg>