<svg height="484.83" viewBox="0 0 484.83 484.83" width="484.83" xmlns="http://www.w3.org/2000/svg"><circle cx="242.42" cy="242.42" r="242.42"/><g fill="#fff"><path d="m86.29 270.4h-38.38v94.01h18.4v-30.19h19.98c11.79 0 20.63-2.9 26.52-8.7s8.84-13.53 8.84-23.21-2.95-17.42-8.84-23.22-14.73-8.7-26.52-8.7zm.29 46.86h-20.27v-29.76h20.27c10.93 0 16.39 4.94 16.39 14.81s-5.46 14.95-16.39 14.95z"/><path d="m423.45 344.14c-5.13 3.45-11.09 5.17-17.9 5.17-9.3 0-16.84-2.99-22.64-8.98s-8.7-13.63-8.7-22.93 2.9-16.91 8.7-22.86c5.8-5.94 13.34-8.91 22.64-8.91 6.9 0 12.89 1.7 17.97 5.1s8.77 7.98 11.07 13.73h19.41c-2.68-10.83-8.39-19.53-17.11-26.09s-19.17-9.85-31.34-9.85c-.71 0-1.42.02-2.12.04 1.34-2 .9-4.38-1.03-7.29-2.19-3.31-4.2-4.12-10.88-4.39 0 0-4.14-.05-5.71-.23s-6.44-3.25-6.44-3.25c-10.62-5.36-22.48-12.77-22.4-14 .01-.17 1.63-1.49 3.61-2.93 4.02-2.94 7.8-4.77 12.13-5.91 5.83-1.53 34.02-1.95 35.43-.53.28.28-2.08 7.1-2.9 8.38-.4.62-1.01 1.63-1.37 2.25-.54.94-.45.9.54-.23 1.67-1.9 3.61-5.44 4.52-8.22.32-.99.52-1.77.86-2.12.08-.08.39-.19.55-.19.22 0 .43 0 .51.18.09.2.1.86-.05 1.97-.38 2.87-1.74 6.78-3.45 9.92-1.3 2.37-1.31 2.44-.21 1.15 1.87-2.17 4.22-7.41 4.83-10.75.24-1.29.52-2.23.83-2.8.16-.29.22-.45.61-.62.32-.14.56-.13.76.33.37.87.47 5.56-.04 8.21-.56 2.92-.2 2.78.69-.26.45-1.55.74-4.03.71-6.08-.04-3.43-.03-3.48 1.47-4.63 2.66-2.03 7.01-8.75 7.01-10.82 0-.58-.63-1.83-1.4-2.8-3.37-4.23-3.73-5.27-4.06-11.79-.28-5.54-.42-6.25-1.75-8.94-.79-1.61-2.64-4.2-4.11-5.78l-2.67-2.85.95-2.4c.52-1.32 1.94-4.3 3.16-6.61s2.21-4.59 2.21-5.06c0-1.22-1.53-1.11-3.9.28-2.09 1.22-2.23 1.13-1.46-1.08.76-2.17.22-3.66-1.32-3.66-2.62 0-11.33 3.44-17.22 6.79-3.74 2.12-4.03 2.21-9 2.65-6.28.55-10.32 1.64-15.84 4.25-6.92 3.28-13.02 4.42-18.57 3.45-1.73-.3-5.13-1.48-7.85-2.72-7.46-3.41-9.99-4.13-15.34-4.4-2.61-.13-6.76 0-9.23.29-6.97.81-8.96 0-16.98-6.98-6.43-5.59-10.44-8.55-16.26-11.99-24.13-14.29-51.85-17.91-76.36-9.99-4.17 1.35-8.36 3.3-18.03 8.39-3.77 1.99-9.45 2.77-17.76 2.47-12.98-.47-25.59-4.43-36.42-11.41-12.92-8.34-23.74-21.92-27.55-34.6-1.67-5.56-1.76-12.96-.26-20.7 1.22-6.25.99-8.13-1.32-10.76-4.29-4.88-11.5-1.98-15.6 6.28-1.77 3.57-2.48 7.39-2.69 14.63-.17 5.92-.05 7.69.77 11.69 2.84 13.82 10.53 27.25 22.49 39.22 6.31 6.32 12.52 10.79 21.04 15.16 10.27 5.27 19.18 8.35 32.17 11.12 1.9.41 3.91 1.14 4.48 1.63q1.03.9.51 6.85c-1.08 12.3.5 17.75 8.41 29.08 1.61 2.3 1.72 3.21.51 4.3-.48.43-5.75 2.53-10.66 4.24-11.05 3.87-11.14 3.95-10.84 9.14.17 2.99.59 4.58 2.37 9.03 2.43 6.05 6.06 13.31 8.62 17.21 4.01 6.13 9.86 10.61 15.86 12.22v59.35c0 6.13-1.46 10.71-4.38 13.73s-6.78 4.53-11.57 4.53-8.65-1.51-11.57-4.53-4.38-7.59-4.38-13.73v-60.52h-18.4v60.52c0 11.6 3.02 20.39 9.06 26.38s13.94 8.98 23.72 8.98c12.36 0 21.23-4.74 26.59-14.23h.29c5.46 9.49 14.33 14.23 26.59 14.23 9.77 0 17.68-2.99 23.72-8.98s9.06-14.78 9.06-26.38v-60.52h-.29c.54-.6.91-1.48 1.24-2.8.42-2.74-1.13-6.76-4.96-8.55-1.91-.89-3.28-1.21-7.17-1.42-5.2 0-6.55-1.52-10.68-4.32-5.82-3.95-5.36-5.98 1.78-7.9 3.51-.95 9.95-3.85 11.98-5.4 1.49-1.14 2.81-1.41 3.57-.74s7.95 3.54 12.36 4.93c6.19 1.95 10.97 2.82 18.89 3.42 5.42.41 7.28.72 8.25 1.36.69.46 1.53 3.29 3.92 6.28 7.4 9.31 8.45 9.24 10.46 10.93.81.68 2.25 1.61 3.6 2.35-.31 0-.61-.02-.92-.02-12.75 0-22.59 3.5-29.54 10.49-6.95 7-10.42 16.58-10.42 28.75v56.64h18.4v-56.64c0-7.09 1.82-12.55 5.46-16.39 3.64-3.83 9.01-5.75 16.1-5.75s12.46 1.92 16.1 5.75 5.46 9.3 5.46 16.39v56.64h18.4v-56.64c0-12.17-3.47-21.75-10.42-28.75-2.96-2.98-6.45-5.31-10.45-7.02.31-.16.62-.35.94-.6 1.77-1.38 3.02-4.79 1.21-7.12-2.06-2.65-3.93-3.71-7.42-4.58-4.74-1.17-5.02-3-6.53-6.03-.76-1.53-1.39-3.25-1.39-3.84 0-.93 1.83-1.03 2.91-.77 1.28.3 3.03.98 14.18 5.54 9.57 3.91 16.13 5.91 33.64 10.24 8.54 2.11 17.35 4.46 19.58 5.23 2.72.93 3.92 1.19 7.06 1.37-6.62 2.28-12.49 5.91-17.59 10.9-9.39 9.2-14.09 20.89-14.09 35.08s4.69 25.88 14.09 35.07c9.39 9.2 21.37 13.8 35.94 13.8 12.17 0 22.62-3.28 31.34-9.85 8.72-6.56 14.42-15.26 17.11-26.09h-19.41c-2.3 5.75-6.02 10.35-11.14 13.8zm-12.27-143.07c.9 0 1.21.33 1.63 1.76.29.97.39 2.48.23 3.36-.48 2.57-1.06 2.32-2.04-.88-1.18-3.84-1.17-4.24.18-4.24zm-177.69 69.87v59.97c0 6.13-1.46 10.71-4.38 13.73s-6.78 4.53-11.57 4.53-8.65-1.51-11.57-4.53-4.38-7.59-4.38-13.73v-60.52h-.17c.52-.71.84-1.74.98-3.38.17-2.06-.73-4.44-2.37-5.61-1.07-.76-3.05-1.42-6.22-1.94-6.4-1.05-6.64-1.64-8.03-2.73-1.56-1.22-3.83-5.7-4.17-8.25-.42-3.03 1.08-3.58 10.99-3.93l8.26-.29-1.17 1.4c-1.39 1.66-1.56 4.19-.38 5.69 1.64 2.09 11.02 8.65 18.11 12.67 6.57 3.72 11.2 5.87 16.08 6.92z"/></g></svg>