<svg enable-background="new 0 0 16 16" viewBox="0 0 16 16" xmlns="http://www.w3.org/2000/svg"><g fill="#fff"><path d="m15.937 7.704c-.093-.209-2.335-5.107-7.937-5.107-5.603 0-7.845 4.898-7.937 5.106-.084.188-.084.404 0 .593.092.208 2.334 5.107 7.937 5.107 5.602 0 7.844-4.898 7.937-5.106.084-.188.084-.404 0-.593zm-7.937 4.239c-3.961 0-5.916-2.967-6.45-3.941.536-.961 2.517-3.945 6.45-3.945 3.964 0 5.919 2.973 6.451 3.943-.533.972-2.488 3.943-6.451 3.943z"/><path d="m8 4.674c-1.834 0-3.326 1.492-3.326 3.326s1.492 3.327 3.326 3.327 3.327-1.493 3.327-3.327-1.493-3.326-3.327-3.326zm0 5.192c-1.029 0-1.866-.837-1.866-1.866s.837-1.866 1.866-1.866 1.866.837 1.866 1.866-.837 1.866-1.866 1.866z"/></g></svg>