<svg enable-background="new 0 0 16 16" viewBox="0 0 16 16" xmlns="http://www.w3.org/2000/svg"><g fill="#fff"><path d="m15.2 5c0-.2-.1-.4-.2-.5l-4.2-4.2c-.1-.1-.1-.1-.2-.2s-.2-.1-.3-.1h-7.3c-.7 0-1.3.6-1.3 1.3v5.4c0 .4.3.7.7.7s.7-.3.7-.7v-5.2h6.4v3.5c0 .4.3.7.7.7h3.5v8.8h-1.7c-.4 0-.7.3-.7.7s.3.7.7.7h1.8c.7 0 1.3-.6 1.3-1.3zm-4.2-2.5 1.7 1.7h-1.7z"/><path d="m8.2 11.2c-.3-.1-.7-.2-.8-.3 0-.1.1-.2.1-.2.3-.2 1-.1 1.4 0s.8-.1.9-.5-.1-.8-.5-.9c-.3-.1-1.7-.5-2.7.2-.4.2-.6.7-.7 1.2-.2 1.3 1.1 1.7 1.8 1.9.3 0 .8.2.9.4 0 .1-.1.2-.1.2-.3.2-1 .1-1.4 0s-.8.1-.9.5.1.8.5.9c.1 0 .6.2 1.2.2.5 0 1-.1 1.4-.4s.7-.7.8-1.2c.2-1.4-1.2-1.8-1.9-2z"/><path d="m4.2 9.1c-.4 0-.7.3-.7.7v2.9c0 .3-.3.6-.6.6s-.7-.3-.7-.6c0-.4-.3-.7-.7-.7s-.7.3-.7.7c0 1.2.9 2.1 2.1 2.1 1.1 0 2.1-1 2.1-2.1v-2.9c0-.4-.4-.7-.8-.7z"/></g></svg>