<svg enable-background="new 0 0 16 16" viewBox="0 0 16 16" xmlns="http://www.w3.org/2000/svg"><g fill="#fff"><path d="m15.258 8.743h-14.516c-.41 0-.742-.333-.742-.743s.332-.742.742-.742h14.515c.411 0 .743.332.743.742s-.332.743-.742.743z"/><path d="m15.258 3.464h-14.516c-.41 0-.742-.333-.742-.743s.332-.741.742-.741h14.515c.41 0 .742.332.742.742s-.331.742-.741.742z"/><path d="m15.258 14.021h-14.516c-.41 0-.742-.333-.742-.743s.332-.742.742-.742h14.515c.41 0 .742.332.742.742s-.331.743-.741.743z"/></g></svg>