<svg enable-background="new 0 0 16 16" viewBox="0 0 16 16" xmlns="http://www.w3.org/2000/svg"><g fill="#fff"><path d="m15.59 3.324-2.913-2.913c-.26-.26-.621-.41-.991-.411h-10.284c-.773 0-1.402.629-1.402 1.402v13.197c0 .773.629 1.401 1.402 1.401h13.197c.773 0 1.401-.628 1.401-1.402v-10.284c0-.368-.149-.728-.41-.99zm-4.373 11.191h-6.433v-4.453h6.433zm3.299 0h-1.814v-4.535c0-.773-.629-1.402-1.402-1.402h-6.598c-.773 0-1.402.629-1.402 1.402v4.535h-1.815v-13.03l10.143-.025 2.888 2.888z"/><path d="m9.98 2.64h-4.619c-.41 0-.742.332-.742.742s.332.742.742.742h4.619c.409 0 .742-.332.742-.742s-.332-.742-.742-.742z"/></g></svg>