<svg enable-background="new 0 0 16 16" viewBox="0 0 16 16" xmlns="http://www.w3.org/2000/svg"><path d="m13.957 8.23c.326-.117.679-.099.993.049.227.108.494.092.708-.043.213-.136.342-.37.342-.622v-3.101c0-.726-.591-1.317-1.316-1.316h-2.464c.022-.45-.066-.902-.264-1.321-.317-.669-.875-1.174-1.572-1.423-.695-.249-1.448-.212-2.117.105-.669.316-1.174.874-1.423 1.571-.124.348-.177.71-.16 1.067h-2.462c-.726 0-1.317.591-1.317 1.317v2.173c-.446-.026-.9.066-1.318.263-.669.316-1.175.874-1.424 1.571s-.212 1.449.104 2.118c.316.668.874 1.174 1.571 1.423.348.125.709.182 1.067.16v2.172c0 .726.591 1.317 1.317 1.317h10.461c.726 0 1.317-.591 1.317-1.317v-3.101c0-.252-.129-.487-.342-.622-.212-.134-.48-.151-.708-.043-.353.167-.758.167-1.111 0-.647-.307-.925-1.083-.619-1.73.149-.313.41-.55.737-.667zm-.747 3.726c.418.198.87.289 1.319.264v2.019h-10.152v-2.947c0-.252-.129-.487-.342-.622-.213-.136-.481-.152-.708-.043-.314.149-.666.165-.993.048-.326-.117-.588-.353-.736-.667-.149-.314-.166-.666-.049-.993.116-.326.353-.588.667-.736.353-.167.759-.166 1.11 0 .228.108.495.092.708-.043.213-.136.342-.37.342-.622v-2.947h3.238c.252 0 .487-.129.622-.342s.151-.48.043-.708c-.149-.313-.166-.666-.05-.992.116-.327.353-.589.667-.737s.667-.167.993-.051c.327.117.589.354.737.667.167.353.167.759 0 1.112-.108.228-.092.495.043.708.136.213.37.342.622.342h3.238v2.02c-1.085-.06-2.145.541-2.638 1.582-.653 1.38-.061 3.035 1.319 3.688z" fill="#fff"/></svg>