<svg enable-background="new 0 0 16 16" viewBox="0 0 16 16" xmlns="http://www.w3.org/2000/svg"><g fill="#fff"><path d="m15.609 5.072c-.021-.05-.058-.089-.088-.132-.024-.034-.04-.074-.07-.104l-4.618-4.618c-.017-.017-.04-.024-.058-.039-.056-.046-.113-.092-.18-.12-.091-.039-.188-.059-.287-.059h-7.916c-.774 0-1.402.629-1.402 1.402v5.937c0 .41.332.742.742.742s.742-.332.742-.742v-5.854h7.091v3.875c0 .41.332.742.742.742h3.876v1.237c0 .41.332.742.742.742s.743-.332.743-.742v-1.979c0-.1-.021-.198-.059-.288zm-4.559-2.537 2.083 2.082h-2.083z"/><path d="m3.043 11.38c.296.003.581.13.782.348.278.302.748.321 1.049.043.302-.278.32-.747.043-1.049-.477-.517-1.153-.819-1.865-.827-1.5 0-2.721 1.369-2.721 3.051s1.22 3.051 2.73 3.051c.703-.009 1.379-.31 1.856-.827.277-.301.259-.771-.043-1.049-.3-.277-.771-.258-1.049.043-.2.218-.486.345-.773.349-.682 0-1.237-.703-1.237-1.567 0-.863.555-1.566 1.228-1.566z"/><path d="m8.321 12.158c-.285-.082-.816-.235-.897-.388.02-.16.078-.211.131-.247.32-.218 1.123-.15 1.566-.035.395.1.801-.134.905-.53.104-.397-.132-.801-.527-.906-.177-.046-1.766-.44-2.773.239-.438.295-.705.742-.775 1.292-.176 1.387 1.161 1.771 1.96 2.001.92.265 1.011.37.991.53-.023.174-.085.229-.142.267-.32.213-1.112.137-1.544.02-.395-.108-.804.121-.914.516-.11.394.121.804.516.914.099.028.637.169 1.269.169.495 0 1.048-.087 1.493-.381.447-.296.722-.75.794-1.314.193-1.501-1.213-1.906-2.053-2.147z"/><path d="m13.598 12.158c-.286-.082-.816-.235-.897-.388.02-.16.078-.211.131-.247.319-.218 1.121-.15 1.565-.035.397.1.803-.134.906-.53.103-.397-.132-.801-.528-.906-.179-.047-1.765-.441-2.773.239-.438.295-.705.742-.775 1.292-.175 1.387 1.162 1.771 1.96 2.001.921.265 1.012.37.991.53-.022.174-.084.229-.141.267-.32.213-1.112.137-1.544.02-.393-.108-.804.121-.914.516-.11.394.121.804.516.914.099.028.637.169 1.27.169.495 0 1.048-.087 1.492-.381.446-.296.721-.75.794-1.314.192-1.501-1.213-1.906-2.053-2.147z"/></g></svg>