<svg enable-background="new 0 0 16 16" viewBox="0 0 16 16" xmlns="http://www.w3.org/2000/svg"><g fill="#fff"><path d="m14.332 0h-12.664c-.92 0-1.668.748-1.668 1.668v1.809c0 .92.748 1.668 1.668 1.668h12.664c.92 0 1.668-.748 1.668-1.668v-1.809c0-.92-.748-1.668-1.668-1.668zm.141 3.477c0 .078-.063.141-.141.141h-12.664c-.078 0-.142-.063-.142-.141v-1.809c0-.078.064-.142.142-.142h12.664c.077 0 .141.064.141.142z"/><path d="m5.286 7.236h-3.618c-.92 0-1.668.748-1.668 1.668v5.428c0 .92.748 1.668 1.668 1.668h3.618c.92 0 1.668-.748 1.668-1.668v-5.428c0-.92-.748-1.668-1.668-1.668zm.141 7.096c0 .077-.063.141-.141.141h-3.618c-.078 0-.142-.063-.142-.141v-5.428c0-.078.064-.141.142-.141h3.618c.078 0 .141.063.141.141z"/><path d="m15.236 7.237h-5.428c-.421 0-.763.342-.763.763s.342.763.764.763h5.428c.421 0 .763-.342.763-.763s-.342-.763-.764-.763z"/><path d="m15.237 10.856h-5.428c-.421 0-.763.342-.763.763s.342.763.763.763h5.428c.421 0 .763-.342.763-.763s-.342-.763-.763-.763z"/><path d="m15.237 14.474h-5.428c-.421 0-.763.342-.763.763s.342.763.763.763h5.428c.421 0 .763-.342.763-.763s-.342-.763-.763-.763z"/></g></svg>