<svg enable-background="new 0 0 16 16" viewBox="0 0 16 16" xmlns="http://www.w3.org/2000/svg"><g fill="#fff"><path d="m14.657 1.21h-13.314c-.74 0-1.343.602-1.343 1.343v10.893c0 .741.603 1.344 1.343 1.344h13.314c.741 0 1.343-.603 1.343-1.344v-10.893c0-.741-.602-1.343-1.343-1.343zm-.132 1.475v7.32l-1.744-1.745c-.523-.523-1.376-.522-1.898 0l-1.422 1.421-3.235-3.235c-.524-.524-1.376-.523-1.899 0l-2.852 2.852v-6.613zm-13.05 8.699 3.801-3.802 5.733 5.733h-9.534zm11.619 1.931-2.59-2.591 1.328-1.326 2.693 2.694v1.223z"/><path d="m10.118 6.79c.501 0 .908-.406.908-.908s-.407-.908-.908-.908-.908.407-.908.908.407.908.908.908z"/></g></svg>