<svg enable-background="new 0 0 16 16" viewBox="0 0 16 16" xmlns="http://www.w3.org/2000/svg"><path d="m14.657.605h-13.314c-.74 0-1.343.603-1.343 1.343v10.288c0 .741.603 1.343 1.343 1.343h1.078v1.078c0 .408.331.738.738.738s.737-.33.738-.738v-1.078h8.206v1.078c0 .408.331.738.738.738s.738-.33.738-.738v-1.078h1.078c.741 0 1.343-.602 1.343-1.342v-10.289c0-.741-.603-1.343-1.343-1.343zm-1.811 11.499c-.002 0-.003-.001-.005-.001s-.003.001-.005.001h-9.672c-.002 0-.003-.001-.005-.001s-.003.001-.005.001h-1.679v-10.024h13.05v4.577h-1.021c-.344-1.723-1.867-3.026-3.689-3.026-2.075 0-3.763 1.688-3.763 3.764s1.688 3.764 3.763 3.764c1.823 0 3.345-1.303 3.689-3.026h1.021v3.971zm-2.095-5.447c-.222-.28-.55-.472-.935-.472-.668 0-1.21.542-1.21 1.21s.542 1.21 1.21 1.21c.385 0 .713-.191.935-.472h1.22c-.309.899-1.154 1.551-2.156 1.551-1.261 0-2.288-1.027-2.288-2.289s1.027-2.289 2.288-2.289c1.002 0 1.847.652 2.156 1.551z" fill="#fff"/></svg>