<svg enable-background="new 0 0 16 16" viewBox="0 0 16 16" xmlns="http://www.w3.org/2000/svg"><path d="m15.246 7.245h-2.697l-2.232-5.95c-.116-.309-.404-.51-.75-.489-.329.019-.609.25-.689.571l-2.632 10.529-1.564-4.171c-.111-.295-.393-.49-.707-.49h-3.22c-.417 0-.755.338-.755.755s.338.755.755.755h2.697l2.231 5.951c.111.295.394.489.706.489.015 0 .029 0 .044-.001.33-.019.609-.251.689-.571l2.632-10.528 1.564 4.17c.111.295.393.49.707.49h3.22c.417 0 .755-.338.755-.755s-.338-.755-.754-.755z" fill="#fff"/></svg>