<svg enable-background="new 0 0 16 16" viewBox="0 0 16 16" xmlns="http://www.w3.org/2000/svg"><g fill="#fff"><path d="m9.042 13.034-.234.234v-6.068c0-.442-.358-.8-.8-.8s-.8.359-.801.8v6.069l-.234-.234c-.007-.007-.013-.014-.02-.02-.318-.307-.824-.298-1.131.02s-.298.824.02 1.131l1.6 1.6c.312.312.819.312 1.131 0l1.6-1.6c.299-.311.299-.802 0-1.112-.307-.318-.813-.327-1.131-.02z"/><path d="m11.367 2.404c-.772-1.341-2.143-2.226-3.682-2.38-2.637-.263-4.989 1.662-5.252 4.299-1.471.631-2.425 2.077-2.425 3.678.001 2.209 1.792 3.999 4 3.999h.8c.442 0 .8-.358.8-.8s-.358-.8-.8-.8h-.8c-1.088-.004-2.038-.74-2.314-1.793-.335-1.283.433-2.595 1.716-2.93.36-.093.609-.422.6-.794-.001-.027-.001-.055-.001-.082 0-1.768 1.433-3.2 3.2-3.2 1.276 0 2.431.759 2.937 1.93.136.315.457.508.799.48.084-.006.169-.01.253-.01 1.768-.003 3.202 1.428 3.205 3.195.003 1.768-1.428 3.202-3.195 3.205-.442 0-.8.358-.8.8s.358.8.8.8c2.577-.008 4.687-2.05 4.78-4.625.097-2.651-1.972-4.876-4.621-4.972z"/></g></svg>