<svg enable-background="new 0 0 16 16" viewBox="0 0 16 16" xmlns="http://www.w3.org/2000/svg"><g fill="#fff"><path d="m15.855 8.081c-.427-.57-.979-1.025-1.601-1.342.286-.324.504-.713.618-1.153.387-1.499-.518-3.033-2.017-3.421-1.507-.383-3.033.52-3.42 2.017-.101.391.135.789.525.89.391.095.788-.134.89-.525.089-.348.309-.64.619-.823.311-.183.672-.236 1.021-.144.719.185 1.153.922.967 1.641-.154.595-.69 1.01-1.303 1.01 0 0 0 0-.001 0-.279 0-.512.162-.635.392-.01.019-.028.034-.037.055-.007.017-.005.038-.011.056-.024.073-.046.147-.046.228s0 0 0 0c0 .403.327.729.73.729h.001.002c.99 0 1.935.473 2.528 1.265.144.192.364.293.586.293.152 0 .305-.048.437-.146.323-.242.388-.7.147-1.022z"/><path d="m3.846 7.692c.403 0 .73-.326.73-.729 0-.202-.082-.385-.214-.517-.132-.133-.314-.215-.517-.215-.742-.001-1.346-.605-1.346-1.348 0-.36.14-.697.395-.952.254-.254.592-.394.952-.394h.001c.614 0 1.149.416 1.303 1.01.1.39.501.62.888.526.391-.101.626-.499.525-.89-.319-1.239-1.436-2.105-2.716-2.105 0 0-.001 0-.002 0-.748 0-1.453.292-1.983.821s-.823 1.234-.823 1.984c0 .713.275 1.357.714 1.853-.624.317-1.178.774-1.607 1.346-.242.322-.177.78.146 1.022.131.097.284.145.437.145.222 0 .441-.101.586-.292.594-.792 1.539-1.265 2.529-1.265z"/><path d="m10.512 11.071c-.083-.049-.174-.077-.259-.121.656-.608 1.073-1.469 1.073-2.431 0-1.834-1.493-3.326-3.327-3.326s-3.326 1.491-3.326 3.325c0 .958.413 1.817 1.064 2.425-.824.423-1.52 1.062-2.001 1.879-.205.348-.09.795.258 1 .116.069.244.101.37.101.25 0 .493-.128.629-.36.473-.804 1.231-1.374 2.133-1.607.903-.233 1.842-.1 2.645.373.507.298.934.724 1.233 1.234.205.346.652.463 1 .259.347-.205.463-.653.259-1-.426-.722-1.031-1.328-1.751-1.751zm-2.513-4.418c1.029 0 1.866.838 1.866 1.866s-.837 1.866-1.866 1.866-1.866-.839-1.866-1.867.837-1.865 1.866-1.865z"/></g></svg>