<svg enable-background="new 0 0 16 16" viewBox="0 0 16 16" xmlns="http://www.w3.org/2000/svg"><path d="m15.901 14.59c-1.123-1.941-2.836-3.339-4.831-4.056 1.51-.999 2.508-2.711 2.508-4.653 0-3.076-2.503-5.579-5.579-5.579s-5.579 2.502-5.579 5.579c0 1.942.999 3.654 2.509 4.654-1.995.717-3.707 2.115-4.83 4.056-.204.352-.084.803.269 1.008.352.204.804.084 1.007-.269 1.402-2.424 3.878-3.87 6.625-3.87s5.221 1.447 6.623 3.869c.138.236.386.368.64.368.125 0 .253-.032.369-.099.353-.204.473-.656.269-1.008zm-12.006-8.708c0-2.263 1.841-4.104 4.104-4.104s4.104 1.841 4.104 4.104c0 2.261-1.838 4.1-4.098 4.103-.002 0-.004 0-.006 0s-.004 0-.006 0c-2.26-.003-4.098-1.842-4.098-4.103z" fill="#fff"/></svg>