<svg enable-background="new 0 0 16 16" viewBox="0 0 16 16" xmlns="http://www.w3.org/2000/svg"><g fill="#6b7a8a"><path d="m14.105 1.613c-1.159-1.089-2.688-1.668-4.266-1.609-3.187.11-5.765 2.778-5.775 5.965 0 .6.08 1.189.26 1.758l-3.936 3.936c-.24.24-.38.58-.38.929v2.078c0 .729.59 1.319 1.319 1.319h2.318v.011c.4 0 .729-.33.729-.729v-1.009h1.009c.41 0 .739-.33.739-.739v-1.009h1.009c.2 0 .38-.08.52-.22l.629-.629c.569.17 1.179.29 1.758.26 3.177 0 5.855-2.588 5.955-5.765 0-.13 0-.26 0-.39-.06-1.589-.729-3.068-1.888-4.157zm.429 4.486c-.08 2.398-2.088 4.346-4.486 4.346-.619 0-1.149-.1-1.678-.32-.28-.11-.589-.05-.799.16l-.739.739h-1.44c-.41 0-.739.33-.739.739v1.009h-1.009c-.41 0-.739.33-.739.739v1.009h-1.429v-.01-1.858l4.236-4.226c.21-.21.27-.529.16-.799-.21-.539-.32-1.099-.32-1.678 0-2.398 1.948-4.406 4.346-4.486 1.189-.03 2.338.39 3.217 1.209s1.379 1.928 1.419 3.127z"/><circle cx="11.477" cy="4.51" r=".869"/></g></svg>