<svg enable-background="new 0 0 16 16" viewBox="0 0 16 16" xmlns="http://www.w3.org/2000/svg"><path d="m13.666 13.641c1.441-1.447 2.334-3.442 2.334-5.641 0-4.411-3.589-8-8-8-2.196 0-4.188.891-5.635 2.328-.006.006-.015.008-.022.015s-.009.016-.015.022c-1.437 1.447-2.328 3.439-2.328 5.635 0 4.411 3.589 8 8 8 2.199 0 4.193-.893 5.641-2.334.005-.004.011-.006.015-.01s.006-.01.01-.015zm.859-5.641c0 1.534-.535 2.943-1.424 4.058l-9.159-9.159c1.115-.889 2.524-1.424 4.058-1.424 3.598 0 6.525 2.927 6.525 6.525zm-13.05 0c0-1.534.535-2.943 1.424-4.058l9.159 9.159c-1.115.889-2.524 1.424-4.058 1.424-3.598 0-6.525-2.927-6.525-6.525z" fill="#fff"/></svg>