<svg enable-background="new 0 0 16 16" viewBox="0 0 16 16" xmlns="http://www.w3.org/2000/svg"><g fill="#fff"><path d="m6.155 11.165c.139.139.328.217.525.217s.386-.078.526-.217l4.618-4.619c.29-.29.29-.76 0-1.05s-.76-.29-1.05 0l-4.094 4.094-1.454-1.454c-.29-.29-.76-.29-1.05 0s-.29.76 0 1.049z"/><path d="m14.598 0h-13.196c-.773 0-1.402.629-1.402 1.402v13.197c0 .773.629 1.401 1.402 1.401h13.197c.773 0 1.401-.628 1.401-1.402v-13.196c0-.773-.628-1.402-1.402-1.402zm-.082 14.515h-13.031v-13.03h13.031z"/></g></svg>