<svg enable-background="new 0 0 16 16" viewBox="0 0 16 16" xmlns="http://www.w3.org/2000/svg"><g fill="#fff"><path d="m.762 15.095c-.154 0-.309-.046-.443-.142-.343-.245-.422-.721-.177-1.064l9.046-12.665c.244-.341.721-.423 1.064-.177.344.245.422.721.178 1.065l-9.047 12.663c-.149.209-.383.32-.621.32z"/><path d="m6.19 15.095c-.154 0-.309-.046-.443-.142-.343-.245-.422-.721-.177-1.064l9.046-12.666c.244-.341.721-.423 1.064-.177.344.245.422.721.178 1.065l-9.046 12.664c-.149.209-.384.32-.622.32z"/></g></svg>