<svg enable-background="new 0 0 16 16" viewBox="0 0 16 16" xmlns="http://www.w3.org/2000/svg"><g fill="#fff"><path d="m14.815 11.074c-.419 0-.759.34-.759.759v1.704c0 .521-.423.945-.945.945h-10.223c-.521 0-.945-.423-.945-.945v-1.704c0-.419-.34-.759-.759-.759s-.759.34-.759.759v1.704c.001 1.358 1.105 2.463 2.462 2.463h10.223c1.359 0 2.463-1.105 2.464-2.463v-1.704c0-.419-.34-.759-.759-.759z"/><path d="m4.276 5.555 2.964-2.964v8.39c0 .419.34.759.759.759s.758-.34.759-.758v-8.391l2.965 2.964c.148.148.341.222.536.222.194 0 .388-.074.536-.222.296-.296.296-.777 0-1.073l-4.256-4.256c-.072-.072-.157-.129-.252-.168-.047-.019-.098-.02-.147-.03-.047-.009-.091-.028-.141-.028-.041 0-.076.017-.115.023-.059.009-.118.013-.173.035-.094.039-.178.095-.249.165l-4.259 4.259c-.296.296-.296.777 0 1.073s.777.296 1.073 0z"/></g></svg>